{
	"asset":{
		"copyright":"aymen menai",
		"generator":"Khronos glTF Blender I/O v4.0.44",
		"version":"2.0"
	},
	"scene":0,
	"scenes":[
		{
			"name":"Scene",
			"nodes":[
				0,
				1
			]
		}
	],
	"nodes":[
		{
			"mesh":0,
			"name":"can"
		},
		{
			"mesh":1,
			"name":"tab",
			"translation":[
				0,
				0.004536330699920654,
				0
			]
		}
	],
	"materials":[
		{
			"doubleSided":true,
			"name":"metailic",
			"pbrMetallicRoughness":{
				"baseColorFactor":[
					0.800000011920929,
					0.800000011920929,
					0.800000011920929,
					1
				],
				"roughnessFactor":0.20000000298023224
			}
		}
	],
	"meshes":[
		{
			"name":"Circle",
			"primitives":[
				{
					"attributes":{
						"POSITION":0,
						"NORMAL":1,
						"TEXCOORD_0":2
					},
					"indices":3,
					"material":0
				}
			]
		},
		{
			"name":"Circle.001",
			"primitives":[
				{
					"attributes":{
						"POSITION":4,
						"NORMAL":5,
						"TEXCOORD_0":6
					},
					"indices":7,
					"material":0
				}
			]
		}
	],
	"accessors":[
		{
			"bufferView":0,
			"componentType":5126,
			"count":1215,
			"max":[
				2.236447811126709,
				0.21464970707893372,
				3.168713092803955
			],
			"min":[
				-4.07933235168457,
				-12.032153129577637,
				-3.168713092803955
			],
			"type":"VEC3"
		},
		{
			"bufferView":1,
			"componentType":5126,
			"count":1215,
			"type":"VEC3"
		},
		{
			"bufferView":2,
			"componentType":5126,
			"count":1215,
			"type":"VEC2"
		},
		{
			"bufferView":3,
			"componentType":5123,
			"count":7278,
			"type":"SCALAR"
		},
		{
			"bufferView":4,
			"componentType":5126,
			"count":582,
			"max":[
				0.023872733116149902,
				0.24851223826408386,
				0.5926654934883118
			],
			"min":[
				-2.468587875366211,
				0,
				-0.5926654934883118
			],
			"type":"VEC3"
		},
		{
			"bufferView":5,
			"componentType":5126,
			"count":582,
			"type":"VEC3"
		},
		{
			"bufferView":6,
			"componentType":5126,
			"count":582,
			"type":"VEC2"
		},
		{
			"bufferView":7,
			"componentType":5123,
			"count":3504,
			"type":"SCALAR"
		}
	],
	"bufferViews":[
		{
			"buffer":0,
			"byteLength":14580,
			"byteOffset":0,
			"target":34962
		},
		{
			"buffer":0,
			"byteLength":14580,
			"byteOffset":14580,
			"target":34962
		},
		{
			"buffer":0,
			"byteLength":9720,
			"byteOffset":29160,
			"target":34962
		},
		{
			"buffer":0,
			"byteLength":14556,
			"byteOffset":38880,
			"target":34963
		},
		{
			"buffer":0,
			"byteLength":6984,
			"byteOffset":53436,
			"target":34962
		},
		{
			"buffer":0,
			"byteLength":6984,
			"byteOffset":60420,
			"target":34962
		},
		{
			"buffer":0,
			"byteLength":4656,
			"byteOffset":67404,
			"target":34962
		},
		{
			"buffer":0,
			"byteLength":7008,
			"byteOffset":72060,
			"target":34963
		}
	],
	"buffers":[
		{
			"byteLength":79068,
			"uri":"can.bin"
		}
	]
}
