<?xml version="1.0" encoding="UTF-8" standalone="no"?>
<!-- Created with Inkscape (http://www.inkscape.org/) -->

<svg
   width="82.595673mm"
   height="63.666431mm"
   viewBox="0 0 82.595673 63.666431"
   version="1.1"
   id="svg1"
   xmlns="http://www.w3.org/2000/svg"
   xmlns:svg="http://www.w3.org/2000/svg">
  <defs
     id="defs1" />
  <g
     id="layer1"
     transform="translate(132.4824,387.3765)">
    <path
       id="path5838"
       style="fill:#000000;stroke-width:0.264583"
       d="m -76.346822,-387.3765 -1.92961,1.10432 c -1.06119,0.60714 -2.12833,1.02725 -2.37194,0.9338 -0.44201,-0.16963 -5.93407,1.12168 -7.69255,1.80867 l -0.9281,0.36277 -0.74002,-0.85163 -0.74001,-0.85111 -0.88469,0.33642 c -0.99486,0.37822 -2.12645,0.9293 -6.76859,3.29695 -1.775598,0.90562 -3.338228,1.64641 -3.472658,1.64641 -0.13446,0 -1.18356,0.71438 -2.33164,1.5875 -1.14808,0.87313 -2.39107,1.5875 -2.76209,1.5875 -1.54083,0 -4.9049,4.71994 -5.17591,7.26208 -0.0498,0.46705 -0.1986,1.20702 -0.33073,1.64435 l -0.24029,0.79478 0.32969,-0.35243 c 0.18145,-0.19402 1.23468,-1.57627 2.34042,-3.07113 1.10578,-1.4949 2.19308,-2.8306 2.41586,-2.96829 l 0.40463,-0.25011 -0.27593,0.67541 c -0.53174,1.29917 -0.62879,1.90995 -0.30335,1.90995 0.18045,0 0.54764,-0.55993 0.81598,-1.24385 l 0.48781,-1.24333 0.27286,0.48835 c 0.15026,0.26846 0.13391,0.97454 -0.0367,1.5694 -0.1706,0.59486 -0.22053,1.17164 -0.11059,1.28157 0.37732,0.37733 1.1467,-0.5863 1.1467,-1.43608 0,-2.13476 2.80403,-5.5761 5.401232,-6.62853 1.252116,-0.5076 6.694856,-1.03439 7.047096,-0.68213 0.20966,0.20963 -3.45678,2.21532 -4.09432,2.23966 -0.15907,0.006 -0.99251,0.49481 -1.85209,1.08624 l -1.562678,1.07538 v 0.69505 0.69557 l 0.969968,-0.23048 c 0.53358,-0.12676 1.2207,-0.44764 1.52704,-0.71262 0.30631,-0.26498 0.67474,-0.48162 0.81854,-0.48162 0.14377,0 0.94348,-0.46922 1.77715,-1.04283 1.48717,-1.0232 3.19919,-1.57609 3.776,-1.21957 0.16037,0.0991 -0.24878,0.96518 -0.90897,1.92495 -1.1742,1.70696 -1.88548,3.70748 -1.46712,4.12584 0.11549,0.11546 0.25517,0.14335 0.3106,0.0625 0.0555,-0.0808 0.78869,-1.17135 1.62935,-2.42361 l 1.52858,-2.27686 0.0465,-1.06144 0.0465,-1.06143 -0.79168,-0.39739 c -0.96608,-0.48482 -0.67067,-0.86352 0.67386,-0.86352 1.43275,0 1.23235,-0.51586 -0.41135,-1.05833 -1.48971,-0.49165 -1.87883,-1.05833 -0.72657,-1.05833 0.37661,0 0.76658,-0.13266 0.86662,-0.29456 0.10006,-0.1619 0.8555,-0.3207 1.67897,-0.35295 0.82346,-0.0323 1.65613,-0.21691 1.85001,-0.41083 0.19392,-0.19388 0.67816,-0.35017 1.07591,-0.34726 l 0.72294,0.005 -0.52916,0.34209 -0.52917,0.3421 0.62889,0.005 c 0.34578,0.003 1.16612,-0.21949 1.82316,-0.49403 0.65704,-0.27453 1.28014,-0.41331 1.38491,-0.3085 0.1048,0.10477 0.83561,-0.0676 1.6237,-0.38293 1.61539,-0.64637 3.53518,-0.75899 3.53518,-0.20774 0,0.53137 -1.13184,2.22721 -1.73583,2.60088 -0.28501,0.17632 -0.87347,0.70379 -1.30741,1.17202 l -0.78856,0.85111 -0.70695,-0.37775 c -1.14562,-0.61312 -1.28463,-0.43781 -0.39997,0.50384 0.45569,0.48506 0.68165,0.89994 0.50229,0.92243 -0.17934,0.0224 -0.48501,0.0622 -0.67903,0.0884 -0.36073,0.0486 -0.52917,0.33209 -0.52917,0.89142 0,0.50369 1.14152,0.80149 1.54099,0.40204 0.54756,-0.54755 1.63402,-0.43792 1.63402,0.16485 0,0.29104 0.22717,0.52917 0.50437,0.52917 0.27718,0 0.73711,0.2333 1.02214,0.51831 l 0.51832,0.51832 -0.11679,-1.25264 -0.11626,-1.25212 0.46146,0.17725 c 0.25377,0.0974 0.83844,-0.0102 1.29916,-0.23874 0.46069,-0.22852 1.46754,-0.63578 2.23758,-0.90486 0.77002,-0.2691 2.13688,-0.94235 3.03755,-1.49655 0.90064,-0.55417 1.87121,-1.00769 2.15696,-1.00769 0.28575,0 0.63895,-0.11906 0.78444,-0.26458 0.14552,-0.14552 0.4363,-0.26458 0.64648,-0.26458 0.21019,0 0.44831,-0.19826 0.52917,-0.44081 l 0.14727,-0.44131 h -0.64699 c -0.3557,1.6e-4 -1.59895,0.44855 -2.76312,0.99632 -3.66474,1.72431 -8.63717,3.26478 -9.66814,2.99517 -1.69961,-0.44445 0.93012,-2.07675 5.9314,-3.68195 l 2.61329,-0.83871 1.21748,-1.08004 1.21804,-1.07952 -0.13076,-0.68006 c -0.0721,-0.37409 -0.4467,-0.73796 -0.83251,-0.80874 -0.38584,-0.0707 -0.94565,-0.34457 -1.24383,-0.60822 -0.29822,-0.26366 -0.85368,-0.41606 -1.23455,-0.33849 -0.38089,0.0776 -1.28831,0.22041 -2.01591,0.3173 l -1.32292,0.17621 v -0.33073 c 0,-0.18182 0.30811,-0.33021 0.68472,-0.33021 1.23732,0 1.06227,-0.5629 -0.20154,-0.64802 z m 4.2509,2.04225 0.89659,0.58704 c 1.23161,0.80696 1.13369,1.14134 -0.59272,2.0221 -1.98429,1.01233 -3.2594,1.35417 -3.80082,1.01958 -0.7026,-0.43423 -0.0626,-1.05937 1.08419,-1.05937 h 1.04386 l -0.2191,-0.87333 -0.21913,-0.87281 0.90384,-0.41186 z m -2.67012,0.40824 -0.45733,0.55139 c -0.25168,0.30324 -0.86673,0.55139 -1.36684,0.55139 h -0.90951 l 0.33539,-0.30747 c 0.18431,-0.16897 0.79938,-0.41663 1.36684,-0.55088 z m -16.17473,1.45573 c 0.60421,0 0.71729,0.90043 0.15658,1.24695 -0.59245,0.36616 -4.21317,0.78005 -4.21317,0.48163 0,-0.37711 1.33154,-0.76102 1.74768,-0.50385 0.18867,0.1166 0.66633,-0.1113 1.06146,-0.50643 0.39512,-0.39513 0.95641,-0.7183 1.24745,-0.7183 z m 18.38389,0.12092 c -0.12649,-0.0213 -0.21547,0.0567 -0.21547,0.21084 0,0.20548 0.1584,0.37362 0.35242,0.37362 0.19402,0 0.35295,-0.07 0.35295,-0.15554 0,-0.0856 -0.15893,-0.25371 -0.35295,-0.37362 -0.0485,-0.03 -0.0948,-0.0482 -0.13695,-0.0553 z m 13.31601,0.88677 -1.91464,0.69195 c -1.05325,0.38063 -2.55029,0.95265 -3.32639,1.27124 l -1.41078,0.57929 0.82475,-0.71055 c 0.45387,-0.39092 0.7597,-0.90731 0.67956,-1.14773 l -0.14573,-0.43719 -0.96015,0.96015 c -0.52805,0.52808 -1.07889,0.96015 -1.22423,0.96015 -0.4963,0 -8.87592,8.72747 -8.87592,9.24439 0,0.89381 0.45162,1.01549 1.2087,0.32556 1.25648,-1.14501 5.51531,-3.92585 6.01255,-3.92585 h 0.47387 l -0.14211,-0.61702 c -0.25509,-1.10799 2.76005,-3.77747 5.68132,-5.02966 l 1.68671,-0.72296 3.69023,0.41548 3.69072,0.41548 -0.65577,0.36897 c -0.36065,0.20304 -1.92561,0.41067 -3.47784,0.46147 -4.31829,0.14137 -5.97561,0.91771 -7.64138,3.57963 -0.40071,0.64034 -1.43158,1.98804 -2.29081,2.99465 -1.74347,2.04254 -3.75846,5.78762 -3.41376,6.34533 l 0.22429,0.36226 0.42219,-0.57723 c 0.23212,-0.31742 0.52284,-0.47605 0.64646,-0.35243 0.12361,0.12361 0.55636,-0.19586 0.9612,-0.71055 0.40487,-0.5147 0.94195,-0.93586 1.19372,-0.93586 0.25181,0 1.54665,-0.79412 2.87735,-1.76424 2.12955,-1.55252 3.98616,-2.50752 2.57193,-1.32291 -1.45465,1.21845 -4.38512,5.54794 -5.19348,7.67291 -1.04764,2.75405 -0.73543,2.83635 0.67231,0.17674 1.76546,-3.33542 2.7069,-4.68159 4.93509,-7.0559 0.91043,-0.97015 1.76241,-2.2203 1.8929,-2.77812 l 0.2372,-1.01389 1.42214,0.19069 c 1.7341,0.23259 1.70206,0.2015 2.11357,2.03294 l 0.33332,1.48518 -0.80565,0.56379 c -0.44329,0.31017 -1.3616,1.06205 -2.04071,1.6707 -0.67911,0.60867 -1.58964,1.21699 -2.02311,1.35185 -0.43349,0.13486 -1.33043,0.90984 -1.99369,1.72238 -1.4828,1.81644 -2.07862,3.76096 -2.2779,7.43417 l -0.0553,1.01751 -0.70538,-0.8971 c -0.75671,-0.96203 -0.92744,-2.19413 -0.35295,-2.5492 0.19402,-0.11991 0.35295,-0.5818 0.35295,-1.0263 0,-0.92453 1.65346,-3.34897 4.23333,-6.20737 0.29105,-0.32247 0.57838,-0.81136 0.63874,-1.08624 0.13829,-0.62984 1.45399,-1.66961 2.28565,-1.80661 0.96174,-0.1584 0.74676,-0.79453 -0.31266,-0.92552 l -0.93792,-0.11627 -1.38028,1.34772 c -1.85279,1.80922 -5.07952,6.71151 -5.55005,8.43204 -0.34235,1.2519 -0.88898,2.25011 -2.50476,4.57233 -0.29104,0.41828 -0.96774,1.42071 -1.50376,2.22777 -1.72789,2.60165 -2.06044,1.97667 -0.92967,-1.74614 1.08974,-3.58775 0.26511,-4.65999 -1.78646,-2.32338 -0.56293,0.64114 -1.94739,1.61534 -3.07629,2.16525 -1.12887,0.54988 -2.1318,1.11292 -2.22882,1.25108 -0.097,0.13814 -0.83757,0.66528 -1.6459,1.17151 -2.18956,1.37125 -2.6779,2.67379 -0.58084,1.54926 0.54568,-0.2926 1.78446,-0.95014 2.75281,-1.4609 0.96835,-0.51075 2.59535,-1.553 3.61579,-2.31613 l 1.85521,-1.38752 v 0.81908 c 0,0.45037 -0.38589,1.35816 -0.85783,2.01745 -0.47194,0.65928 -1.22066,1.88582 -1.66399,2.72593 -0.8545,1.6193 -2.06558,2.78234 -5.57432,5.35212 -1.19214,0.87313 -2.43793,1.87759 -2.76832,2.23243 -0.78219,0.84007 -2.0815,1.49354 -3.51091,1.76526 l -1.14671,0.21808 v -0.52039 c 0,-0.2862 0.14198,-0.52038 0.31525,-0.52038 0.17325,0 0.40611,-0.23812 0.51779,-0.52916 l 0.2031,-0.52917 h -0.4899 c -0.26954,0 -0.59016,0.45396 -0.7121,1.00924 l -0.2217,1.00976 -0.86455,0.39377 c -0.47554,0.21667 -0.86455,0.64523 -0.86455,0.95188 v 0.55759 l 0.44082,-0.22376 c 0.24252,-0.12287 0.1633,0.004 -0.17624,0.28267 -0.78481,0.64291 -0.7855,1.28632 -0.003,1.8588 0.33832,0.24739 0.69551,0.32664 0.79375,0.17622 0.33287,-0.50961 2.2856,-1.31143 4.76507,-1.95699 2.74888,-0.71569 5.17211,-1.96195 8.74729,-4.49739 1.31868,-0.93517 2.54915,-1.60626 2.7342,-1.49191 0.18505,0.11438 0.33642,-0.002 0.33642,-0.25838 0,-0.25627 1.0427,-1.22182 2.31717,-2.14612 l 2.31717,-1.68052 -0.12042,-0.60874 -0.12041,-0.60824 h -1.2764 -1.2764 l 0.66714,-0.93637 c 0.36701,-0.51501 0.66715,-1.10224 0.66715,-1.30483 0,-0.20257 0.39701,-0.79642 0.88209,-1.31982 0.48507,-0.5234 0.88162,-1.08744 0.88162,-1.25315 0,-0.64908 0.96639,-0.25467 1.32964,0.5426 0.33367,0.73226 2.16927,1.97869 2.91401,1.97869 0.13986,0 0.17373,-1.41035 0.0755,-3.13366 l -0.1788,-3.13314 1.28056,-1.89394 c 1.52103,-2.2492 2.80855,-3.67298 4.4705,-4.9444 0.67162,-0.5138 1.59099,-1.28557 2.04277,-1.71514 l 0.82116,-0.78135 -0.24342,-1.81229 c -0.29871,-2.22313 -0.48633,-2.46787 -2.31354,-3.01531 -0.79862,-0.23927 -1.65108,-0.51143 -1.89394,-0.60462 -0.24286,-0.0932 -1.19965,0.40929 -2.12648,1.11673 l -1.68519,1.28623 -0.31263,-0.47388 -0.31213,-0.47439 -0.38653,0.65681 c -0.21238,0.36145 -0.68545,0.95676 -1.05161,1.32291 -0.36616,0.36616 -0.66836,0.94356 -0.67127,1.28312 l -0.005,0.61754 -0.30797,-0.48628 -0.308,-0.48627 -0.48006,0.27853 c -0.49721,0.28821 -0.40042,0.16517 3.01014,-3.81061 2.57397,-3.00061 2.72049,-3.07342 6.65025,-3.30315 1.78551,-0.10438 3.48879,-0.3163 3.78478,-0.47129 0.29599,-0.15502 1.21298,-0.3936 2.03758,-0.5302 1.61227,-0.26707 1.81676,-0.54193 0.94361,-1.26659 l -0.55552,-0.46096 -2.79619,-0.0579 -2.79622,-0.0584 -1.34824,-0.60772 z m -20.10111,8.93227 c -0.0788,-0.003 -0.13333,0.10448 -0.13333,0.29042 0,0.25874 0.10578,0.36449 0.23514,0.23513 0.12935,-0.12935 0.12935,-0.3409 0,-0.47025 -0.0364,-0.0364 -0.071,-0.0543 -0.10181,-0.0553 z m -19.48049,0.46664 -0.0279,0.67644 c -0.0153,0.37189 0.0683,0.58025 0.1855,0.46302 0.11721,-0.11721 0.12983,-0.42179 0.0279,-0.67645 z m 28.33421,0.17673 c -0.0928,0.005 -0.16743,0.0822 -0.16743,0.17622 0,0.097 0.0792,0.17621 0.17621,0.17621 0.097,0 0.17622,-0.0792 0.17622,-0.17621 0,-0.097 -0.0792,-0.17622 -0.17622,-0.17622 -0.003,0 -0.006,-1.5e-4 -0.009,0 z m -8.06257,0.4072 c -0.0254,8e-4 -0.0466,0.008 -0.063,0.0248 -0.11248,0.11247 0.003,0.53771 0.25733,0.94464 0.45432,0.72753 1.00846,0.99467 0.9865,0.47542 -0.0185,-0.43611 -0.8813,-1.45334 -1.18081,-1.44487 z m 7.41559,0.0217 c -0.34568,-0.0154 -1.30829,0.59623 -1.74202,1.18287 -0.34917,0.47149 -0.50541,0.85732 -0.34883,0.85732 0.28353,0 2.21745,-1.67567 2.21745,-1.92133 0,-0.0784 -0.0468,-0.11531 -0.1266,-0.11886 z m -5.70302,2.39314 c -0.0928,0.005 -0.16743,0.0822 -0.16743,0.17621 0,0.097 0.0792,0.17674 0.17621,0.17674 0.097,0 0.17622,-0.0797 0.17622,-0.17674 0,-0.097 -0.0792,-0.17621 -0.17622,-0.17621 -0.003,0 -0.006,-1.6e-4 -0.009,0 z m -30.339248,0.35295 c -0.0929,0.005 -0.16742,0.0822 -0.16742,0.17621 0,0.097 0.0797,0.17622 0.17674,0.17622 0.097,0 0.17621,-0.0792 0.17621,-0.17622 0,-0.097 -0.0792,-0.17621 -0.17621,-0.17621 -0.003,0 -0.006,-1.6e-4 -0.009,0 z m -1.11672,2.78536 c -0.1166,0.009 -0.21834,0.0274 -0.29919,0.0574 -1.05709,0.39147 -7.04824,1.06256 -10.25726,1.14876 l -2.8634,0.077 -0.57618,0.47852 c -0.31708,0.26316 -0.57672,0.66935 -0.57672,0.90279 0,0.23347 -0.3797,0.78141 -0.84388,1.2175 l -0.84387,0.79272 -0.18809,-0.38758 -0.18812,-0.38757 0.0842,0.4284 c 0.0462,0.23561 -0.44185,1.30185 -1.08468,2.36936 -0.64283,1.06752 -1.16893,2.06631 -1.16893,2.2195 0,0.43802 -3.48329,5.51012 -3.87469,5.64204 -0.62267,0.20989 -1.32919,5.02813 -1.44386,9.84642 l -0.0635,2.67271 0.44855,0.83819 0.44855,0.83819 -0.40307,0.13489 c -0.70686,0.23561 -0.43828,0.98972 0.81079,2.27583 0.66789,0.6877 1.1176,1.3474 0.99944,1.46554 -0.11814,0.11816 0.0317,0.21446 0.33279,0.21446 0.63331,0 1.81123,1.62986 1.51929,2.10219 -0.10824,0.17516 -0.0355,0.41816 0.16174,0.54002 0.19719,0.12187 0.35864,0.0608 0.35864,-0.13591 0,-0.19663 0.38934,0.0323 0.86559,0.5085 0.47625,0.47625 1.12929,0.8661 1.45105,0.8661 0.32173,0 1.0832,0.4098 1.6919,0.91105 0.60871,0.50126 2.21782,1.56764 3.57601,2.36988 l 2.46962,1.45883 2.52232,0.13643 c 2.29444,0.12393 4.80237,-0.19543 6.65075,-0.84646 l 0.70435,-0.24805 -1.14617,0.98237 c -0.63061,0.54038 -1.14671,1.14975 -1.14671,1.35444 v 0.37207 l 0.42323,-0.42323 c 0.23283,-0.23284 0.64111,-0.42323 0.90691,-0.42323 0.26577,0 1.17504,-0.47625 2.02107,-1.05834 0.84603,-0.58208 1.63971,-1.05833 1.76321,-1.05833 0.27451,0 2.73572,-1.81488 3.0484,-2.24792 0.12382,-0.17148 0.40129,-0.20309 0.61701,-0.0698 0.21571,0.13332 0.591,0.11878 0.83354,-0.0326 0.24252,-0.15137 0.758112,-0.32258 1.146178,-0.38034 0.38806,-0.0577 0.86431,-0.30959 1.05833,-0.56018 1.19377,-1.54167 1.87632,-2.27405 2.7523,-2.95279 0.54356,-0.42119 0.98811,-0.85291 0.98547,-0.95911 -0.003,-0.22871 0.8541,-2.38126 1.59266,-3.99821 0.288,-0.6306 0.67498,-1.14618 0.85989,-1.14618 0.18492,0 0.33642,-0.38636 0.33642,-0.85834 v -0.85835 l 0.6599,-0.20929 0.66043,-0.20981 0.0506,-2.33784 c 0.0465,-2.14524 -0.49803,-4.34599 -1.07538,-4.34599 -0.1306,0 -0.41317,-0.81889 -0.62788,-1.82004 -1.16303,-5.42303 -6.13796,-12.53727 -9.810248,-14.02809 l -1.1467,-0.46508 v -0.63511 -0.63458 l -1.14618,-0.24857 c -0.6306,-0.13681 -1.22592,-0.34807 -1.32291,-0.46922 -0.34425,-0.42984 -1.89725,-0.84848 -2.71354,-0.786 z m -0.51573,0.78806 c 0.0956,-7.9e-4 0.19108,0.008 0.28112,0.0269 l 0.65474,0.1385 -0.99684,0.2036 -0.99682,0.20309 0.34208,-0.3421 c 0.1411,-0.14113 0.42881,-0.22763 0.71572,-0.22996 z m 1.3157,1.64228 0.45317,0.54622 c 0.24932,0.30041 0.66453,0.46482 0.92245,0.36587 0.69625,-0.26718 3.74121,1.21046 4.90098,2.37815 1.08836,1.09577 0.80605,1.43232 -0.32814,0.39119 -0.37615,-0.34526 -1.55699,-0.99802 -2.62413,-1.45056 l -1.94046,-0.82269 -2.49338,-0.17932 -2.49338,-0.17931 -1.08884,0.56327 c -0.59904,0.30977 -1.3713,0.84449 -1.71616,1.18856 -0.34486,0.34406 -0.79648,0.64715 -1.00357,0.67334 -0.20709,0.0261 -0.5648,0.0659 -0.79478,0.0884 -0.22997,0.0224 -0.61896,0.5963 -0.86452,1.27538 -0.24559,0.6791 -0.57661,1.23455 -0.73536,1.23455 -0.31049,0 -0.0286,-1.49569 0.49866,-2.64584 l 0.32351,-0.70538 -0.56224,0.70383 -0.56277,0.70384 -0.3333,-0.52762 -0.33385,-0.52762 -0.005,0.55242 c -0.003,0.30385 -0.57602,1.05809 -1.27381,1.67587 -1.29551,1.14697 -1.33702,1.40973 -0.11938,0.7581 l 0.68212,-0.36536 v 0.89452 c 0,0.49189 -0.13322,0.89452 -0.29609,0.89452 -0.16288,0 -0.4802,0.40395 -0.70538,0.89814 -0.50155,1.10079 -0.51393,1.32426 -0.0569,1.04179 l 0.35295,-0.21755 v 1.60093 c 0,0.88067 0.23598,2.19957 0.52401,2.93109 0.28805,0.73155 0.75218,2.36236 1.03145,3.62355 1.36914,6.18336 2.45131,8.44545 5.65703,11.8215 l 2.1363,2.24948 1.46915,0.49764 1.46968,0.49764 3.14349,-0.26045 3.14296,-0.26044 1.10225,-0.57 c 0.606318,-0.31353 1.293808,-0.56999 1.527548,-0.56999 h 0.42478 l -0.67127,0.74156 c -0.83206,0.9194 -5.114768,3.49178 -5.813608,3.49178 -0.28263,0 -1.10633,0.31731 -1.83036,0.70538 -0.72401,0.38806 -1.76131,0.7059 -2.30529,0.7059 -0.54398,0 -1.14014,0.15046 -1.32448,0.33435 v -5.3e-4 c -0.18433,0.18388 -1.3671,0.43938 -2.62826,0.56792 l -2.29288,0.23409 -0.65939,-0.7307 c -0.36264,-0.40172 -0.7597,-0.7101 -0.88212,-0.68523 -0.12243,0.0249 -0.81804,-0.0782 -1.54565,-0.22944 -2.04366,-0.42487 -1.56323,-0.84947 0.52917,-0.46768 1.01865,0.1859 2.4474,0.25862 3.175,0.16175 l 1.32292,-0.17622 v 0.35709 c 0,0.19632 0.23397,0.26734 0.51988,0.15761 l 0.51985,-0.19947 0.34055,0.60255 0.34004,0.60255 0.43045,-0.42582 0.42994,-0.42633 -0.40513,-0.48834 c -0.22293,-0.26861 -0.2922,-0.60127 -0.15401,-0.73949 0.56314,-0.56314 -0.97089,-0.89753 -4.13824,-0.90124 l -3.35121,-0.004 -2.78019,-0.6935 c -3.58696,-0.89471 -6.24348,-2.20872 -7.6073,-3.76204 -0.59804,-0.68111 -1.24418,-1.14143 -1.43555,-1.02319 -0.19135,0.11827 -0.3478,-0.0324 -0.3478,-0.33487 0,-0.30247 -0.143,-0.54983 -0.31781,-0.54983 -0.17484,0 -0.2939,-0.79378 -0.26459,-1.76372 0.0293,-0.96991 0.14272,-1.76351 0.2522,-1.76372 0.10952,-2.1e-4 0.1292,-1.83458 0.0434,-4.07623 l -0.15605,-4.07572 0.62786,-1.39217 c 0.71575,-1.5872 1.04759,-1.73288 1.3679,-0.59893 l 0.22426,0.79375 0.74414,-1.67535 c 0.40912,-0.92162 0.96149,-1.67586 1.22782,-1.67586 0.26631,0 0.48422,-0.13733 0.48422,-0.30489 0,-0.16756 0.4124,-0.71681 0.91622,-1.2206 0.50382,-0.50382 0.85696,-1.09242 0.78497,-1.30845 l -0.13073,-0.39325 -1.05008,0.91828 c -0.57732,0.50486 -1.23889,1.06954 -1.47019,1.25522 -0.23129,0.18566 -0.57618,0.61681 -0.76689,0.95757 -0.19071,0.34078 -0.44704,0.5193 -0.56946,0.39687 -0.25686,-0.25685 3.7402,-4.41443 5.22552,-5.43532 0.54933,-0.37756 1.3276,-0.96426 1.72961,-1.3038 0.40198,-0.33957 0.93503,-0.61702 1.18493,-0.61702 0.2499,0 0.56568,-0.18028 0.70178,-0.40049 l 0.24752,-0.40049 -1.63764,0.24546 -1.63761,0.24598 0.0109,-0.46302 c 0.0159,-0.66259 1.26008,-1.46778 3.69332,-2.39107 l 2.11667,-0.80305 4.77594,-0.17157 z m -3.29851,2.48408 2.72748,0.15968 2.72746,0.1602 1.6397,0.96118 c 0.90183,0.52853 2.64068,1.97127 3.863842,3.20653 l 2.223636,2.24585 0.97721,2.50218 0.97719,2.50165 0.30541,2.96055 0.30541,2.96054 -0.30023,2.12493 c -0.1652,1.16875 -0.41873,2.31634 -0.56327,2.55024 l -0.26252,0.42529 0.58703,-0.22531 0.58706,-0.22531 v 0.89401 c 0,1.31735 -0.53933,2.11077 -2.2221,3.26853 l -1.50585,1.0356 -2.457718,0.58187 c -1.3517,0.31991 -2.71012,0.63193 -3.01894,0.6935 -0.30883,0.0615 -1.31459,-0.1741 -2.23502,-0.52348 -0.92043,-0.34941 -1.89801,-0.54872 -2.17247,-0.44339 -0.27445,0.10531 -0.49919,0.0153 -0.49919,-0.19947 0,-0.21478 -0.3012,-0.39015 -0.66921,-0.39015 h -0.66868 l -1.91153,-2.09755 c -1.93402,-2.12227 -2.76323,-3.55734 -4.08863,-7.07502 l -0.73123,-1.93993 -0.2191,-2.99879 -0.2186,-2.99878 0.38087,-1.76372 c 0.20947,-0.97014 0.42984,-1.92265 0.4899,-2.11666 0.06,-0.19402 0.30382,-1.06733 0.54208,-1.94045 0.23825,-0.87313 0.53141,-1.90482 0.65111,-2.29289 l 0.21757,-0.70538 0.20359,0.81907 0.2031,0.81907 1.41025,-1.43092 c 1.30038,-1.31918 2.27817,-1.92341 1.76268,-1.08934 -0.11991,0.19402 -0.0591,0.35295 0.13489,0.35295 0.19402,0 0.45929,-0.17256 0.58962,-0.38344 z m 0.24389,0.94 c -0.18976,-0.0208 -0.32348,0.0497 -0.32348,0.19069 0,0.18793 0.23813,0.34158 0.52917,0.34158 0.29104,0 0.52917,-0.0622 0.52917,-0.1385 0,-0.0762 -0.23813,-0.23041 -0.52917,-0.34209 -0.0728,-0.0279 -0.14243,-0.0448 -0.20569,-0.0517 z m 42.496138,0.24185 c -0.0788,-0.003 -0.13386,0.10447 -0.13386,0.29042 0,0.25871 0.10629,0.36448 0.23564,0.23512 0.12936,-0.12935 0.12936,-0.3409 0,-0.47025 -0.0364,-0.0364 -0.071,-0.0543 -0.10178,-0.0553 z m -44.268628,0.64337 c -0.36201,0 -0.42561,0.83013 -0.0894,1.16633 0.12409,0.12409 0.35517,0.1455 0.51366,0.0475 0.35589,-0.21997 0.008,-1.21388 -0.42426,-1.21388 z m 4.62401,0.21135 -0.3235,0.33538 c -0.33253,0.3447 -0.49726,1.05886 -0.42373,1.83452 0.10067,1.06203 0.74723,0.3139 0.74723,-0.86455 z m -10.40712,0.14108 c 0.097,0 0.17622,0.0797 0.17622,0.17673 0,0.097 -0.0792,0.17622 -0.17622,0.17622 -0.097,0 -0.17621,-0.0792 -0.17621,-0.17622 0,-0.097 0.0792,-0.17673 0.17621,-0.17673 z m 18.697048,0.35295 c 0.097,0 0.17674,0.0792 0.17674,0.17622 0,0.097 -0.0797,0.17673 -0.17674,0.17673 -0.097,0 -0.17622,-0.0797 -0.17622,-0.17673 0,-0.097 0.0792,-0.17622 0.17622,-0.17622 z m -14.849208,0.76894 c -0.0844,-0.0127 -0.14367,0.0954 -0.14367,0.28939 0,0.25874 0.10578,0.36448 0.23514,0.23513 0.12935,-0.12936 0.12935,-0.3409 0,-0.47026 -0.0324,-0.0323 -0.0634,-0.05 -0.0915,-0.0543 z m 4.16975,0.0982 c -0.0734,0.005 -0.15412,0.0243 -0.24286,0.0584 -0.64812,0.24871 -0.69371,0.95686 -0.12869,2.00815 l 0.41444,0.7705 0.2894,-1.05834 c 0.31546,-1.15236 0.18169,-1.81389 -0.33229,-1.7787 z m 5.11133,0.36742 -0.1473,0.41548 -0.14726,0.41548 0.99115,0.14469 c 0.5451,0.0796 1.30847,0.0709 1.69654,-0.0186 1.55059,-0.35776 1.18985,-0.71694 -0.85834,-0.85421 z m -7.96232,0.6227 c -0.40955,0.0351 -0.82039,1.28239 -0.53123,1.75028 0.10544,0.17053 0.37574,0.24908 0.6005,0.17415 0.52448,-0.17478 0.53446,-1.74059 0.0124,-1.91461 -0.0271,-0.009 -0.0543,-0.0122 -0.0816,-0.01 z m 11.8613,0.28836 c -0.0505,0.009 -0.0978,0.0332 -0.13902,0.0744 -0.12787,0.1279 -0.0172,0.49174 0.24599,0.80873 l 0.47802,0.5762 0.14108,-0.4222 c 0.14811,-0.44434 -0.37275,-1.10074 -0.72607,-1.03715 z m -19.88251,0.0346 c -0.0843,-0.0127 -0.14417,0.0954 -0.14417,0.28939 0,0.25871 0.10628,0.36448 0.23563,0.23512 0.12936,-0.12935 0.12936,-0.34093 0,-0.47025 -0.0323,-0.0323 -0.0633,-0.05 -0.0915,-0.0543 z m 5.40226,0.11265 0.2377,0.67748 0.2372,0.67748 -0.43667,0.26975 -0.43667,0.26975 0.46615,0.87126 c 0.25643,0.47919 0.35922,1.04527 0.22788,1.25781 -0.13136,0.21251 -0.0771,0.38654 0.12092,0.38654 0.19799,0 0.53739,-0.65827 0.75395,-1.46245 l 0.39378,-1.46192 -0.78237,-0.74259 z m -7.352,0.88212 c -0.19402,0 -0.25429,0.15893 -0.13436,0.35295 0.11991,0.19404 0.0893,0.35772 -0.0677,0.3638 -0.5996,0.0236 -1.58001,1.01754 -1.35805,1.37666 0.31977,0.51742 0.89659,0.4735 0.89659,-0.0682 0,-0.24437 0.32372,-0.64645 0.71932,-0.89348 0.6966,-0.43503 0.6621,-1.13172 -0.0558,-1.13172 z m 20.34759,0.35295 c -0.0856,0 -0.25371,0.15839 -0.37362,0.35243 -0.11993,0.19402 -0.0499,0.35295 0.15555,0.35295 0.2055,0 0.37362,-0.15893 0.37362,-0.35295 0,-0.19404 -0.07,-0.35243 -0.15555,-0.35243 z m -2.75487,0.40049 c -0.2218,0.0534 -0.30721,0.39118 -0.12041,0.87798 l 0.23151,0.60307 0.41185,-0.41186 0.41188,-0.41135 -0.41754,-0.41754 c -0.20209,-0.20208 -0.38423,-0.27233 -0.51729,-0.2403 z m 5.02708,0.65784 c -0.19404,0 -0.35295,0.1654 -0.35295,0.36794 0,0.20254 -0.19828,0.34426 -0.4408,0.31471 -1.20012,-0.14624 -2.36167,0.63041 -1.79318,1.19889 0.34001,0.34002 0.43958,0.31151 1.75133,-0.49919 1.151332,-0.71155 1.556908,-1.38235 0.8356,-1.38235 z m -7.0926,0.0966 c -0.0962,-0.008 -0.20402,-0.008 -0.32298,5.3e-4 l -0.69866,0.0527 v 0.60152 c 0,0.33088 0.0967,0.8527 0.21447,1.15961 0.11777,0.30692 0.3651,0.55811 0.54984,0.55811 0.18473,0 0.23709,-0.16001 0.11625,-0.35553 -0.12083,-0.1955 0.0297,-0.60483 0.33489,-0.91003 0.58737,-0.58738 0.47977,-1.04881 -0.19381,-1.1069 z m 11.811688,0.35812 c 0.0578,-0.0578 0.28609,0.29234 0.50747,0.77825 0.22137,0.48588 0.26593,0.88367 0.0987,0.88367 -0.29292,0 -0.82082,-1.44726 -0.60616,-1.66192 z m -3.70107,0.3359 c -0.37704,0.006 -0.32277,0.37737 0.21447,0.971 0.79129,0.87437 0.88418,0.87841 0.88418,0.0398 0,-0.3673 -0.26098,-0.76804 -0.57981,-0.89039 -0.21971,-0.0843 -0.39317,-0.12248 -0.51884,-0.1204 z m -10.856178,0.97306 c -0.45309,0 -1.09722,1.70822 -0.86868,2.30374 0.11571,0.30154 0.36844,0.49541 0.56171,0.43098 0.41892,-0.13965 0.71023,-2.73472 0.30697,-2.73472 z m 37.055118,0 h 0.32451 l -0.35552,0.66405 c -0.19548,0.36523 -0.59849,0.75725 -0.89557,0.87126 l -0.54001,0.20722 0.57102,-0.87126 c 0.31401,-0.47924 0.71702,-0.87127 0.89557,-0.87127 z m -38.531508,0.17674 -0.79426,0.96997 -0.79428,0.96996 -0.86868,0.0114 -0.86868,0.0109 0.68729,0.51986 c 0.37787,0.28578 0.93337,0.4417 1.23457,0.34624 l 0.54776,-0.17364 0.0506,0.8785 c 0.028,0.48334 0.14235,1.11633 0.25374,1.40663 v 5.3e-4 c 0.4155,1.08284 0.57724,0.45121 0.56481,-2.20658 z m 5.9433,0.11472 -0.35295,0.35243 c -0.19402,0.19405 -0.23744,0.53957 -0.0966,0.7674 l 0.2558,0.41393 0.35295,-0.35244 c 0.19405,-0.19402 0.23744,-0.53956 0.0966,-0.76739 z m -20.27422,0.0863 c -0.22836,-0.0452 -0.30933,0.2525 -0.19222,0.86506 l 0.17002,0.88987 0.49091,-0.40773 0.49093,-0.40721 -0.4005,-0.48266 c -0.23217,-0.27975 -0.42211,-0.4302 -0.55914,-0.45733 z m 27.254168,0.84801 c -0.12229,0.0206 -0.19794,0.16929 -0.19794,0.45837 0,0.36716 0.10629,0.77343 0.23564,0.90279 0.12936,0.12935 0.45225,0.23512 0.71779,0.23512 h 0.48265 l -0.3669,-0.68574 c -0.33326,-0.62275 -0.66749,-0.94481 -0.87124,-0.91054 z m -1.432478,0.16691 c -0.19402,-0.0102 -0.40736,0.24584 -0.4744,0.56948 l -0.12195,0.58859 0.4744,-0.15813 c 0.549298,-0.18312 0.645578,-0.97229 0.12195,-0.99994 z m -26.81129,0.0186 c -0.097,0 -0.17621,0.0792 -0.17621,0.17622 0,0.097 0.0792,0.17673 0.17621,0.17673 0.097,0 0.17674,-0.0797 0.17674,-0.17673 0,-0.097 -0.0797,-0.17622 -0.17674,-0.17622 z m 13.40591,0 c -0.097,0 -0.17674,0.0792 -0.17674,0.17622 0,0.097 0.0797,0.17621 0.17674,0.17621 0.097,0 0.17621,-0.0792 0.17621,-0.17621 0,-0.097 -0.0792,-0.17622 -0.17621,-0.17622 z m 10.01075,0 c -0.36148,0 -0.41908,1.18392 -0.0744,1.52859 0.68365,0.68366 1.43692,-0.25986 0.81028,-1.01493 -0.2345,-0.28252 -0.56562,-0.51366 -0.73588,-0.51366 z m 9.006678,0.063 c 0.0281,0.004 0.0591,0.0219 0.0915,0.0543 0.12935,0.12936 0.12935,0.3409 0,0.47026 -0.12936,0.12935 -0.23564,0.0236 -0.23564,-0.23513 0,-0.19403 0.0598,-0.30207 0.14417,-0.28939 z m 24.72666,0.31316 -0.88159,0.70487 c -0.95993,0.76713 -4.39221,3.18557 -5.05603,3.56257 -0.22664,0.12869 -1.62414,0.96213 -3.10575,1.85208 -2.8537,1.7141 -3.12746,1.82445 -3.12746,1.26504 0,-0.19404 0.16819,-0.35243 0.37361,-0.35243 0.20546,0 1.0389,-0.61786 1.85209,-1.37253 2.80353,-2.60167 3.74886,-3.25455 5.00692,-3.4587 0.69419,-0.11263 1.45445,-0.46636 1.68932,-0.786 0.23489,-0.31964 1.06201,-0.76853 1.83814,-0.99787 z m -36.508878,0.36277 -1.31775,0.11782 -1.31776,0.11834 -0.41341,1.01182 c -0.22762,0.55637 -0.32099,1.16223 -0.20722,1.34669 0.11377,0.18447 0.27882,0.10525 0.36692,-0.17621 0.25924,-0.82842 1.23664,-1.58831 2.12233,-1.65003 l 0.82373,-0.0574 -0.2005,0.52296 -0.20051,0.52297 0.54674,0.20981 c 0.3008,0.11541 0.69593,0.0611 0.87799,-0.12093 l 0.33123,-0.33124 -0.7059,-0.75758 z m 14.980468,0.31936 c -0.0929,0.005 -0.16742,0.0822 -0.16742,0.17621 0,0.097 0.0797,0.17622 0.17674,0.17622 0.097,0 0.17621,-0.0792 0.17621,-0.17622 0,-0.097 -0.0792,-0.17621 -0.17621,-0.17621 -0.003,0 -0.006,-1.5e-4 -0.009,0 z m -2.81326,0.35243 c 0.097,0 0.17674,0.0797 0.17674,0.17674 0,0.097 -0.0797,0.17621 -0.17674,0.17621 -0.097,0 -0.17621,-0.0792 -0.17621,-0.17621 0,-0.097 0.0792,-0.17674 0.17621,-0.17674 z m -34.924988,1.41128 c -0.097,0 -0.17622,0.0797 -0.17622,0.17674 0,0.097 0.0792,0.17622 0.17622,0.17622 0.097,0 0.17674,-0.0792 0.17674,-0.17622 0,-0.097 -0.0797,-0.17674 -0.17674,-0.17674 z m 30.823948,0.0207 c -0.17325,0.0303 -0.3085,0.26416 -0.3085,0.68472 v 0.7059 h 0.52916 c 0.59376,0 0.61781,-0.0647 0.31523,-0.85318 -0.15124,-0.39412 -0.36264,-0.56771 -0.53589,-0.53744 z m -9.984918,0.0341 c -0.39222,0.0757 -0.17894,0.98159 0.416,1.32809 0.33957,0.19777 0.65175,0.3647 0.694,0.37052 0.2875,0.0402 -0.57967,-1.56835 -0.90381,-1.67638 -0.0814,-0.0271 -0.15015,-0.033 -0.20619,-0.0222 z m 4.15168,0.29818 c -0.62937,0 -0.5955,0.33743 0.11163,1.11879 0.83351,0.92102 1.23364,0.79635 0.76274,-0.23719 -0.22101,-0.48509 -0.61447,-0.8816 -0.87437,-0.8816 z m -10.45776,0.79013 c -0.0641,0.004 -0.1156,0.021 -0.14933,0.0548 -0.10806,0.10806 0.004,0.43808 0.24958,0.7338 0.49636,0.59807 1.41854,0.72641 1.41854,0.19741 0,-0.36815 -1.07035,-1.01166 -1.51879,-0.98599 z m 21.097948,0.2682 c 0.097,0 0.17621,0.0792 0.17621,0.17622 0,0.097 -0.0792,0.17622 -0.17621,0.17622 -0.097,0 -0.17674,-0.0792 -0.17674,-0.17622 0,-0.097 0.0797,-0.17622 0.17674,-0.17622 z m -12.640068,0.0243 c -0.21143,-0.0147 -0.23667,0.1338 -0.23667,0.50488 v 0.52917 h 0.70591 c 0.84111,0 0.93551,-0.54192 0.14727,-0.84439 -0.29568,-0.11347 -0.48964,-0.18084 -0.61651,-0.18966 z m 5.87976,0.70177 c -0.49475,0.0142 -0.90975,0.61435 -0.63408,1.0604 l 0.26974,0.43667 0.48784,-0.66663 0.487308,-0.66663 -0.395836,-0.13177 c -0.0722,-0.0241 -0.144302,-0.0341 -0.214972,-0.032 z m 27.259308,0.47025 c -0.0864,0.004 -0.21678,0.07 -0.38706,0.21136 -0.2888,0.23977 -0.42765,0.59374 -0.30851,0.78652 l 0.21654,0.35036 0.30334,-0.47852 c 0.33901,-0.53506 0.38037,-0.87845 0.17569,-0.86972 z m -20.499,0.21446 c 0.097,0 0.17621,0.0797 0.17621,0.17674 0,0.097 -0.0792,0.17621 -0.17621,0.17621 -0.097,0 -0.17674,-0.0792 -0.17674,-0.17621 0,-0.097 0.0797,-0.17674 0.17674,-0.17674 z m -15.981968,0.21446 c -0.15555,0.0219 -0.31872,0.29927 -0.45683,0.86403 -0.57496,2.35119 -1.37665,3.367 -1.37665,1.74408 0,-0.38804 -0.15893,-0.7059 -0.35295,-0.7059 -0.19402,0 -0.35243,0.17742 -0.35243,0.39377 v 0.39326 l -0.86971,-0.56999 c -1.6501,-1.08119 -1.82541,0.0288 -0.18862,1.19424 0.58208,0.41447 1.05833,1.06022 1.05833,1.43506 0,0.94892 0.63132,0.85687 0.76893,-0.11214 l 0.11266,-0.79375 0.61754,0.10387 0.61754,0.10335 v -0.58756 -0.58808 l 0.54932,0.4563 0.54983,0.45631 -0.10853,-1.91255 c -0.0704,-1.23748 -0.30919,-1.91081 -0.56843,-1.8743 z m 11.156418,0.80719 c -0.23331,-0.0316 -0.50181,0.16907 -0.58034,0.54622 l -0.11369,0.54673 0.56999,-0.21859 c 0.31335,-0.12025 0.51941,-0.36981 0.45787,-0.55449 -0.0661,-0.19822 -0.19384,-0.30092 -0.33383,-0.31987 z m -8.139028,0.39584 c -0.5311,-0.0122 -0.24744,1.38022 0.35242,1.72961 0.73488,0.42801 0.95467,0.45505 1.25418,0.15554 0.23842,-0.23841 -1.15618,-1.87483 -1.6066,-1.88515 z m -1.21388,0.23771 -0.40722,0.25166 c -0.224,0.13843 -0.40773,0.48055 -0.40773,0.76016 0,0.27959 0.23813,0.50798 0.52917,0.50798 0.29104,0 0.52917,-0.15838 0.52917,-0.35243 0,-0.19402 -0.16815,-0.35295 -0.37362,-0.35295 -0.20548,0 -0.25988,-0.18322 -0.12145,-0.40721 z m 18.755438,0.10904 c -0.0929,0.005 -0.16743,0.0822 -0.16743,0.17621 0,0.097 0.0792,0.17622 0.17621,0.17622 0.097,0 0.17674,-0.0792 0.17674,-0.17622 0,-0.097 -0.0797,-0.17621 -0.17674,-0.17621 -0.003,0 -0.006,-1.6e-4 -0.009,0 z m -14.535018,0.37155 c -0.13412,-0.008 -0.25043,0.0179 -0.32298,0.0904 -0.10808,0.10808 -0.0923,0.36564 0.0356,0.57257 0.29774,0.48181 1.24955,0.49122 1.24955,0.0124 0,-0.31674 -0.55994,-0.65063 -0.96221,-0.67541 z m 20.893798,0.33383 c 0.097,0 0.17674,0.0792 0.17674,0.17622 0,0.097 -0.0797,0.17673 -0.17674,0.17673 -0.097,0 -0.17621,-0.0797 -0.17621,-0.17673 0,-0.097 0.0792,-0.17622 0.17621,-0.17622 z m -17.937928,0.72399 c -0.52594,-0.0399 -0.68204,0.27221 -0.44027,0.90227 l 0.22995,0.59893 0.49559,-0.6718 0.495568,-0.67127 -0.532788,-0.11938 c -0.0901,-0.0202 -0.17291,-0.0331 -0.24805,-0.0388 z m 1.499658,0.68729 c -0.36695,0 -0.43461,1.53012 -0.0832,1.88154 0.12933,0.12933 0.43868,0.23513 0.68731,0.23513 h 0.45164 l -0.36896,-1.05833 c -0.20294,-0.58209 -0.51173,-1.05834 -0.68678,-1.05834 z m -7.230058,0.416 c -0.0843,-0.0127 -0.14417,0.0954 -0.14417,0.28938 0,0.25871 0.10628,0.36449 0.23564,0.23513 0.12935,-0.12935 0.12935,-0.3409 0,-0.47025 -0.0323,-0.0323 -0.0633,-0.05 -0.0915,-0.0543 z m 5.90921,0.81855 -0.0279,0.67593 c -0.0153,0.37187 0.0678,0.58023 0.18502,0.46302 0.117242,-0.11724 0.129782,-0.42127 0.0279,-0.67593 z m 10.859288,0.17622 c 0.20547,0 0.37362,0.15893 0.37362,0.35295 0,0.19402 -0.07,0.35295 -0.15555,0.35295 -0.0856,0 -0.25368,-0.15893 -0.37362,-0.35295 -0.11991,-0.19402 -0.0499,-0.35295 0.15555,-0.35295 z m -13.669958,0.31058 -0.21138,0.34209 c -0.11618,0.18815 -0.11427,0.59475 0.004,0.90331 0.1184,0.30853 0.43614,0.56069 0.70641,0.56069 0.61291,0 0.60852,-0.345 -0.0151,-1.16737 z m 11.573958,0.25424 0.0228,1.21698 0.0222,1.21698 0.34107,-0.85369 0.34108,-0.85318 -0.3633,-0.3638 z m -13.621388,0.5116 c -0.59314,-0.0564 -1.19528,0.34057 -1.19528,0.85318 0,0.71019 0.51012,0.68515 1.25677,-0.0615 l 0.60203,-0.60151 -0.41185,-0.13746 c -0.0826,-0.0275 -0.16695,-0.0447 -0.25167,-0.0527 z m -3.66437,0.70797 c -0.0853,0 -0.17045,0.0325 -0.23514,0.0971 -0.12935,0.12935 -0.0236,0.23512 0.23514,0.23512 0.25873,0 0.36444,-0.10577 0.23511,-0.23512 -0.0647,-0.0647 -0.14986,-0.0971 -0.23511,-0.0971 z m 13.229158,0.33228 c -0.097,0 -0.17674,0.0797 -0.17674,0.17673 0,0.097 0.0797,0.17621 0.17674,0.17621 0.097,0 0.17622,-0.0792 0.17622,-0.17621 0,-0.097 -0.0792,-0.17673 -0.17622,-0.17673 z m 3.175,0 c -0.097,0 -0.17674,0.0797 -0.17674,0.17673 0,0.097 0.0797,0.17621 0.17674,0.17621 0.097,0 0.17622,-0.0792 0.17622,-0.17621 0,-0.097 -0.0792,-0.17673 -0.17622,-0.17673 z m -6.80889,0.28215 -0.740506,0.74104 c -0.407462,0.40746 -0.741052,0.82023 -0.741052,0.91725 0,0.35537 0.942048,0.16247 1.608158,-0.32917 l 0.68472,-0.5054 -0.40566,-0.41186 z m -11.690238,0.0631 c -0.074,-0.007 -0.15465,0.0229 -0.23357,0.1018 -0.11645,0.11644 -0.0874,0.413 0.0646,0.65887 l 0.27649,0.447 0.1483,-0.44545 c 0.1279,-0.38368 -0.0338,-0.74083 -0.2558,-0.76222 z m 7.94991,0.0207 c -0.26795,-0.0301 -0.57701,0.0763 -0.74002,0.34003 -0.11991,0.19405 -0.12395,0.50433 -0.009,0.68988 0.2902,0.46953 1.24437,0.0468 1.24437,-0.55139 0,-0.28203 -0.22715,-0.44843 -0.49507,-0.47852 z m 6.635768,0.40307 c -0.0844,-0.0127 -0.14367,0.0954 -0.14367,0.28939 0,0.25874 0.10578,0.36448 0.23514,0.23513 0.12935,-0.12935 0.12935,-0.3409 0,-0.47025 -0.0324,-0.0323 -0.0634,-0.05 -0.0915,-0.0543 z m -8.919868,0.64234 c -0.17028,0 -0.50726,0.23813 -0.7488,0.52917 l -0.43926,0.52916 h 0.7488 0.7488 v -0.52916 c 0,-0.29104 -0.13928,-0.52917 -0.30954,-0.52917 z m -2.80138,0.0196 c -0.10168,-0.0231 -0.2001,-10e-4 -0.28112,0.0796 -0.0936,0.0936 -0.0662,0.58478 0.061,1.09141 0.2544,1.01375 0.86143,0.92054 0.86143,-0.13229 0,-0.49566 -0.33626,-0.96947 -0.6413,-1.0387 z m 5.22242,1.50172 -0.34726,0.41806 c -0.19092,0.23008 -0.27702,0.48884 -0.19122,0.57464 0.31642,0.31642 3.00715,0.11964 3.02514,-0.22117 0.01,-0.19405 -0.54512,-0.44704 -1.23404,-0.56224 z m -7.22696,4.12326 c -0.31395,0 -0.47236,0.15891 -0.35242,0.35295 0.11991,0.19402 0.27831,0.35243 0.35242,0.35243 0.0741,0 0.23305,-0.15841 0.35296,-0.35243 0.11993,-0.19404 -0.039,-0.35295 -0.35296,-0.35295 z m 12.876738,1.07849 c -0.0852,0 -0.17044,0.0325 -0.23513,0.0971 -0.12936,0.12935 -0.0236,0.23513 0.23513,0.23513 0.25874,0 0.36444,-0.10578 0.23511,-0.23513 -0.0647,-0.0647 -0.14986,-0.0971 -0.23511,-0.0971 z m -5.521108,2.86442 c -0.0733,0.007 -0.12351,0.11258 -0.12351,0.29043 0,0.25873 0.10578,0.36448 0.23514,0.23512 0.12935,-0.12935 0.12935,-0.34093 0,-0.47025 -0.0404,-0.0404 -0.0783,-0.0583 -0.11163,-0.0553 z" />
  </g>
</svg>
