<?xml version="1.0" encoding="UTF-8" standalone="no"?>
<!-- Created with Inkscape (http://www.inkscape.org/) -->

<svg
   width="38.47477mm"
   height="70.602982mm"
   viewBox="0 0 38.47477 70.602982"
   version="1.1"
   id="svg1"
   xmlns="http://www.w3.org/2000/svg"
   xmlns:svg="http://www.w3.org/2000/svg">
  <defs
     id="defs1" />
  <g
     id="layer1"
     transform="translate(123.90873,643.53563)">
    <path
       style="fill:#000000;stroke-width:0.264583"
       d="m -102.35721,-573.23343 c -0.17166,-0.16541 -1.99125,-0.35351 -4.04352,-0.41796 l -3.73139,-0.11716 -1.4645,-0.97014 c -0.80549,-0.53356 -1.78879,-0.97012 -2.18514,-0.97012 h -0.72059 l -1.84459,-1.8796 c -2.66772,-2.71828 -2.70635,-2.78353 -3.9714,-6.70867 l -1.15467,-3.58257 -0.0488,0.88194 -0.0488,0.88193 -0.47368,-1.08786 c -0.26051,-0.59833 -0.59143,-2.2652 -0.73536,-3.70416 -0.14391,-1.43897 -0.45683,-3.83821 -0.69538,-5.33165 l -0.4337,-2.71534 0.33401,-0.33398 c 0.1837,-0.1837 0.39216,-1.40086 0.46323,-2.70476 0.14602,-2.67917 0.46104,-3.86752 1.97541,-7.45183 l 1.06288,-2.51568 1.88706,-1.62917 c 1.03791,-0.89607 1.98533,-1.93869 2.10537,-2.31696 0.12007,-0.3783 0.52657,-0.78563 0.90334,-0.90522 l 0.68503,-0.21741 -1.3716,-2.00549 c -1.65348,-2.41767 -3.0417,-3.77079 -4.39195,-4.281 l -1.006,-0.38012 0.19244,-0.50147 c 0.10583,-0.27581 0.0145,-0.56079 -0.20299,-0.63328 -1.15972,-0.38657 2.49343,-2.38322 4.36046,-2.38322 1.13686,0 1.22338,-0.22199 0.4731,-1.21396 -0.28487,-0.37663 -0.51794,-0.95385 -0.51794,-1.28272 v -0.59793 l -1.14655,-0.56714 c -0.63058,-0.31193 -1.61414,-0.98412 -2.1857,-1.49376 l -1.03915,-0.92662 0.68639,-0.51469 0.68638,-0.5147 1.79088,0.14013 1.79089,0.14012 -0.15632,-0.8177 -0.15631,-0.8177 h 0.40147 c 0.2208,0 0.57225,0.37484 0.781,0.83297 0.29758,0.65312 2.26338,1.98925 2.92669,1.98925 0.0673,0 0.56049,-1.85435 1.09593,-4.12078 1.28987,-5.4599 2.82019,-7.96259 3.52023,-5.757 0.12316,0.38806 0.35018,0.70556 0.50451,0.70556 0.50937,0 2.49147,4.46846 2.71925,6.13038 0.249,1.81668 0.49374,1.96556 1.48394,0.9027 0.72012,-0.77295 3.2298,-2.2391 3.2298,-1.88684 0,0.1148 -0.35719,0.5299 -0.79375,0.92244 l -0.79375,0.71373 0.88193,-0.58066 c 0.48506,-0.31937 1.554749,-0.8995 2.377074,-1.28919 l 1.495107,-0.70854 0.663205,0.35494 0.663229,0.35495 -0.17293,0.9046 c -0.09512,0.49752 -0.43262,1.09846 -0.749988,1.3354 -0.59555,0.4446 -3.225879,3.57632 -3.741447,4.45463 l -0.29117,0.49604 1.061743,-0.21235 1.06172,-0.21235 0.371555,0.37154 c 0.204337,0.20435 0.901224,0.47988 1.548606,0.61228 l 1.177101,0.24074 0.11618,0.60334 0.11621,0.60333 h -0.69236 c -0.380793,0 -1.067122,0.31222 -1.525168,0.69382 -0.946627,0.78862 -0.779728,0.88082 0.626612,0.34613 l 0.976236,-0.37115 -0.647015,0.71493 c -0.355838,0.39321 -0.983244,0.81918 -1.394222,0.9466 -1.357841,0.42101 -2.693538,1.59016 -3.401038,2.97699 -0.78208,1.53302 -0.86053,1.89059 -0.3448,1.57185 0.19404,-0.11992 0.35279,-0.0646 0.35279,0.12285 0,0.41216 6.763095,3.93408 7.554545,3.93408 0.74957,0 0.71686,0.62349 -0.0403,0.76933 l -0.59968,0.11549 0.99682,0.65312 0.99682,0.65315 0.22021,-0.33152 0.22021,-0.33152 1.08755,0.28911 1.08751,0.28911 0.48448,0.97536 0.48448,0.97533 0.12711,-0.97015 c 0.21653,-1.65242 0.78581,-1.06719 0.78581,0.8078 v 1.77795 l 0.71636,1.40414 c 1.71217,3.35619 2.05409,12.54588 0.66537,17.88401 -1.63401,6.28103 -2.69618,9.15863 -3.82971,10.37532 -0.39986,0.42921 -0.72702,1.16557 -0.72702,1.63639 v 0.85604 l -1.30334,1.19382 c -0.71683,0.65659 -1.4709,1.15544 -1.67568,1.10853 -0.20479,-0.0469 -0.92798,0.33483 -1.60708,0.84828 -0.679108,0.51345 -2.095238,1.18644 -3.146983,1.49553 -1.051745,0.30911 -2.260652,0.79028 -2.686502,1.06929 l -0.77422,0.50728 z m -0.4885,-1.22973 c 0,-0.16017 -3.0321,-4.71622 -3.39632,-5.10331 -0.0794,-0.0844 -0.74351,0.43154 -1.47571,1.14655 -0.73224,0.71498 -1.4437,1.29998 -1.58105,1.29998 -0.56631,0 -0.17666,-0.71713 0.98502,-1.81285 0.6791,-0.64055 1.23473,-1.31993 1.23473,-1.50974 0,-0.42563 -3.20971,-5.27547 -3.59899,-5.43806 -0.15487,-0.0647 -0.28157,-0.33311 -0.28157,-0.59653 0,-1.46928 -1.87799,-0.34824 -4.51123,2.69291 l -1.15985,1.3395 0.45429,0.81031 c 0.24987,0.44567 0.61304,0.92692 0.80708,1.06948 l 0.35277,0.25918 -0.44098,0.005 c -1.87539,0.023 3.86421,5.23008 6.23096,5.65288 1.60282,0.28631 6.38085,0.42434 6.38085,0.18431 z m 4.049212,-0.9203 c 2.344606,-0.87722 4.064683,-2.23845 4.064683,-3.21669 v -0.71195 l -0.5475,0.21011 -0.547473,0.21008 0.231673,-0.37486 c 0.12742,-0.20617 -0.0839,-0.72028 -0.469586,-1.14247 -0.385683,-0.4222 -0.941705,-1.24426 -1.235578,-1.82682 -0.293873,-0.58253 -0.868071,-1.3612 -1.275979,-1.73035 -0.407909,-0.36917 -0.74168,-0.88474 -0.74168,-1.1457 0,-0.7403 -0.456354,-0.56935 -1.793872,0.67205 -0.67943,0.63058 -1.88132,1.72172 -2.67089,2.42477 -2.02174,1.80015 -2.02758,1.83261 -0.65278,3.63368 0.68035,0.8913 1.237,1.70839 1.237,1.81573 0,1.68455 1.78118,2.163 4.401982,1.18242 z m 1.242457,-5.08785 c 0,-0.097 0.07937,-0.1764 0.176398,-0.1764 0.097,0 0.176371,0.0794 0.176371,0.1764 0,0.097 -0.07938,0.17637 -0.176371,0.17637 -0.09702,0 -0.176398,-0.0794 -0.176398,-0.17637 z m -16.227769,3.54859 c 0,-0.0856 -0.18328,-0.26885 -0.4073,-0.4073 l -0.40727,-0.2517 0.2517,0.40727 c 0.25135,0.40667 0.56287,0.546 0.56287,0.25173 z m 21.181115,-3.03975 c 0.42243,-0.59325 0.67606,-1.17065 0.56361,-1.28309 -0.11244,-0.11245 0.10838,-0.64376 0.4907,-1.18068 0.73353,-1.03018 0.89411,-1.93741 0.39722,-2.24451 -0.16386,-0.10126 -0.80653,-1.21725 -1.42814,-2.47997 -1.60576,-3.2617 -1.61145,-3.26205 -4.937233,-0.29472 l -1.548025,1.38118 1.913202,2.62006 c 1.052275,1.44105 2.189086,3.05665 2.526296,3.59024 0.78023,1.23468 1.0773,1.21872 2.02237,-0.10851 z m -10.438395,-3.81756 2.63766,-2.25036 -0.42839,-0.76764 c -0.23561,-0.42217 -1.37411,-1.97718 -2.53,-3.45554 l -2.10161,-2.6879 -0.64127,0.34319 c -0.35272,0.18875 -1.6051,1.24913 -2.78307,2.35635 l -2.14181,2.01314 2.23886,3.42506 c 2.59974,3.97713 2.34174,3.9312 5.74963,1.0237 z m -11.84354,-1.98708 2.59019,-2.64993 -1.35478,-1.67159 c -0.74512,-0.91937 -1.55646,-1.88137 -1.80303,-2.13775 -0.24653,-0.25641 -0.4486,-0.57391 -0.44907,-0.70557 0,-0.13165 -0.43866,-0.75162 -0.9738,-1.37771 l -0.97298,-1.13831 -1.23105,1.81297 c -0.67707,0.99714 -1.44077,2.02528 -1.69709,2.28473 l -0.46604,0.47173 0.55885,1.92246 c 0.3074,1.05736 0.71554,2.01928 0.90702,2.13762 0.19148,0.11835 0.34875,0.48361 0.34946,0.81169 0.003,0.69813 1.27244,2.88962 1.67577,2.88962 0.15197,0 1.44192,-1.19247 2.86655,-2.64996 z m 25.489665,-0.37298 c 0.33374,-0.5687 0.61841,-1.41838 0.63259,-1.88817 0.0143,-0.4698 0.24119,-1.1048 0.50448,-1.41113 1.09762,-1.27707 1.54525,-12.52112 0.54107,-13.59207 -0.17282,-0.18434 -0.31422,-0.6209 -0.31422,-0.97015 0,-0.34925 -0.24482,-0.635 -0.54406,-0.635 -0.50662,0 -0.85669,0.22069 -2.072,1.30612 -0.26123,0.23331 -0.57322,0.32591 -0.69332,0.20579 -0.12012,-0.12012 -0.21839,0.0368 -0.21839,0.34875 0,0.31194 0.14902,0.65926 0.33116,0.77181 0.54591,0.3374 2.58416,4.0948 2.34889,4.33007 -0.28739,0.28739 -1.2046,-0.92435 -1.489,-1.96713 -0.27016,-0.9906 -1.62885,-2.52595 -2.2353,-2.52595 -0.49967,0 -6.364078,3.83554 -6.364078,4.16232 0,0.28104 2.788206,4.2754 3.605078,5.16462 0.34552,0.37613 0.62825,0.89206 0.62825,1.14651 0,0.72499 0.42016,0.57195 3.01678,-1.09873 1.33472,-0.85879 2.55913,-1.47958 2.72095,-1.37956 0.2553,0.15777 -3.61238,3.09935 -4.46201,3.39359 -0.17148,0.0594 0.34446,1.26606 1.14652,2.68148 0.80208,1.41541 1.4583,2.73126 1.4583,2.92407 0,0.64055 0.84283,0.0815 1.45831,-0.96724 z m -7.95568,-2.53331 c 2.73706,-2.02581 2.72804,-1.88502 0.323771,-5.05857 -1.067144,-1.40858 -1.940269,-2.67515 -1.940269,-2.81455 0,-0.13941 -0.249899,-0.34939 -0.555308,-0.46657 l -0.555329,-0.2131 -1.47315,1.01997 c -2.79561,1.93562 -3.77045,3.20464 -2.78302,3.62286 0.15269,0.0647 0.82738,0.82804 1.49931,1.69638 0.67191,0.86834 1.42113,1.79353 1.66495,2.05597 0.24378,0.26247 0.60655,0.78232 0.80616,1.15525 0.482146,0.90091 0.419916,0.92152 3.012885,-0.99764 z m -1.263729,-5.90904 c 0,-0.097 0.07937,-0.17637 0.176398,-0.17637 0.097,0 0.176371,0.0794 0.176371,0.17637 0,0.097 -0.07937,0.1764 -0.176371,0.1764 -0.09702,0 -0.176398,-0.0794 -0.176398,-0.1764 z m -10.004106,3.11869 2.62501,-2.34939 -1.01698,-1.09019 c -0.55933,-0.59962 -1.39335,-1.64584 -1.85335,-2.32495 -0.46003,-0.67908 -1.42957,-1.84697 -2.15456,-2.59532 l -1.31818,-1.36059 -2.31113,2.31113 c -2.86581,2.86581 -3.033,1.91995 1.33535,7.55383 2.06478,2.66295 1.53887,2.67914 4.69384,-0.14452 z m -4.45979,-0.29646 c 0,-0.097 0.0794,-0.1764 0.1764,-0.1764 0.097,0 0.17639,0.0794 0.17639,0.1764 0,0.097 -0.0794,0.1764 -0.17639,0.1764 -0.097,0 -0.1764,-0.0794 -0.1764,-0.1764 z m -6.14619,-3.26245 0.81851,-1.3726 -0.68236,-1.12207 c -0.79462,-1.30665 -1.45457,-1.46635 -1.35678,-0.3283 0.0375,0.43656 0.0435,1.15094 0.0132,1.5875 l -0.0549,0.79375 h -0.52917 c -0.29104,0 -0.52916,0.24749 -0.52916,0.54999 0,0.3025 -0.16513,0.44794 -0.36693,0.32322 l -0.36692,-0.22678 0.22,0.9997 c 0.12099,0.54983 0.29168,1.22566 0.37931,1.50183 l 0.15933,0.50215 0.73856,-0.91789 c 0.40621,-0.50482 1.10691,-1.53553 1.5571,-2.2905 z m -1.96768,0.26385 c 0,-0.25871 0.10583,-0.36455 0.23519,-0.23519 0.12932,0.12935 0.12932,0.34102 0,0.47035 -0.12936,0.12935 -0.23519,0.0236 -0.23519,-0.23516 z m 17.29576,-0.67461 c 0.67379,-0.56507 1.70132,-1.43013 2.2834,-1.92233 l 1.05834,-0.89493 -0.60098,-1.0763 c -0.68236,-1.22211 -0.35324,-1.42512 0.60098,-0.37073 0.867672,0.95877 1.324184,0.89466 3.140733,-0.44098 0.857647,-0.63058 2.208402,-1.53562 3.001672,-2.01121 0.79327,-0.47556 1.4423,-0.99311 1.4423,-1.15014 0,-0.34052 -2.30027,-3.65392 -3.227973,-4.64971 -0.359357,-0.38573 -1.008962,-1.22023 -1.44354,-1.85446 l -0.790152,-1.15316 -0.854948,0.21457 -0.854952,0.21458 0.246648,-0.64275 0.246645,-0.64275 -1.318573,-1.35033 -1.31856,-1.35033 h 0.53155 c 0.29237,0 1.05707,0.54219 1.69937,1.20486 l 1.16779,1.20486 1.425892,-0.50308 c 1.741353,-0.61439 2.077613,-0.41703 0.72906,0.42783 -0.550413,0.34484 -1.052143,0.66027 -1.114955,0.70096 -0.24839,0.16092 1.040686,2.15461 2.242238,3.4679 0.69847,0.76343 1.67143,2.07311 2.16212,2.91041 1.05878,1.80666 1.30763,1.84362 3.1736,0.47136 0.78602,-0.57804 1.53167,-0.94845 1.65701,-0.82315 0.37316,0.37317 0.25884,-1.10669 -0.18357,-2.37572 -1.04609,-3.00085 -5.25812,-7.87003 -4.79206,-5.53971 l 0.0882,0.44098 -0.88193,-0.12269 c -1.438727,-0.20015 -1.35025,-1.10725 0.10901,-1.11744 l 0.77292,-0.005 -0.52916,-0.34197 c -0.69501,-0.44916 -1.51231,-0.44916 -1.23471,0 0.11991,0.19402 0.0499,0.35277 -0.15557,0.35277 -0.20548,0 -0.373594,-0.15875 -0.373594,-0.35277 0,-0.19405 -0.180949,-0.3528 -0.402087,-0.3528 -0.221139,0 -0.581396,-0.24521 -0.800577,-0.54493 -0.219154,-0.29975 -0.752633,-0.57166 -1.185465,-0.60426 -0.432859,-0.0326 -0.877041,-0.343 -0.987108,-0.68977 l -0.200104,-0.63047 -1.12276,-0.0559 c -1.65015,-0.0822 -2.47798,0.0353 -2.84655,0.40386 l -0.32768,0.32768 0.45159,0.54412 0.45156,0.54411 h -0.40076 c -0.2204,0 -0.67786,-0.17306 -1.01653,-0.38457 l -0.61579,-0.38457 -2.47211,1.53109 c -1.35967,0.84212 -3.70686,2.4633 -5.21599,3.60265 -1.50914,1.13935 -2.82314,1.99226 -2.92005,1.89537 -0.17479,-0.17479 1.56268,-1.93371 2.78447,-2.81882 l 0.63656,-0.46114 -0.22288,-0.58079 c -0.12256,-0.31943 -0.48699,-0.68215 -0.80986,-0.80603 l -0.58698,-0.22526 -0.58881,0.72715 c -0.32385,0.39992 -0.85815,0.72713 -1.18737,0.72713 h -0.59854 l 0.18751,0.48868 c 0.23911,0.62307 -0.69773,1.98078 -1.36676,1.98078 -0.73392,0 -0.626,0.62661 0.19641,1.1402 0.38803,0.24235 0.70553,0.57795 0.70553,0.7458 0,0.16786 0.35719,0.75478 0.79375,1.30427 0.43657,0.54948 1.32824,1.72333 1.98149,2.60855 1.5031,2.03687 1.56983,2.0292 4.16582,-0.47971 l 2.16172,-2.08926 -1.72916,-2.14588 c -1.87073,-2.32153 -1.95947,-2.4951 -1.27606,-2.4951 0.24921,0 0.71144,0.43656 1.0272,0.97015 0.31575,0.53359 1.30249,1.70828 2.19273,2.61046 0.89024,0.90217 1.61864,1.79554 1.61864,1.98527 0,0.18974 0.25421,0.55597 0.56497,0.81384 0.8075,0.67018 3.04191,4.24211 2.80302,4.48098 -0.11015,0.11017 -0.39709,-0.0627 -0.63762,-0.38415 -3.71808,-4.9689 -3.61119,-4.92495 -6.44745,-2.65213 -2.68033,2.14789 -2.60175,1.86812 -1.02266,3.64088 0.69133,0.7761 1.9858,2.40329 2.8766,3.61598 1.88203,2.56204 1.70754,2.49946 3.2839,1.17747 z m -1.90815,-12.22013 c -0.11554,-0.30112 -0.0767,-0.465 0.0865,-0.3642 0.38843,0.24009 2.53148,-0.86177 3.58486,-1.84314 0.93488,-0.87098 1.40428,-0.98247 1.39772,-0.33197 -0.0119,1.18047 -4.69104,3.52444 -5.06905,2.53931 z m -6.92095,-1.74556 c 0,-0.097 0.0794,-0.1764 0.17638,-0.1764 0.097,0 0.17639,0.0794 0.17639,0.1764 0,0.097 -0.0794,0.1764 -0.17639,0.1764 -0.097,0 -0.17638,-0.0794 -0.17638,-0.1764 z m -2.27798,9.87597 c 2.65816,-2.59352 2.6525,-2.41747 0.17314,-5.38469 -2.13307,-2.55278 -2.15101,-2.5595 -2.81056,-1.0517 -0.27583,0.63059 -0.80761,1.36573 -1.18171,1.63362 -1.86018,1.33202 -1.88798,3.81177 -0.0651,5.8016 1.4767,1.61189 1.11244,1.70558 3.88422,-0.99883 z m -6.22927,-5.11347 -0.0298,-0.88193 -0.28244,0.88193 c -0.15534,0.48509 -0.29583,1.12009 -0.31221,1.41113 l -0.0298,0.52917 0.34197,-0.52917 c 0.18809,-0.29104 0.32859,-0.92604 0.31221,-1.41113 z m 1.9893,-0.37936 c 0.12779,-0.40267 0.12985,-0.83465 0.004,-0.95993 -0.2644,-0.26438 -0.88165,0.60372 -0.88959,1.25111 -0.009,0.71495 0.63262,0.50395 0.88498,-0.29118 z m -1.59594,-0.85537 c 0,-0.097 -0.0794,-0.17637 -0.1764,-0.17637 -0.097,0 -0.17637,0.0794 -0.17637,0.17637 0,0.097 0.0794,0.1764 0.17637,0.1764 0.097,0 0.1764,-0.0794 0.1764,-0.1764 z m 3.41024,-2.09145 c -0.49911,-1.6214 -1.80308,-0.97131 -1.48225,0.73895 l 0.24881,1.32623 0.66712,-0.86882 c 0.36693,-0.47783 0.62177,-1.01621 0.56632,-1.19636 z m 28.692525,-1.78909 c 0,-0.097 -0.0794,-0.1764 -0.17637,-0.1764 -0.097,0 -0.1764,0.0794 -0.1764,0.1764 0,0.097 0.0794,0.17637 0.1764,0.17637 0.097,0 0.17637,-0.0794 0.17637,-0.17637 z m 0.1764,-2.21027 c -0.19402,-0.14254 -0.62802,-0.8545 -0.96444,-1.58211 -0.57912,-1.25251 -1.68327,-1.83226 -1.67976,-0.88193 0.003,0.5825 2.03309,2.73552 2.57387,2.72862 l 0.4231,-0.005 z m -27.693065,-1.31752 c 0,-0.097 -0.0794,-0.17637 -0.17637,-0.17637 -0.097,0 -0.1764,0.0794 -0.1764,0.17637 0,0.097 0.0794,0.17639 0.1764,0.17639 0.097,0 0.17637,-0.0794 0.17637,-0.17639 z m 5.47161,-0.18214 c 0.12189,-0.1972 0.36938,-0.26721 0.54999,-0.15555 0.68754,0.42492 0.29067,-0.80949 -0.49869,-1.55107 l -0.82711,-0.777 -0.58402,0.2241 c -0.74678,0.28657 -0.74686,1.14782 -1.6e-4,1.97292 0.6598,0.72906 1.03738,0.80862 1.35999,0.2866 z m -4.06048,-1.22897 c 0,-0.097 -0.0794,-0.17639 -0.1764,-0.17639 -0.097,0 -0.1764,0.0794 -0.1764,0.17639 0,0.097 0.0794,0.1764 0.1764,0.1764 0.097,0 0.1764,-0.0794 0.1764,-0.1764 z m 8.12144,-1.45798 c 0.77194,-0.51086 1.40356,-1.08725 1.40356,-1.28088 v -0.35205 l -1.2505,0.20291 -1.25048,0.20293 -0.67804,0.81339 c -1.35507,1.62544 -0.394,1.84938 1.77546,0.4137 z m 9.399847,-0.3647 c -0.129354,-0.12936 -0.341021,-0.12936 -0.470376,0 -0.129355,0.12935 -0.02355,0.23518 0.235188,0.23518 0.25871,0 0.364543,-0.10583 0.235188,-0.23518 z m -15.634177,-1.71639 c -0.27982,-0.72923 -0.47601,-0.64329 -0.47601,0.2085 0,0.39952 0.15182,0.63257 0.33737,0.51787 0.18555,-0.11467 0.24794,-0.44154 0.13864,-0.72637 z m 8.69622,0.36407 c 0,-0.097 -0.0794,-0.17639 -0.1764,-0.17639 -0.097,0 -0.17639,0.0794 -0.17639,0.17639 0,0.097 0.0794,0.1764 0.17639,0.1764 0.097,0 0.1764,-0.0794 0.1764,-0.1764 z m -9.63216,-1.14652 c 0.0437,-0.62745 -1.54688,-2.07954 -1.89573,-1.73067 -0.22286,0.22286 1.22441,2.34803 1.59906,2.34803 0.13951,0 0.27302,-0.27781 0.29667,-0.61736 z m 5.24846,-0.48309 c 0.1056,-0.17086 0.50012,-0.31066 0.87673,-0.31066 h 0.68474 v -0.54024 c 0,-0.76507 -0.86032,-0.99962 -1.82451,-0.49742 -0.97743,0.50909 -2.08053,1.60113 -1.85013,1.83155 0.24747,0.24746 1.89434,-0.12914 2.11317,-0.48323 z m 8.26424,-0.0931 c 0,-0.0744 -0.31771,-0.21834 -0.70604,-0.31988 -0.38833,-0.10155 -0.61706,-0.0407 -0.50835,0.13524 0.18989,0.30724 1.21439,0.463 1.21439,0.18464 z m -3.88054,-0.5495 c 0,-0.18258 -0.15875,-0.43007 -0.35279,-0.54998 -0.19402,-0.11992 -0.35277,-0.39387 -0.35277,-0.60879 0,-0.21491 0.10493,-0.28583 0.23315,-0.15759 0.12824,0.12824 0.80293,-0.69822 1.49931,-1.83659 1.49394,-2.44213 3.01072,-4.2762 3.536422,-4.2762 0.20656,0 0.37555,-0.17859 0.37555,-0.39687 v -0.39688 l -1.102412,0.22049 c -0.60635,0.12126 -1.45664,0.22048 -1.88955,0.22048 -0.43291,0 -1.51109,0.55278 -2.39591,1.2284 l -1.6088,1.2284 -0.41042,1.2436 -0.41042,1.2436 0.60529,1.58495 0.60531,1.58494 h 0.83402 c 0.45871,0 0.83402,-0.14938 0.83402,-0.33196 z m -1.7639,-1.43193 c 0,-0.2587 0.10584,-0.36453 0.23519,-0.23519 0.12936,0.12936 0.12936,0.34102 0,0.47038 -0.12935,0.12935 -0.23519,0.0235 -0.23519,-0.23519 z m -4.96085,0.74661 0.35562,-0.6645 1.24428,-0.23343 c 1.8568,-0.34833 1.00569,-1.70093 -2.10187,-3.34033 l -1.40589,-0.74168 -1.76911,0.005 c -2.25441,0.006 -3.25443,0.27835 -3.51473,0.95671 l -0.20693,0.53923 0.62349,0.45653 c 0.34293,0.2511 1.20923,0.65005 1.92514,0.88657 0.71588,0.23651 1.81858,0.96341 2.45044,1.61531 1.30601,1.34746 1.88936,1.47407 2.39956,0.52078 z m 2.52126,-4.73841 c -0.21045,-0.21045 -0.38264,-0.89518 -0.38264,-1.52161 0,-1.10375 -0.74297,-2.2477 -1.45984,-2.2477 -0.19312,0 -0.87145,-0.39687 -1.50741,-0.88194 -0.63595,-0.48507 -1.40512,-0.88195 -1.70928,-0.88195 h -0.55301 l 0.0948,0.79375 c 0.0521,0.43656 0.33729,1.36447 0.63365,2.06201 l 0.53885,1.26827 2.2457,1.57215 2.24568,1.57216 0.11806,-0.67625 c 0.065,-0.37193 -0.0541,-0.84843 -0.26458,-1.05889 z m 4.90903,-3.42636 c 1.63589,-0.45773 1.77887,-0.58019 3.0794,-2.63729 0.613785,-0.97085 1.414996,-2.08618 1.780518,-2.4785 1.071377,-1.15 1.953657,-2.63549 1.565301,-2.63549 -0.539512,0 -6.777989,4.25217 -6.777989,4.61991 0,0.17544 -0.29289,0.31898 -0.65088,0.31898 -1.27423,0 -2.88303,2.71271 -2.86636,4.83317 l 0.0106,1.34044 1.31239,-1.50787 1.31238,-1.50786 z m -4.75615,-2.42955 c -0.0589,-0.30758 -0.16383,-1.49821 -0.23313,-2.64585 l -0.12599,-2.08662 0.44098,-0.14764 0.44096,-0.14764 0.005,2.05787 c 0.003,1.13183 0.13165,2.2567 0.28593,2.49971 l 0.28056,0.44184 1.01069,-1.05492 1.01068,-1.05493 -0.37738,-0.79802 c -0.20754,-0.43892 -0.64063,-1.53959 -0.96242,-2.44594 -0.32176,-0.90635 -0.83198,-1.85286 -1.13382,-2.10335 l -0.54877,-0.45544 -0.49099,0.67147 c -0.27006,0.3693 -0.49776,1.15706 -0.50604,1.75057 l -0.0151,1.0791 -1.37951,1.57131 -1.37951,1.57131 0.41823,0.50393 c 0.23002,0.27716 0.97663,0.85936 1.65914,1.29378 l 1.2409,0.78986 0.23315,-0.36558 c 0.12822,-0.20107 0.18492,-0.61724 0.12597,-0.92482 z m -1.03542,-2.45216 c -0.15195,-0.24589 -0.18103,-0.54234 -0.0646,-0.65879 0.31573,-0.31572 0.65998,0.14863 0.48945,0.66021 l -0.14856,0.44564 z m 0.8527,-4.63346 c 0,-0.25871 0.10583,-0.36454 0.23519,-0.23519 0.12932,0.12935 0.12932,0.34102 0,0.47037 -0.12936,0.12935 -0.23519,0.0235 -0.23519,-0.23518 z m -5.99723,7.83166 c 0,-0.52621 -0.84328,-1.12888 -1.57957,-1.12888 -0.40309,0 -1.08979,-0.24999 -1.52603,-0.55554 -0.43622,-0.30554 -0.94949,-0.50342 -1.14057,-0.43973 -0.48326,0.16109 2.87007,2.36949 3.62881,2.38983 0.33954,0.009 0.61736,-0.11045 0.61736,-0.26568 z m 12.5236,-4.65666 c 0.11993,-0.19403 0.13867,-0.35278 0.0416,-0.35278 -0.097,0 -0.27451,0.15875 -0.39442,0.35278 -0.11991,0.19402 -0.13866,0.35277 -0.0416,0.35277 0.097,0 0.27451,-0.15875 0.39442,-0.35277 z"
       id="path5911" />
  </g>
</svg>
