<?xml version="1.0" encoding="UTF-8" standalone="no"?>
<!-- Created with Inkscape (http://www.inkscape.org/) -->

<svg
   width="56.891922mm"
   height="63.321068mm"
   viewBox="0 0 56.891922 63.321068"
   version="1.1"
   id="svg1"
   xmlns="http://www.w3.org/2000/svg"
   xmlns:svg="http://www.w3.org/2000/svg">
  <defs
     id="defs1" />
  <g
     id="layer1"
     transform="translate(136.69477,818.1438)">
    <path
       style="fill:#000000;stroke-width:0.264583"
       d="m -112.96471,-755.01905 c -0.51483,-0.16405 -2.76929,-1.11527 -5.99724,-2.53038 l -1.5875,-0.69596 -1.08926,-1.36147 c -0.59909,-0.74881 -1.29363,-1.75835 -1.54339,-2.24342 -0.24977,-0.48507 -0.76793,-1.22686 -1.15147,-1.64842 l -0.69734,-0.76647 -0.30289,-2.70098 -0.3029,-2.70097 0.56714,-1.41742 0.56713,-1.41742 -2.08044,-1.8708 -2.08045,-1.87079 -0.52916,0.46637 c -0.29104,0.25651 -0.98277,0.57961 -1.53718,0.718 l -1.00801,0.25162 -0.30951,-0.48872 c -0.17023,-0.2688 -0.31194,-0.99167 -0.31491,-1.6064 -0.007,-1.44459 -0.31959,-2.23371 -0.88487,-2.23371 -0.24815,0 -1.01269,-0.57812 -1.69902,-1.2847 l -1.24783,-1.2847 0.85484,-1.35413 c 1.07263,-1.69914 1.07604,-1.66122 -0.2505,-2.76867 l -1.1053,-0.92275 0.24903,-0.78455 c 0.13694,-0.4315 0.88532,-1.10918 1.66303,-1.50595 l 1.41404,-0.72139 1.01825,0.22365 1.01825,0.22364 0.38735,-1.53828 0.38735,-1.53828 1.58769,-1.72921 c 1.98307,-2.15983 2.55783,-3.51328 2.50391,-5.89616 l -0.0424,-1.87269 1.09826,-2.32063 c 0.60402,-1.27635 1.26974,-3.24839 1.47934,-4.38232 0.42971,-2.32443 1.18393,-3.70399 2.02507,-3.70399 0.63621,0 1.70188,-1.10537 2.44739,-2.53864 0.63683,-1.22434 1.86669,-2.53113 2.89084,-3.07169 0.86709,-0.45766 2.33585,-0.20024 1.99588,0.34981 -0.11324,0.18323 -0.35435,0.24138 -0.53583,0.12922 -0.54039,-0.33397 -3.09925,1.7013 -3.47835,2.76661 -0.51961,1.46019 -1.69941,2.82439 -2.96288,3.42597 l -1.11757,0.53211 -0.38251,2.4665 -0.38253,2.4665 -0.91057,1.60199 c -0.50083,0.88109 -1.02343,2.20345 -1.16133,2.93857 l -0.25075,1.33659 0.45694,0.85378 c 0.52059,0.97277 1.11672,1.08271 1.85695,0.34249 0.2812,-0.28122 1.34839,-0.62235 2.37151,-0.75807 l 1.86023,-0.24677 -0.25667,0.4153 c -0.14115,0.22841 -0.76044,0.63597 -1.37618,0.90568 l -1.11953,0.49038 0.89959,0.0288 c 0.49477,0.0158 1.07479,-0.14642 1.28891,-0.36056 l 0.38934,-0.38933 0.65135,0.36453 0.65138,0.36452 -0.99312,0.37759 c -0.5462,0.20767 -1.68015,0.37758 -2.51989,0.37758 h -1.5268 l -0.18804,0.49003 c -0.10343,0.26951 -0.91416,0.76733 -1.80163,1.10626 -0.88747,0.33893 -1.61359,0.72913 -1.61359,0.86711 0,0.21945 -0.34544,0.68741 -1.72818,2.34118 -0.18158,0.21717 -0.92649,1.53325 -1.65536,2.92463 l -1.32522,2.52977 -0.55605,-0.22536 c -0.3058,-0.12395 -1.17954,-0.31378 -1.94162,-0.42185 l -1.38559,-0.19648 0.79877,1.29242 0.79875,1.29242 -0.22775,1.49647 -0.22775,1.49646 0.34755,-0.50783 c 0.19117,-0.27931 0.78362,-0.56623 1.31657,-0.6376 0.53295,-0.0714 1.26233,-0.28675 1.62084,-0.47862 0.78274,-0.41891 1.33998,-0.14052 1.35056,0.67473 0.0143,1.09612 1.32654,3.40074 2.95114,5.18265 0.88448,0.97014 1.61242,1.94535 1.61769,2.16712 0.005,0.22178 0.25979,0.49926 0.56565,0.61663 l 0.55613,0.21341 2.00152,-1.87856 c 1.10082,-1.0332 2.71589,-2.37872 3.58902,-2.99003 l 1.5875,-1.11148 2.82223,-0.70799 c 1.5522,-0.38939 3.21908,-0.71547 3.70417,-0.72462 2.86483,-0.054 3.98856,-4.13439 2.31484,-8.40529 -1.92429,-4.91014 -5.20983,-8.40575 -7.18736,-7.6469 -0.6587,0.25276 -2.57569,-0.57934 -2.41884,-1.04992 0.065,-0.19503 0.34311,-0.35622 0.61796,-0.35822 l 0.49977,-0.004 -0.0596,-4.4061 -0.0596,-4.40609 0.49985,3.52777 c 0.27493,1.94028 0.55255,3.83872 0.61695,4.21875 0.13187,0.77814 1.68778,1.56223 3.14757,1.58618 0.53358,0.009 0.97014,0.14421 0.97014,0.30102 0,0.1568 0.63006,0.75212 1.40015,1.32291 l 1.40018,1.03781 0.94559,2.20433 0.94557,2.20432 0.47964,-0.39805 c 0.26379,-0.21894 0.57787,-1.01245 0.69794,-1.76336 l 0.21833,-1.36529 h 0.65374 0.65376 l 0.21629,-0.8619 c 0.11899,-0.47404 0.0975,-1.05419 -0.0478,-1.28923 l -0.26411,-0.42733 0.46236,0.28575 0.46236,0.28575 -0.22265,-1.11318 c -0.12245,-0.61225 -0.54409,-1.81885 -0.93699,-2.68133 -0.39291,-0.86249 -0.71438,-1.89209 -0.71438,-2.288 0,-1.46915 -0.88233,-3.94805 -1.66793,-4.68609 l -0.81087,-0.76177 -0.41865,0.41866 c -0.7661,0.76611 -1.30344,-0.0147 -2.38239,-3.46189 -0.21254,-0.6791 -0.62592,-1.55145 -0.91863,-1.93856 l -0.53218,-0.70383 -0.33343,0.52744 c -0.18341,0.2901 -0.33607,0.3687 -0.33928,0.17467 -0.003,-0.19402 -0.40253,-0.81403 -0.88736,-1.37778 -1.24904,-1.45237 -1.07931,-2.0374 0.18717,-0.64512 1.1157,1.22653 1.41232,1.11257 0.49882,-0.19166 l -0.54917,-0.78405 0.46098,0.006 c 0.653,0.009 2.61049,3.12643 3.31436,5.27838 l 0.59396,1.81597 0.35727,-0.35726 0.35727,-0.35727 0.92146,0.4765 c 1.25439,0.64868 2.46687,2.92744 2.86584,5.38616 0.37938,2.33795 0.98276,3.97896 1.46304,3.97896 0.18195,0 0.23947,-0.14778 0.12784,-0.3284 -0.11163,-0.18062 -0.0416,-0.42812 0.15555,-0.54999 0.19719,-0.12187 0.35854,-0.0762 0.35854,0.10154 0,0.36599 2.373951,-1.64124 3.983641,-3.36829 1.19333,-1.28032 2.15046,-1.43489 3.41231,-0.55106 l 0.85013,0.59546 0.1397,-0.41907 c 0.0768,-0.23049 0.30364,-0.41908 0.50401,-0.41908 0.20036,0 1.1359,-0.5664 2.07896,-1.25867 l 1.71466,-1.25867 2.56593,-0.0252 c 1.41126,-0.0138 3.08189,-0.003 3.71247,0.024 l 1.14652,0.0491 0.003,0.44097 c 0.003,0.24253 0.47749,0.7114 1.05833,1.04192 l 1.05611,0.60096 v 2.52206 2.52207 l -1.41705,2.8742 c -2.01338,4.08369 -2.24637,4.44485 -4.0761,6.31849 l -1.64099,1.6804 0.48027,0.61127 c 0.26413,0.3362 0.65976,0.80274 0.87913,1.03674 1.82583,1.94751 1.90442,9.49528 0.12597,12.10092 -0.90284,1.3228 -1.84293,4.47323 -1.58105,5.2984 l 0.23056,0.72639 -0.91009,-0.22842 -0.90998,-0.22842 v 0.43413 c 0,0.67072 -5.5853,6.23504 -6.73769,6.71238 -0.56288,0.23315 -1.02341,0.53151 -1.02341,0.66302 0,0.13151 -0.55563,0.44003 -1.23473,0.68559 -0.67911,0.24557 -1.23473,0.5945 -1.23473,0.77541 0,0.74529 -2.670501,3.20489 -4.730461,4.3569 l -2.20599,1.23365 -3.30624,0.72159 c -1.81842,0.39688 -3.31364,0.70906 -3.32274,0.69375 -0.009,-0.0153 -0.25463,-0.10373 -0.54568,-0.19648 z m 3.26749,-1.74194 1.62931,-0.55516 -0.18024,-0.46968 -0.18023,-0.46968 1.17142,-0.23957 c 1.54731,-0.31644 3.11168,-0.98864 3.11168,-1.33706 0,-0.15349 0.33666,-0.0989 0.74814,0.12131 l 0.74813,0.40039 -0.23751,-0.38428 -0.23749,-0.38429 1.99091,-2.03216 c 1.095,-1.11769 2.246261,-2.50841 2.558331,-3.0905 l 0.5674,-1.05833 -0.006,-2.41943 -0.006,-2.41944 -0.59349,-0.33212 c -0.32639,-0.18267 -0.59346,-0.74206 -0.59346,-1.24309 0,-1.80185 -2.225221,-4.40415 -5.313701,-6.21411 l -1.57777,-0.92464 -1.40496,-0.0334 c -3.08009,-0.0732 -5.00523,0.48359 -8.41383,2.43337 -0.75044,0.42926 -1.41213,0.73275 -1.47045,0.67443 -0.2345,-0.23448 0.78071,-1.265 1.77655,-1.80339 0.58208,-0.31469 1.4552,-0.89321 1.94027,-1.2856 l 0.88196,-0.71344 -1.69627,0.56601 -1.69627,0.56601 -2.27828,2.27825 c -1.25304,1.25305 -2.58455,2.87868 -2.95894,3.61253 l -0.68069,1.33427 0.38931,0.38929 0.38928,0.3893 -0.36121,0.45592 c -0.19865,0.25076 -0.33605,0.92549 -0.30533,1.4994 l 0.0559,1.04347 -0.63222,0.63223 -0.63222,0.63221 v 1.57091 c 0,1.84007 0.60446,3.36798 1.33238,3.36798 0.28247,0 1.45667,0.87313 2.60932,1.94028 l 2.09574,1.94028 0.77364,0.005 c 0.42551,0.003 1.01177,0.17669 1.30281,0.38605 l 0.52917,0.38066 -0.64685,-0.20991 -0.64683,-0.20991 0.13332,0.39997 c 0.38336,1.15004 3.70406,1.59678 6.01536,0.80924 z m -3.79666,-1.20873 -0.21804,-0.35278 0.99097,0.0248 c 0.54504,0.0136 1.30847,0.16123 1.6965,0.32799 l 0.70557,0.30318 -1.47849,0.0248 c -0.81317,0.0136 -1.5766,-0.13396 -1.69651,-0.32799 z m 1.17586,-0.96727 c -0.3234,-0.0723 -0.91953,-0.83678 -1.32472,-1.69878 l -0.7367,-1.56729 -1.14472,-10e-4 c -1.37922,-0.002 -3.17593,-1.03497 -4.00833,-2.30541 l -0.60892,-0.92929 1.10239,-1.03028 c 0.60632,-0.56666 1.52207,-1.18984 2.03499,-1.38485 0.51292,-0.19501 1.01513,-0.67016 1.11599,-1.05588 0.10086,-0.38571 0.333,-0.7013 0.51586,-0.7013 0.18282,0 0.24511,-0.14133 0.13835,-0.31406 -0.21347,-0.34537 1.8765,-1.44983 2.74346,-1.44983 0.29924,0 0.82542,0.47625 1.16927,1.05833 l 0.62516,1.05833 h 1.48585 1.48582 l 0.75112,0.95487 0.7511,0.95487 -0.22471,0.89524 c -0.28876,1.15054 -0.81978,1.77817 -1.82914,2.16193 l -0.80825,0.3073 v 1.71112 1.71113 l -0.79375,0.71448 c -0.92662,0.83407 -1.62205,1.09362 -2.44012,0.91068 z m 1.30963,-2.09295 -0.2368,-0.94355 0.55134,0.45758 0.55137,0.45758 v -0.74875 -0.74875 h -0.50033 c -0.27517,0 -0.75547,0.0979 -1.06733,0.21758 l -0.56703,0.21759 0.40497,0.48797 0.40497,0.48797 h -0.57234 c -0.3148,0 -0.57238,0.23812 -0.57238,0.52916 v 0.52917 h 0.9202 0.92019 z m 0.10801,-3.29285 1.11067,-1.0614 v -0.83568 c 0,-1.01767 -0.51684,-1.45911 -2.0483,-1.74952 l -1.16634,-0.22118 -0.86214,0.56489 c -0.47416,0.31068 -0.87326,0.82444 -0.88691,1.14167 l -0.0249,0.57679 -0.28499,-0.70556 -0.28498,-0.70555 -0.4649,0.99753 -0.46487,0.99754 0.36941,0.58996 0.36944,0.58997 1.28717,0.10949 c 0.70797,0.0602 1.2872,0.25865 1.2872,0.44097 0,0.6559 0.97493,0.31118 2.06435,-0.72992 z m -4.181,-0.87888 c 0,-0.097 0.0794,-0.17639 0.1764,-0.17639 0.097,0 0.17637,0.0794 0.17637,0.17639 0,0.097 -0.0794,0.17639 -0.17637,0.17639 -0.097,0 -0.1764,-0.0794 -0.1764,-0.17639 z m -1.7639,0.56691 c 0,-0.69396 -0.88408,-1.2454 -1.44293,-0.90001 -0.46786,0.28915 -0.39246,1.1274 0.12001,1.33419 0.8907,0.3594 1.32292,0.21755 1.32292,-0.43418 z m 9.38686,-1.59767 c 0.29649,-0.77264 -0.50712,-1.96785 -1.32313,-1.96785 h -0.73088 l 0.25416,0.61736 c 0.13978,0.33955 0.33403,0.89518 0.43167,1.23472 0.21343,0.74233 1.09899,0.81726 1.36818,0.11577 z m -6.32944,-3.96692 c -0.12935,-0.12935 -0.34102,-0.12935 -0.47038,0 -0.12935,0.12935 -0.0235,0.23518 0.23519,0.23518 0.25871,0 0.36455,-0.10583 0.23519,-0.23518 z m 5.50415,9.51571 c 0.34325,-0.0894 0.8195,-0.0836 1.05834,0.0131 0.23884,0.0966 -0.042,0.16982 -0.62408,0.16263 l -1.05833,-0.0131 z m -13.14767,-11.72915 c 0,-0.18258 0.15692,-0.42895 0.34875,-0.54749 l 0.34872,-0.21553 -0.21008,0.54749 c -0.23453,0.61115 -0.48739,0.72298 -0.48739,0.21553 z m 1.05833,-1.43193 c 0,-0.19403 0.15875,-0.35278 0.35277,-0.35278 0.19405,0 0.3528,0.15875 0.3528,0.35278 0,0.19402 -0.15875,0.35277 -0.3528,0.35277 -0.19402,0 -0.35277,-0.15875 -0.35277,-0.35277 z m 24.623771,9.38083 c 0.82309,-0.42937 4.61015,-4.44194 4.19229,-4.44194 -0.0838,0 -0.82727,0.23812 -1.65216,0.52916 -0.82492,0.29105 -1.93582,0.52917 -2.46872,0.52917 h -0.96888 l -0.22071,1.38027 c -0.12142,0.75915 -0.31743,1.63228 -0.43561,1.94028 l -0.2149,0.56 h 0.40804 c 0.22442,0 0.83672,-0.22362 1.36065,-0.49694 z m -27.798771,-4.61833 c 0,-0.097 -0.0794,-0.17639 -0.1764,-0.17639 -0.097,0 -0.17637,0.0794 -0.17637,0.17639 0,0.097 0.0794,0.17639 0.17637,0.17639 0.097,0 0.1764,-0.0794 0.1764,-0.17639 z m 30.779851,-1.97733 c 0.72761,-0.23876 1.32292,-0.56622 1.32292,-0.7277 0,-0.16147 0.21929,-0.29358 0.48731,-0.29358 0.268,0 0.87913,-0.51594 1.35808,-1.14653 1.04508,-1.37603 2.74574,-4.8507 2.37416,-4.8507 -0.2871,0 -1.12514,-4.27031 -0.88516,-4.51031 0.0808,-0.0809 0.32234,0.50401 0.5366,1.2997 0.35658,1.32428 1.06791,2.01378 1.06791,1.03515 0,-0.22636 0.0767,-0.33491 0.17036,-0.24122 0.0937,0.0937 0.0315,0.65452 -0.13821,1.24628 l -0.30859,1.07591 0.29435,0.47627 0.29435,0.47626 0.35388,-0.93077 c 0.51149,-1.34529 0.69734,-3.51927 0.37076,-4.33699 l -0.28175,-0.70555 -0.0302,1.23472 -0.0302,1.23472 -0.34197,-0.52917 c -0.79312,-1.22726 -0.0243,-4.10779 0.87003,-3.26013 0.42825,0.40585 -0.13084,-1.31248 -1.07321,-3.29847 -0.46873,-0.98785 -1.17869,-2.09151 -1.57765,-2.45256 l -0.72536,-0.65646 0.34044,0.86506 c 0.18725,0.47579 0.5924,1.45528 0.90032,2.17665 0.30793,0.72137 0.54147,1.67387 0.51896,2.11667 l -0.0409,0.80508 -0.17352,-0.68061 c -0.0954,-0.37433 -0.39452,-0.90161 -0.66463,-1.17173 -0.27011,-0.27011 -0.4917,-0.75759 -0.49244,-1.08328 -0.005,-1.97562 -1.54268,-3.132 -6.37276,-4.79061 -3.27138,-1.12337 -3.91514,-1.12621 -6.149521,-0.0271 -0.97015,0.47723 -1.90445,0.86914 -2.07621,0.87091 -0.1718,0.002 -0.68014,0.40011 -1.12969,0.88518 -0.44956,0.48506 -0.94401,0.88233 -1.09879,0.8828 -0.15478,5.3e-4 -0.27377,0.83392 -0.2644,1.85209 0.009,1.01817 -0.17547,2.25358 -0.41074,2.74535 -0.23527,0.49177 -0.53202,1.45006 -0.6595,2.12953 l -0.23178,1.2354 1.92099,0.7962 c 1.05653,0.43791 2.6611,1.4757 3.56571,2.30621 l 1.644701,1.51001 -0.21193,0.55227 -0.21191,0.55226 1.19359,1.1856 c 1.1039,1.09651 1.39928,1.63011 2.35392,4.25247 l 0.34592,0.95019 0.98644,-0.31069 c 0.54256,-0.17089 1.58176,-0.50605 2.30936,-0.7448 z m -2.01747,-7.00072 -0.20704,-0.33499 -1.72447,0.20423 -1.72445,0.20424 -0.91154,-0.91154 -0.911541,-0.91154 v -1.40195 -1.40195 l -0.56404,-0.56403 c -0.31023,-0.31022 -0.64321,-1.155 -0.73996,-1.87728 l -0.17593,-1.31325 0.88628,-0.95588 c 0.48747,-0.52573 1.289231,-1.057 1.781761,-1.18061 l 0.89545,-0.22475 1.12774,0.56258 1.12773,0.56259 0.38812,-0.31414 c 1.47812,-1.19639 4.6428,0.17164 5.28936,2.28648 l 0.22511,0.73627 -0.88831,0.9585 -0.88832,0.95851 0.22649,1.92717 0.22651,1.92716 -0.63312,0.69959 -0.63312,0.69958 h -0.98283 c -0.54057,0 -1.076,-0.15074 -1.18988,-0.33499 z m 2.05031,-1.67608 c 0.17735,-0.61836 0.23077,-1.36322 0.11872,-1.65523 l -0.20376,-0.53095 -1.09704,1.02479 -1.09704,1.02479 0.3973,0.74234 0.39729,0.74234 0.58106,-0.1119 c 0.31956,-0.0615 0.72615,-0.61782 0.90347,-1.23618 z m -4.35435,0.77635 c 0,-0.097 -0.0794,-0.17639 -0.1764,-0.17639 -0.097,0 -0.17637,0.0794 -0.17637,0.17639 0,0.097 0.0794,0.17639 0.17637,0.17639 0.097,0 0.1764,-0.0794 0.1764,-0.17639 z m 1.76389,-0.88195 c 0,-0.19402 -0.16811,-0.35277 -0.37362,-0.35277 -0.20547,0 -0.27548,0.15875 -0.15554,0.35277 0.11991,0.19403 0.28802,0.35278 0.37359,0.35278 0.0856,0 0.15557,-0.15875 0.15557,-0.35278 z m -2.82223,-0.48597 c 0,-0.26728 -0.23812,-0.68359 -0.52916,-0.92514 l -0.52917,-0.43917 v 0.68996 c 0,0.37948 0.10583,0.79579 0.23519,0.92514 0.39399,0.39399 0.82314,0.26324 0.82314,-0.25079 z m 3.70417,-0.84234 c 0.58645,-0.43086 1.23473,-1.79028 1.23473,-2.58919 v -0.75208 l -1.14655,-1.01096 c -1.67716,-1.47887 -3.35179,-1.0297 -4.0935,1.09797 l -0.35393,1.01532 0.26567,0.98988 0.26567,0.98987 0.56613,0.005 c 0.31138,0.002 0.68318,0.12154 0.82624,0.26459 0.33424,0.33425 1.97617,0.32758 2.43554,-0.01 z m -4.44458,-4.15991 c 1.29773,-2.19948 0.49276,-3.15747 -1.265311,-1.50584 -0.90025,0.84572 -1.04201,1.68856 -0.39318,2.3374 0.640241,0.64022 0.853101,0.53349 1.658491,-0.83156 z m 7.37264,0.83156 c 0.64667,-0.64669 0.50597,-1.59544 -0.32274,-2.17588 -1.48129,-1.03755 -2.23065,0.086 -1.15363,1.72968 0.6428,0.98105 0.8722,1.05037 1.47637,0.4462 z m 2.65092,0.15875 c -0.12084,-0.33955 -0.28639,-0.77611 -0.36788,-0.97014 -0.0815,-0.19403 0.10176,-0.0446 0.40719,0.33201 0.5546,0.68389 0.72208,1.25549 0.36785,1.25549 -0.1031,0 -0.28633,-0.27781 -0.40716,-0.61736 z m -0.81648,-1.85209 c 0,-0.2587 0.10583,-0.36453 0.23519,-0.23518 0.12935,0.12935 0.12935,0.34102 0,0.47037 -0.12936,0.12935 -0.23519,0.0235 -0.23519,-0.23519 z m -0.95036,-1.76388 c -0.4853,-1.28571 -0.0329,-1.41933 0.54094,-0.15979 0.48324,1.06054 0.50057,1.21812 0.13399,1.21812 -0.1515,0 -0.45522,-0.47625 -0.67493,-1.05833 z m -5.04687,-1.05834 c 0,-0.2587 0.10583,-0.36454 0.23519,-0.23518 0.12935,0.12935 0.12935,0.34102 0,0.47037 -0.12936,0.12935 -0.23519,0.0235 -0.23519,-0.23519 z m 3.60354,-1.28195 -0.80621,-0.83471 h 0.45675 c 0.42347,0 1.52067,1.3622 1.26828,1.57462 -0.0619,0.0521 -0.47543,-0.28081 -0.91882,-0.73991 z m 1.68812,0.40001 c 0,-0.097 0.0794,-0.17639 0.1764,-0.17639 0.097,0 0.1764,0.0794 0.1764,0.17639 0,0.097 -0.0794,0.17639 -0.1764,0.17639 -0.097,0 -0.1764,-0.0794 -0.1764,-0.17639 z m -32.920121,18.10191 -0.18528,-0.46302 -0.0278,0.67615 c -0.0153,0.37189 0.068,0.58025 0.18529,0.46302 0.11721,-0.11722 0.12975,-0.42149 0.0278,-0.67615 z m 1.05254,0.18374 c -0.12935,-0.12936 -0.23518,-0.0235 -0.23518,0.23518 0,0.25871 0.10583,0.36454 0.23518,0.23519 0.12936,-0.12936 0.12936,-0.34102 0,-0.47037 z m -8.07479,-4.9001 c 0.98602,-0.69065 0.97764,-0.98444 -0.0901,-3.155 -0.47723,-0.97014 -0.87265,-2.0417 -0.87871,-2.38125 -0.013,-0.71995 -0.035,-0.7249 -1.2228,-0.27331 l -0.9049,0.34405 v 0.89067 0.89068 h 0.48858 c 0.26874,0 0.73771,0.38019 1.04217,0.84486 l 0.55359,0.84487 -0.20638,1.2718 c -0.22669,1.39694 0.0346,1.5519 1.21854,0.72263 z m 45.609431,-18.01171 c 1.50077,-2.02095 2.65086,-4.36975 2.91693,-5.95717 0.0976,-0.58209 0.31226,-1.61396 0.47709,-2.29306 0.16484,-0.6791 0.24488,-1.69039 0.17788,-2.24731 l -0.12178,-1.0126 -2.12318,0.24021 -2.12315,0.24021 0.23125,-0.37414 0.23122,-0.37415 h -1.08448 c -1.58197,0 -5.34974,1.09064 -6.32486,1.83083 l -0.84135,0.63862 h -1.51093 -1.51093 l -1.72355,0.86568 c -0.94795,0.47612 -2.230991,1.35063 -2.851201,1.94334 l -1.12768,1.07767 v 1.71672 c 0,0.9442 -0.10285,2.23097 -0.22855,2.85948 l -0.22855,1.14276 0.66953,-0.20833 c 0.36822,-0.11458 1.990041,-0.293 3.604001,-0.39648 l 2.93446,-0.18816 1.06696,-0.55174 c 0.58682,-0.30346 2.67378,-1.7476 4.63773,-3.2092 l 3.57076,-2.65746 0.13406,0.40222 c 0.21739,0.65208 -5.33471,5.19058 -7.25275,5.92872 -0.77333,0.2976 -0.47282,0.82118 0.35276,0.61465 l 0.79375,-0.19856 2.29307,1.5552 2.29306,1.55519 0.6644,-0.5696 c 0.36544,-0.31328 1.26725,-1.38138 2.00403,-2.37354 z m -19.537181,-0.55527 -0.18528,-0.46302 -0.0278,0.67616 c -0.0153,0.37189 0.068,0.58025 0.18529,0.46302 0.11721,-0.11722 0.12975,-0.4215 0.0278,-0.67616 z m 21.984021,-12.10468 c 0,-0.097 -0.0794,-0.17639 -0.1764,-0.17639 -0.097,0 -0.17637,0.0794 -0.17637,0.17639 0,0.097 0.0794,0.17639 0.17637,0.17639 0.097,0 0.1764,-0.0794 0.1764,-0.17639 z"
       id="path5952" />
  </g>
</svg>
