<?xml version="1.0" encoding="UTF-8" standalone="no"?>
<!-- Created with Inkscape (http://www.inkscape.org/) -->

<svg
   width="53.795879mm"
   height="52.411018mm"
   viewBox="0 0 53.795879 52.411018"
   version="1.1"
   id="svg1"
   xmlns="http://www.w3.org/2000/svg"
   xmlns:svg="http://www.w3.org/2000/svg">
  <defs
     id="defs1" />
  <g
     id="layer1"
     transform="translate(36.055561,370.46843)">
    <path
       style="fill:#000000;stroke-width:0.264583"
       d="m -20.135311,-318.50342 c -0.44265,-0.24574 -0.70591,-0.54573 -0.58502,-0.66659 0.12088,-0.12089 -0.5047,-0.32842 -1.39015,-0.46122 l -1.60994,-0.24143 -0.88048,-0.81598 c -0.48424,-0.44881 -1.17798,-0.91043 -1.54159,-1.02584 -0.97764,-0.31028 -2.22478,-1.76871 -2.32969,-2.72439 -0.0505,-0.45987 -0.67257,-1.46857 -1.38239,-2.24155 -0.70982,-0.77295 -1.29135,-1.60379 -1.29228,-1.84634 0,-0.24254 -0.18029,-0.40129 -0.39857,-0.35277 -0.21828,0.0485 -0.47699,-0.13234 -0.57494,-0.4019 l -0.17806,-0.49006 0.39857,0.2463 c 0.21918,0.13547 0.39854,0.0612 0.39854,-0.16502 0,-0.22625 -0.22323,-0.32568 -0.49604,-0.22101 -0.27281,0.1047 -0.77706,-0.1202 -1.12054,-0.49974 l -0.62455,-0.69011 0.40508,-0.40506 0.40505,-0.40507 -0.7838,-0.38807 -0.78383,-0.38809 -0.46194,-1.57977 c -0.25407,-0.86887 -0.60409,-1.84394 -0.77782,-2.16683 l -0.31586,-0.58706 0.33684,-1.17449 c 0.18527,-0.64598 0.33684,-1.93595 0.33684,-2.8666 v -1.69206 l 0.6689,-1.30887 c 0.93496,-1.82957 5.67534,-6.07137 6.78497,-6.07137 0.14899,0 0.70075,-0.39835 1.22613,-0.88527 l 0.95523,-0.88526 -0.40791,-0.89522 c -0.22431,-0.49237 -0.43328,-1.64182 -0.46432,-2.55432 l -0.0565,-1.65909 -0.14229,1.14654 c -0.0783,0.63058 -0.29096,1.14652 -0.4727,1.14652 -0.5483,0 -0.36823,-1.17036 0.34702,-2.25528 0.37005,-0.56131 0.59013,-1.236 0.48911,-1.49931 -0.10104,-0.26332 -0.0251,-0.47874 0.16857,-0.47874 0.19375,0 0.44818,-0.38214 0.56539,-0.84918 0.11723,-0.46704 0.31996,-1.12755 0.45053,-1.4678 l 0.23741,-0.61865 -0.76507,0.20005 c -0.42079,0.11004 -0.76507,0.0592 -0.76507,-0.11295 0,-0.17217 0.39023,-0.41098 0.86717,-0.53068 0.79354,-0.19918 4.07173,-3.73475 4.07173,-4.39142 0,-0.1547 0.62587,-0.38698 1.39081,-0.51623 0.76493,-0.12922 1.57813,-0.46069 1.80707,-0.73654 0.22895,-0.27589 0.62175,-0.5016 0.87286,-0.5016 0.25112,0 0.50949,-0.14552 0.57418,-0.32335 0.30408,-0.83619 11.6454501,-2.19549 12.1056101,-1.45092 0.10097,0.16338 1.01685,0.40018 2.03528,0.52626 1.01844,0.12604 2.16918995,0.36004 2.55724995,0.51998 0.38804,0.15994 1.89616005,0.73978 3.35137005,1.28852 l 2.64584,0.99777 3.103614,3.1079 c 1.7070099,1.70934 3.0064399,3.26517 2.8876599,3.45737 -0.33565,0.54308 0.17201,1.75424 0.73528,1.75424 0.27797,0 0.50541,0.16811 0.50541,0.37359 0,0.2055 0.15073,0.28046 0.33493,0.16661 0.18423,-0.11388 0.43884,0.34671 0.56582,1.02351 0.12697,0.67681 0.69061,1.71164 1.25253,2.29965 l 1.02172,1.06911 0.0342,1.14974 c 0.0188,0.63236 0.009,1.7172 -0.0225,2.41078 l -0.0567,1.26103 0.55169,0.45786 c 0.30342,0.25181 0.55168,0.72946 0.55168,1.0614 0,0.33198 0.1067,0.71028 0.23714,0.84072 0.39791,0.39793 0.43942,3.73726 0.0494,3.9783 -0.59433,0.36732 -0.88387,-0.48165 -0.9533,-2.7953 -0.0359,-1.1966 -0.21809,-2.32846 -0.40483,-2.51521 l -0.33957,-0.33956 v 0.86929 c 0,0.4781 -0.31528,1.74016 -0.70064,2.80458 l -0.70065,1.9353 -2.07441,2.01683 c -1.14094,1.10927 -2.0265,2.06476 -1.96789,2.12337 0.0586,0.0586 -0.9265499,0.41843 -2.1891899,0.7997 l -2.295684,0.69318 0.15555,0.81373 c 0.20166,1.055 -0.51615,3.10091 -2.31775,6.60595 l -1.45064,2.82223 -2.40157005,2.33088 c -1.32084995,1.28198 -2.40156995,2.51788 -2.40156995,2.74643 v 0.41558 l 0.71284,-0.38151 c 0.39206,-0.20984 0.85741,-0.29217 1.03407995,-0.18298 0.31416,0.19418 2.08153005,-0.81785 3.95332005,-2.26375 0.51575,-0.39841 1.11636,-0.72438 1.33469,-0.72438 0.21831,0 0.95631,-0.55938 1.64002,-1.24309 0.68371,-0.68371 1.38761,-1.15379 1.56422,-1.04465 0.17661,0.10916 0.523214,-0.1252 0.770284,-0.52078 0.24704,-0.39558 0.6491,-0.71925 0.89347,-0.71925 0.24437,0 0.44432,-0.14806 0.44432,-0.329 0,-0.18095 0.3174999,-0.42977 0.7055299,-0.55293 0.38807,-0.12316 0.70557,-0.37949 0.70557,-0.56962 0,-0.37354 2.9577,-3.48734 3.3125,-3.48734 0.48924,0 0.14846,0.67976 -0.93125,1.85761 -0.63058,0.68792 -1.7417,1.89857 -2.46915,2.69034 -0.72744,0.79176 -1.8783799,1.67177 -2.5576399,1.95558 -0.679274,0.28382 -1.235034,0.76224 -1.235034,1.06321 0,0.30093 -0.17748,0.54715 -0.39438,0.54715 -0.21694,0 -0.93682,0.47625 -1.59978,1.05834 -0.66297,0.58208 -1.3738,1.05833 -1.57962,1.05833 -0.20582,0 -0.81232,0.31195 -1.34778,0.69324 -0.53544,0.38126 -1.63150005,0.79843 -2.43571005,0.92702 -0.8042,0.12858 -1.46215995,0.38224 -1.46215995,0.56367 0,0.18142 -0.27781,0.29548 -0.61735,0.25347 -0.33957,-0.042 -0.85551,0.014 -1.14655,0.1248 -4.753,1.80702 -12.8276301,2.94272 -14.0006901,1.96916 l -0.46318,-0.38441 v 0.39597 c 0,0.52652 -1.38647,0.48258 -2.39234,-0.0758 z m 6.97843,-2.35042 c 0,-0.44201 -0.37438,-0.44201 -1.05833,0 l -0.52917,0.34197 0.79375,0.005 c 0.43657,0.003 0.79375,-0.15335 0.79375,-0.34737 z m 4.9389001,0.1764 c 0,-0.097 -0.0794,-0.1764 -0.1764,-0.1764 -0.097,0 -0.17639,0.0794 -0.17639,0.1764 0,0.097 0.0794,0.17637 0.17639,0.17637 0.097,0 0.1764,-0.0794 0.1764,-0.17637 z m -2.5650001,-0.74232 c -0.11721,-0.11721 -0.42148,-0.12975 -0.67614,-0.0279 l -0.46302,0.18529 0.67614,0.0279 c 0.3719,0.0153 0.58026,-0.068 0.46302,-0.18529 z m 2.0703101,-0.50554 0.96234,-0.36586 -0.38504,-0.38508 -0.38508,-0.38507 -0.95467,0.75096 c -1.0377201,0.81627 -0.7516801,0.96073 0.76245,0.38505 z m -3.8216401,-1.10553 c 2.7815601,-0.70041 9.9795501,-6.94151 11.0708501,-9.59914 0.2485,-0.60515 0.81054995,-1.63216 1.24904995,-2.28227 0.43847,-0.65011 0.89879,-1.72342 1.02293,-2.38514 0.12414,-0.66172 0.36645005,-1.29013 0.53848005,-1.39647 0.17203,-0.10631 0.30578,-0.54112 0.29721,-0.96623 l -0.0156,-0.77293 -0.73380005,1.39197 c -0.40362,0.76558 -0.95221,1.61036 -1.21915,1.87728 -0.26691,0.26693 -0.50514,0.63272 -0.5294,0.8129 -0.0243,0.18016 -0.064,0.4731 -0.0882,0.65096 -0.0243,0.17785 -0.18861995,0.45566 -0.36524995,0.61735 l -0.32113,0.29398 0.25376,-0.44096 c 0.13957,-0.24254 0.0857,-0.44098 -0.11983,-0.44098 -0.20547,0 -0.37359,0.17767 -0.37359,0.39481 0,0.64146 -2.54333,4.63878 -3.62405,5.69587 -0.54845,0.5365 -0.90167,1.12999 -0.78491,1.3189 0.11673,0.18888 0,0.26199 -0.25943,0.16245 -0.25942,-0.0996 -0.80975,0.13396 -1.22298,0.51893 -0.4132,0.38497 -1.16168,0.80296 -1.6633,0.92885 -0.5016,0.12588 -0.9119901,0.35552 -0.9119901,0.51027 0,0.3316 -3.01337,1.40602 -3.94341,1.40602 -0.35348,0 -0.64272,-0.15875 -0.64272,-0.35277 0,-0.19401 0.23812,-0.35276 0.52916,-0.35276 0.29105,0 0.52917,-0.14735 0.52917,-0.3274 0,-0.42204 -3.36412,-0.84307 -5.426,-0.67908 l -1.59557,0.1269 -0.35642,-0.78222 c -0.19603,-0.43024 -1.12654,-1.1725 -2.06785,-1.64949 -1.65534,-0.83884 -3.84497,-2.91709 -4.64153,-4.4055 l -0.38727,-0.72361 -0.509,0.19532 -0.50904,0.19534 -0.24066,-1.00222 c -0.13237,-0.55123 -0.47419,-1.4651 -0.75962,-2.0308 l -0.51893,-1.0286 0.013,-2.2406 c 0.007,-1.23232 0.27908,-3.04194 0.60438,-4.02135 0.72107,-2.17095 0.51533,-2.51714 -0.57147,-0.9616 -0.44836,0.64175 -0.96988,1.27286 -1.15887,1.4024 -0.18902,0.12957 -0.39558,0.57581 -0.45906,0.99163 l -0.11535,0.75605 0.35382,-0.21871 c 0.57335,-0.35433 0.39143,0.28403 -0.35171,1.23407 l -0.68987,0.88197 -0.008,1.31484 c -0.0185,3.09153 3.31907,9.13151 5.73199,10.37331 0.62664,0.3225 1.74394,1.10215 2.4829,1.73257 0.73895,0.6304 2.02647,1.31813 2.86115,1.52831 0.83466,0.21016 1.73268,0.6413 1.99557,0.95809 1.02105,1.23028 4.48246,1.58744 7.65146,0.78949 z m -19.67257,-12.11051 c 0,-0.097 0.0794,-0.1764 0.1764,-0.1764 0.097,0 0.17637,0.0794 0.17637,0.1764 0,0.097 -0.0794,0.1764 -0.17637,0.1764 -0.097,0 -0.1764,-0.0794 -0.1764,-0.1764 z m 31.75000005,-1.05833 c 0,-0.097 0.0794,-0.1764 0.1764,-0.1764 0.097,0 0.17637,0.0794 0.17637,0.1764 0,0.097 -0.0794,0.17639 -0.17637,0.17639 -0.097,0 -0.1764,-0.0794 -0.1764,-0.17639 z m -4.16432995,12.39014 c 0.13499,-0.2064 0.15293,-0.45924 0.0399,-0.56187 -0.11303,-0.10263 -0.27635,0.0119 -0.36298,0.25437 -0.0866,0.24252 -0.42209,0.44339 -0.74546,0.44635 -0.32338,0.003 -0.82608,0.16151 -1.11713,0.3523 l -0.52916,0.34689 1.23473,-0.23138 c 0.67908,-0.12726 1.34514,-0.40023 1.4801,-0.60666 z m -21.5884301,-1.45404 c -0.24157,-0.29104 -0.61818,-0.52412 -0.83696,-0.51795 -0.21878,0.006 -0.0896,0.24432 0.28702,0.52917 0.87971,0.6654 1.1076,0.66074 0.54994,-0.0111 z m 22.2195701,-0.44096 -0.005,-0.61738 -0.26329,0.3528 c -0.1448,0.19402 -0.40695,0.47183 -0.58256,0.61735 -0.1756,0.14552 -0.0547,0.26458 0.26869,0.26458 h 0.58798 z m 2.19369,-0.11231 c 0.44569,-0.2073 1.10010995,-0.76896 1.45427995,-1.24812 l 0.64392,-0.87122 -0.97319,0.24426 c -0.53525995,0.13433 -1.35667995,0.4432 -1.82535995,0.68636 l -0.85215,0.44209 0.65225,0.16806 0.65225,0.16807 -0.79375,0.0409 c -0.43656,0.0225 -0.79375,0.19968 -0.79375,0.3937 0,0.46003 0.81765,0.44929 1.8355,-0.0241 z m -11.1841001,-2.09257 0.70554,-0.30318 -1.47847,-0.0249 c -0.81317,-0.0138 -1.57374,-0.17889 -1.69013,-0.36722 -0.2889,-0.46746 1.3362,-0.83426 2.73214,-0.61666 0.62812,0.0979 1.61827,-0.0246 2.20036,-0.27205 0.5820801,-0.24751 1.5725501,-0.64595 2.2010401,-0.8854 1.40549,-0.53546 3.51327,-2.81289 4.19904,-4.53702 0.54153,-1.36141 0.75671,-1.85833 1.77814,-4.10618 l 0.64121,-1.4111 v -3.61614 c 0,-3.68167 0.0653,-3.93856 0.81139995,-3.19246 l 0.42333,0.42333 v -0.41092 c 0,-0.50395 -1.30893995,-1.24608 -1.73420995,-0.98327 -0.16967,0.10488 -0.39761,-0.0415 -0.50652,-0.32531 -0.23542,-0.61349 -2.44887,-1.59663 -3.59468,-1.59663 -0.44571,0 -1.78514,-0.24971 -2.97653,-0.55493 l -2.1661501,-0.55494 -0.52808,0.43826 -0.52808,0.43828 0.10811,-0.49231 0.10808,-0.49231 -0.88194,-0.13282 c -1.15165,-0.17344 -4.54141,0.57129 -5.56749,1.22314 l -0.80499,0.51141 0.25534,0.42548 0.25535,0.42548 -0.56999,-0.46186 -0.57002,-0.46186 -1.3734,0.70065 c -0.75535,0.38536 -1.58064,0.95038 -1.83395,1.2556 -0.25332,0.30523 -0.79833,0.56613 -1.21114,0.57976 l -0.75054,0.0249 0.70557,0.30318 0.70553,0.30319 -0.57959,0.0249 c -0.58722,0.0251 -1.11371,0.82283 -1.1806,1.78869 -0.0201,0.29104 -0.22767,0.48948 -0.46114,0.44098 -0.23347,-0.0485 -0.4245,0.0875 -0.4245,0.30231 v 0.39053 l -0.56182,-0.21558 -0.56179,-0.21559 -0.18489,0.70702 c -0.1017,0.38886 -0.40449,0.707 -0.67291,0.707 h -0.48803 l -0.0312,0.97014 c -0.0172,0.53359 -0.0904,1.74795 -0.16285,2.6986 l -0.13169,1.72841 0.69202,0.97187 c 0.3806,0.53451 0.69202,1.15292 0.69202,1.37425 0,0.22132 1.06876,1.45031 2.375,2.7311 l 2.37501,2.32868 2.47568,1.1748 2.47571,1.17481 2.29303,-0.0164 c 1.26119,-0.009 2.61057,-0.15282 2.99863,-0.31959 z m -6.06949,-1.49928 c -0.80983,-0.43657 -1.91341,-1.15094 -2.45237,-1.5875 -0.53895,-0.43657 -1.11357,-0.79375 -1.27693,-0.79375 -0.16335,0 -0.19891,-0.15875 -0.079,-0.3528 0.11993,-0.19402 -0.0294,-0.35277 -0.33195,-0.35277 -0.3025,0 -0.54999,-0.23812 -0.54999,-0.52917 0,-0.29104 -0.11906,-0.53017 -0.26458,-0.53138 -0.14552,0 -0.53502,-0.4775 -0.86553,-1.05834 -0.33052,-0.58086 -0.45368,-1.05611 -0.27366,-1.05611 0.18002,0 0.55943,0.44887 0.84312,0.99748 0.80502,1.55673 5.42663,4.99975 6.71123,4.99975 0.2562,0 0.66342,0.23813 0.90499,0.52917 l 0.43915,0.52917 h -0.66601 c -0.36631,0 -1.3286,-0.35719 -2.13847,-0.79375 z m 3.07086,-0.0882 c 0,-0.097 0.0794,-0.17637 0.1764,-0.17637 0.097,0 0.1764,0.0794 0.1764,0.17637 0,0.097 -0.0794,0.1764 -0.1764,0.1764 -0.097,0 -0.1764,-0.0794 -0.1764,-0.1764 z m 3.05742,-1.46989 c -0.36944,-0.36944 -0.27781,-0.98279 0.2558,-1.71254 l 0.49099,-0.67149 0.63508,0.51586 0.63505,0.51586 -0.28929,-0.48043 -0.28933,-0.48041 0.48618,-0.30794 c 0.80668,-0.51094 1.0153301,-0.36722 1.0153301,0.6994 v 1.01814 l -1.1998301,0.56936 c -1.36117,0.64592 -1.41745,0.65672 -1.73998,0.33419 z m -5.21586,-0.73496 c -0.023,-0.14552 -0.019,-0.3956 0.009,-0.55576 0.0279,-0.16012 -0.27086,-0.18912 -0.66377,-0.0644 l -0.71442,0.22675 v -0.37553 c 0,-0.58301 2.49131,-3.19979 3.04638,-3.19979 h 0.49483 l -0.23048,0.97015 c -0.12676,0.53356 -0.47191,1.24793 -0.76695,1.5875 -0.29506,0.33954 -0.38486,0.61735 -0.19957,0.61735 0.59576,0 1.18356,-0.82346 1.18356,-1.65806 0,-0.89419 0.61632,-1.10167 0.92019,-0.30978 0.21349,0.55634 -0.26765,1.61767 -1.11945,2.46949 -0.57055,0.57055 -1.88428,0.76642 -1.95919,0.2921 z m 3.92234,-3.24302 c 0,-0.18294 0.33319,-0.89731 0.74041,-1.5875 l 0.74038,-1.25489 -0.4758,-0.0111 -0.47582,-0.0111 0.70524,-0.5329 c 0.38788,-0.2931 1.10226,-0.48649 1.5875,-0.42976 l 0.88226,0.10316 0.11485,0.80994 0.11486,0.80995 -1.33033,1.21851 c -1.26002,1.15414 -2.60355,1.61131 -2.60355,0.88593 z m -12.14816,-2.03343 -0.24087,-0.63257 0.43836,0.43508 c 0.24109,0.23932 0.34949,0.52396 0.24087,0.63257 -0.10861,0.10864 -0.30588,-0.0872 -0.43836,-0.43508 z m 5.25942,-0.11893 c -0.18188,-0.29427 0.66963,-2.10114 0.99017,-2.10114 0.0453,0 0.57603,-0.14158 1.17936,-0.31461 l 1.09693,-0.31459 0.47628,0.29435 0.47625,0.29435 -0.93972,0.35726 c -0.51686,0.19651 -1.20444,0.76126 -1.52792,1.25497 -0.61269,0.93507 -1.36088,1.16123 -1.75135,0.52941 z m 5.04311,-2.17001 c -0.17552,-0.52652 0.53399,-2.64115 1.06397,-3.17114 l 0.3951,-0.3951 0.40402,0.8867 0.40402,0.88673 -0.57258,1.10722 c -0.57761,1.11699 -1.4351,1.46392 -1.69453,0.68559 z m 8.8129801,-1.24214 c -1.0587,-0.16039 -1.19771,-0.43696 -0.54678,-1.08788 0.62341,-0.62344 1.85364,-0.51518 2.52058,0.2218 1.02055,1.12768 0.69527,1.27039 -1.9738,0.86608 z m -14.3756801,-1.4892 c 0,-1.09721 4.56803,-2.60186 5.42041,-1.78541 l 0.30512,0.29226 -1.44465,0.91193 -1.44463,0.91197 h -1.41814 c -0.77996,0 -1.41811,-0.14883 -1.41811,-0.33075 z m -3.17553,-0.37513 -0.49604,-0.30655 0.48117,-0.89905 c 0.45754,-0.85495 1.63179,-1.52861 2.00827,-1.15213 0.5938,0.5938 -1.27368,2.80255 -1.9934,2.35773 z m 10.8834,-0.26424 c -0.0293,-0.14552 -0.1015,-0.74083 -0.16045,-1.32292 -0.0589,-0.58208 -0.21135,-1.65584 -0.33866,-2.38612 l -0.23154,-1.32778 0.43513,-0.5243 c 0.71483,-0.8613 2.37586,0.0448 1.97882,1.07947 -0.23011,0.59968 0.31282,0.76494 2.3386801,0.71187 l 1.67571,-0.0439 -0.0116,0.53983 c -0.006,0.29689 -0.32358,0.91414 -0.70472,1.37163 l -0.69299,0.83179 -0.5299901,-0.20335 c -0.29152,-0.11187 -0.53001,-0.44649 -0.53001,-0.74364 0,-0.29713 -0.22678,-0.54023 -0.50396,-0.54023 -0.27717,0 -0.77779,-0.27384 -1.11249,-0.60851 l -0.60851,-0.60852 0.24399,1.30061 0.244,1.30062 -0.719,0.719 c -0.39548,0.39547 -0.74298,0.59997 -0.77227,0.45445 z m -11.23564,-2.73405 c 0,-0.097 0.0794,-0.17637 0.17637,-0.17637 0.097,0 0.1764,0.0794 0.1764,0.17637 0,0.097 -0.0794,0.1764 -0.1764,0.1764 -0.097,0 -0.17637,-0.0794 -0.17637,-0.1764 z m 7.17314,-4.64489 c 0.12936,-0.12935 0.34103,-0.12935 0.47038,0 0.12933,0.12936 0.0236,0.23519 -0.23519,0.23519 -0.25871,0 -0.36454,-0.10583 -0.23519,-0.23519 z m 6.58519,21.57823 c 0,-0.097 -0.0794,-0.17637 -0.1764,-0.17637 -0.097,0 -0.17639,0.0794 -0.17639,0.17637 0,0.097 0.0794,0.17639 0.17639,0.17639 0.097,0 0.1764,-0.0794 0.1764,-0.17639 z m 11.58968005,-0.34597 c 0.26463,0.26463 1.46309005,-0.93925 1.46309005,-1.46974 v -0.47162 l -1.49931005,0.596 c -2.31208995,0.91911 -3.28652995,2.0781 -1.25806995,1.49636 0.61771995,-0.17717 1.20014995,-0.24511 1.29428995,-0.151 z m -10.88414005,-0.007 c 0,-0.097 -0.0794,-0.1764 -0.17637,-0.1764 -0.097,0 -0.1764,0.0794 -0.1764,0.1764 0,0.097 0.0794,0.1764 0.1764,0.1764 0.097,0 0.17637,-0.0794 0.17637,-0.1764 z m -21.51944,-2.11667 c 0,-0.097 -0.0794,-0.1764 -0.17639,-0.1764 -0.097,0 -0.17637,0.0794 -0.17637,0.1764 0,0.097 0.0794,0.1764 0.17637,0.1764 0.097,0 0.17639,-0.0794 0.17639,-0.1764 z m 34.1393001,-0.29252 c 0.52567,-0.003 0.89429,-1.2219 0.72676,-2.40562 l -0.11745,-0.82963 -0.74745,-0.0378 -0.74745,-0.0378 -0.59542005,1.00793 c -0.63579,1.07635 -0.43069,1.21128 1.00902005,0.66391 l 0.90493,-0.34406 v 0.48271 c 0,0.55197 -0.87149,1.01359 -2.02264005,1.07137 -0.43336,0.0217 -0.98898,0.24503 -1.23473,0.49618 l -0.44679995,0.45664 1.41109995,-0.26117 c 0.7761,-0.14364 1.61317005,-0.26183 1.86013005,-0.26265 z m -0.27263,-2.52963 c 0,-0.097 0.0794,-0.17637 0.1764,-0.17637 0.097,0 0.17637,0.0794 0.17637,0.17637 0,0.097 -0.0794,0.1764 -0.17637,0.1764 -0.097,0 -0.1764,-0.0794 -0.1764,-0.1764 z m -35.1502101,-0.70554 c -0.11168,-0.29104 -0.33983,-0.52916 -0.50702,-0.52916 -0.16717,0 -0.21257,0.23812 -0.10089,0.52916 0.11168,0.29104 0.33983,0.52917 0.50702,0.52917 0.16717,0 0.21257,-0.23813 0.10089,-0.52917 z m 36.2085401,-1.65044 v -0.69302 l -0.52916,0.52916 c -0.29104,0.29104 -0.52917,0.69427 -0.52917,0.89607 0,0.20179 0.23813,0.27553 0.52917,0.16385 0.29104,-0.11168 0.52916,-0.5149 0.52916,-0.89606 z m -36.6888901,0.59211 c 0,-0.097 -0.0794,-0.1764 -0.17637,-0.1764 -0.097,0 -0.1764,0.0794 -0.1764,0.1764 0,0.097 0.0794,0.17637 0.1764,0.17637 0.097,0 0.17637,-0.0794 0.17637,-0.17637 z m 37.2061801,-2.27992 0.62661,-0.69244 -0.23436,-0.61071 -0.23435,-0.61074 -0.49254,0.94936 c -0.27088,0.52215 -0.59092,1.10855 -0.71118,1.30315 -0.38946,0.63013 0.40058,0.37433 1.04582,-0.33862 z m 4.62976,-1.28658 c 0.658204,-0.31235 1.118554,-0.6944 1.022964,-0.84905 -0.0956,-0.15465 0.12091,-0.2041 0.48104,-0.10994 l 0.6548099,0.17124 1.25532,-1.46653 c 0.6904,-0.80661 1.48921,-1.9495 1.77509,-2.53979 l 0.51977,-1.07323 -0.0702,-4.08051 -0.0702,-4.08051 -0.41891,-0.13962 c -0.2304,-0.0768 -0.41892,-0.29377 -0.41892,-0.48215 0,-0.18838 -0.4613,-0.83611 -1.02512,-1.43941 -0.56381,-0.60328 -0.94192,-1.31371 -0.84022,-1.57872 l 0.1849,-0.48186 0.43359,0.59299 0.4336,0.59295 0.20924,-0.33853 c 0.32874,-0.53194 -2.3004199,-4.42066 -3.9344599,-5.81935 -2.337684,-2.00097 -10.821814,-5.9504 -11.664194,-5.42978 -0.18523,0.11446 -1.21959,0.0697 -2.29862,-0.0995 l -1.9618,-0.30766 -0.39844,0.48009 -0.39846,0.48011 -3.7456801,-0.0924 -3.74571,-0.0924 -1.72505,1.03256 c -0.94877,0.56793 -1.79568,1.30265 -1.88199,1.63269 -0.1606,0.61418 -1.4983,1.39168 -2.39437,1.39168 -0.66098,0 -1.28635,1.20796 -1.00499,1.9412 l 0.22301,0.58118 -0.66524,-0.11467 -0.66527,-0.11464 -0.63851,2.46943 -0.63855,2.46944 0.28575,1.56123 c 0.30242,1.65219 0.65863,1.99011 1.52048,1.44243 l 0.52917,-0.33629 -0.44098,-0.71154 c -0.52848,-0.85275 -0.5814,-2.1322 -0.0882,-2.1322 0.19402,0 0.35277,0.37743 0.35277,0.83873 0,1.53215 1.22349,1.86095 3.3514,0.90061 1.43251,-0.64648 9.48047,-1.80199 10.3164201,-1.48121 0.61648,0.23659 0.55599,0.8002 -0.0859,0.8002 -0.2910401,0 -0.5291601,0.15875 -0.5291601,0.35277 0,0.19402 0.6826201,0.35277 1.5169301,0.35277 0.83431,0 1.66775,0.1451 1.85208,0.32245 0.18434,0.17735 1.7639,0.49636 3.51015,0.7089 3.20047995,0.38954 5.91373,1.14435 6.85424,1.90677 l 0.5098,0.41328 -0.26151,-0.70557 -0.26149,-0.70553 0.59571,0.58925 c 0.32766,0.32409 0.64453,1.19721 0.70414,1.94027 0.59444,7.40852 0.49921,7.15745 2.71809,7.16645 l 1.334004,0.005 0.1945,0.50689 0.19452,0.50689 0.58817,-0.18693 0.5881699,-0.18695 -0.8819699,0.73054 c -0.48506,0.40179 -1.15974,0.73408 -1.49928,0.7384 -0.339574,0.004 -0.617384,0.22394 -0.617384,0.48807 v 0.48025 l -0.80635,-0.15415 -0.80634,-0.15412 v 0.73221 c 0,0.87987 0.5743,0.92329 2.17363,0.16436 z m 1.673334,-1.78398 c 0.12936,-0.12936 0.34102,-0.12936 0.4703799,0 0.12933,0.12935 0.0235,0.23518 -0.2351899,0.23518 -0.25871,0 -0.36454,-0.10583 -0.23519,-0.23518 z m 1.2935199,-1.70508 c 0,-0.097 0.0794,-0.1764 0.17637,-0.1764 0.097,0 0.1764,0.0794 0.1764,0.1764 0,0.097 -0.0794,0.17639 -0.1764,0.17639 -0.097,0 -0.17637,-0.0794 -0.17637,-0.17639 z m -1.6159899,-0.67697 c -0.4037,-0.2128 -0.66829,-0.58409 -0.58796,-0.8251 0.0804,-0.24101 -0.1225,-0.4382 -0.45074,-0.4382 h -0.596804 l 0.22535,-0.97015 0.225344,-0.97015 -0.390344,0.52917 -0.39036,0.52916 0.14269,-0.52916 c 0.0785,-0.29104 0.48744,-0.57989 0.908794,-0.64188 l 0.76612,-0.11274 v 0.53353 c 0,0.29345 0.32494,1.08426 0.72211,1.75739 0.7856499,1.33162 0.5771299,1.74495 -0.5742,1.13813 z m 2.6743299,-0.20497 c 0,-0.25871 0.10583,-0.36454 0.23518,-0.23519 0.12933,0.12936 0.12933,0.34102 0,0.47035 -0.12935,0.12936 -0.23518,0.0236 -0.23518,-0.23516 z m -1.05834,-0.1764 c 0,-0.097 0.0794,-0.1764 0.17637,-0.1764 0.097,0 0.1764,0.0794 0.1764,0.1764 0,0.097 -0.0794,0.1764 -0.1764,0.1764 -0.097,0 -0.17637,-0.0794 -0.17637,-0.1764 z m -3.5277939,-0.35277 c 0,-0.097 0.0794,-0.17639 0.17639,-0.17639 0.097,0 0.1764,0.0794 0.1764,0.17639 0,0.097 -0.0794,0.17637 -0.1764,0.17637 -0.097,0 -0.17639,-0.0794 -0.17639,-0.17637 z m -0.63678,-1.05833 0.013,-1.05833 0.16264,0.62407 c 0.0894,0.34324 0.0836,0.81949 -0.0132,1.05833 -0.0966,0.23884 -0.16981,-0.042 -0.16261,-0.62407 z m -1.1023,-0.61738 0.0249,-1.14652 0.30318,0.70557 c 0.41881,0.97462 0.41881,1.5875 0,1.5875 -0.19402,0 -0.34163,-0.51594 -0.32797,-1.14655 z m 1.03354,-3.03281 c 0,-0.41775 0,-0.8786 0,-1.02412 -0.003,-0.39217 1.871744,-0.38394 2.382554,0.0106 0.24251,0.18727 0.44095,0.55917 0.44095,0.82648 0,0.65921 -1.02947,0.61883 -1.2863,-0.0505 l -0.20584,-0.53641 -0.665034,0.76678 -0.66503,0.76679 z m 0.52917,-3.58177 c -0.11994,-0.19402 -0.0499,-0.35277 0.15554,-0.35277 0.20551,0 0.37362,0.15875 0.37362,0.35277 0,0.19404 -0.07,0.35279 -0.15557,0.35279 -0.0856,0 -0.25369,-0.15875 -0.37359,-0.35279 z m -4.17455,-0.58796 c -0.12935,-0.12935 -0.23519,-0.39923 -0.23519,-0.59973 v -0.36452 l 0.41746,0.41744 c 0.22961,0.2296 0.33544,0.49948 0.23519,0.59973 -0.10025,0.10025 -0.2881,0.0764 -0.41746,-0.0529 z m 6.475024,-4.92599 -0.87453,-0.83605 h 0.66874 c 0.36779,0 0.56536,0.10337 0.43902,0.22971 -0.12631,0.12634 0.0454,0.43085 0.3816299,0.6767 0.33624,0.24587 0.53221,0.51871 0.43548,0.60634 -0.0967,0.0876 -0.5693599,-0.21688 -1.0503399,-0.6767 z m -1.771314,-1.71799 c 0,-0.097 0.0794,-0.1764 0.17637,-0.1764 0.097,0 0.176404,0.0794 0.176404,0.1764 0,0.097 -0.0794,0.1764 -0.176404,0.1764 -0.097,0 -0.17637,-0.0794 -0.17637,-0.1764 z m 1.058344,0 c 0,-0.097 0.0794,-0.1764 0.17637,-0.1764 0.097,0 0.17639,0.0794 0.17639,0.1764 0,0.097 -0.0794,0.1764 -0.17639,0.1764 -0.097,0 -0.17637,-0.0794 -0.17637,-0.1764 z m -2.822244,-0.52917 c 0,-0.19401 0.15875,-0.35276 0.35277,-0.35276 0.19405,0 0.3528,0.15875 0.3528,0.35276 0,0.19402 -0.15875,0.35277 -0.3528,0.35277 -0.19402,0 -0.35277,-0.15875 -0.35277,-0.35277 z m -2.93055,-1.49582 c -0.73866,-0.38399 -1.25521,-0.78599 -1.14789,-0.89334 0.24384,-0.24381 3.01053,1.05789 3.01606,1.41902 0.006,0.36938 -0.32591,0.27606 -1.86817,-0.52568 z m -4.47778,-2.03194 c 0,-0.44202 0.37439,-0.44202 1.05832995,0 l 0.52917,0.34197 -0.79375,0.005 c -0.43655995,0.003 -0.79374995,-0.15335 -0.79374995,-0.34737 z m -4.23333,-1.05834 c 0,-0.19404 0.14938,-0.35279 0.33194,-0.35279 0.18259,0 0.43008,0.15875 0.54999,0.35279 0.11994,0.19402 -0.0294,0.35277 -0.33194,0.35277 -0.3025,0 -0.54999,-0.15875 -0.54999,-0.35277 z m -11.2889001,-0.52916 c 0,-0.097 0.0794,-0.1764 0.1764,-0.1764 0.097,0 0.1764,0.0794 0.1764,0.1764 0,0.097 -0.0794,0.17637 -0.1764,0.17637 -0.097,0 -0.1764,-0.0794 -0.1764,-0.17637 z m 23.8933601,24.65768 c -0.11724,-0.11724 -0.42151,-0.12975 -0.67617,-0.0279 l -0.46302,0.18529 0.67617,0.0279 c 0.37187,0.0153 0.58023,-0.068 0.46302,-0.18529 z m 1.153874,-0.84518 c 0,-0.19405 -0.168124,-0.3528 -0.373594,-0.3528 -0.20548,0 -0.27548,0.15875 -0.15558,0.3528 0.11991,0.19402 0.28803,0.35277 0.3736,0.35277 0.0856,0 0.155574,-0.15875 0.155574,-0.35277 z m -6.871204,-1.7639 c 2.62649,0 0.62698,-8.11247 -2.21282,-8.9779 l -0.79375,-0.24188 v 0.55295 c 0,0.68869 0.0259,0.6902 -1.83279,-0.10654 -1.45643,-0.62431 -6.28111,-1.20118 -6.28111,-0.75102 0,0.28405 1.97163,0.95792 3.70417,1.26605 4.48151,0.79701 10.2435,5.7889 6.68194995,5.7889 h -0.50835 v 1.70508 c 0,1.76507 0.44355,2.80387 0.64191,1.50339 0.062,-0.40645 0.33234,-0.73903 0.60079005,-0.73903 z m -34.2762201,-1.23473 c 0.11168,-0.29104 0.0493,-0.52917 -0.13866,-0.52917 -0.18794,0 -0.34169,0.23813 -0.34169,0.52917 0,0.29104 0.0624,0.52916 0.13864,0.52916 0.0763,0 0.23003,-0.23812 0.34171,-0.52916 z m 6.10484,-0.76436 c -0.12935,-0.12935 -0.23519,-0.0236 -0.23519,0.23519 0,0.25871 0.10584,0.36454 0.23519,0.23519 0.12933,-0.12936 0.12933,-0.34102 0,-0.47038 z m 0.70554,-0.70554 c -0.12936,-0.12935 -0.23519,-0.0235 -0.23519,0.23519 0,0.25869 0.10583,0.36452 0.23519,0.23516 0.12935,-0.12932 0.12935,-0.34099 0,-0.47035 z m -0.58796,-2.76344 c 0,-0.097 -0.0794,-0.17637 -0.1764,-0.17637 -0.097,0 -0.17637,0.0794 -0.17637,0.17637 0,0.097 0.0794,0.1764 0.17637,0.1764 0.097,0 0.1764,-0.0794 0.1764,-0.1764 z m 2.77553,-1.23933 c 1.1783,-0.58462 3.13928,-1.31609 4.35772,-1.62549 1.21846,-0.30938 2.45348,-0.71385 2.74452,-0.89879 l 0.52917,-0.33624 -1.05834,0.22215 c -0.58208,0.12216 -1.85208,0.34041 -2.8222,0.48501 -1.68902,0.25169 -6.17363,2.39447 -6.17363,2.94978 0,0.39143 0.0848,0.36354 2.42276,-0.79642 z m 39.557804,-2.6412 c 0,-0.097 -0.0794,-0.1764 -0.17639,-0.1764 -0.097,0 -0.17637,0.0794 -0.17637,0.1764 0,0.097 0.0794,0.17637 0.17637,0.17637 0.097,0 0.17639,-0.0794 0.17639,-0.17637 z m -28.398604,-0.52917 c -0.11993,-0.19405 -0.60555,-0.3528 -1.07915,-0.3528 -0.47363,0 -0.86114,0.15875 -0.86114,0.3528 0,0.19402 0.48561,0.35277 1.07915,0.35277 h 1.07916 z m 28.045844,-0.52917 c 0,-0.097 -0.0794,-0.17639 -0.1764,-0.17639 -0.097,0 -0.1764,0.0794 -0.1764,0.17639 0,0.097 0.0794,0.17637 0.1764,0.17637 0.097,0 0.1764,-0.0794 0.1764,-0.17637 z m -26.811134,-1.05833 c 0,-0.097 -0.0794,-0.1764 -0.17637,-0.1764 -0.097,0 -0.1764,0.0794 -0.1764,0.1764 0,0.097 0.0794,0.17637 0.1764,0.17637 0.097,0 0.17637,-0.0794 0.17637,-0.17637 z m -10.23054,-9.525 c 0,-0.097 -0.0794,-0.1764 -0.1764,-0.1764 -0.097,0 -0.1764,0.0794 -0.1764,0.1764 0,0.097 0.0794,0.17637 0.1764,0.17637 0.097,0 0.1764,-0.0794 0.1764,-0.17637 z m 0.94073,-1.11715 c -0.12936,-0.12936 -0.34103,-0.12936 -0.47038,0 -0.12933,0.12935 -0.0236,0.23519 0.23519,0.23519 0.25871,0 0.36454,-0.10584 0.23519,-0.23519 z m 26.5657201,-0.48414 c -0.28543,-0.18052 -0.75708,-0.32501 -1.04812,-0.32109 l -0.52916,0.007 0.8814,0.48781 c 0.94721,0.52419 1.55827,0.37158 0.69588,-0.1738 z m -1.93008,-0.69178 c -0.11991,-0.19401 -0.40709,-0.35036 -0.63818,-0.34737 l -0.42015,0.005 0.52916,0.34197 c 0.67773,0.43799 0.79987,0.43799 0.52917,0 z"
       id="path5869" />
  </g>
</svg>
