<?xml version="1.0" encoding="UTF-8" standalone="no"?>
<!-- Created with Inkscape (http://www.inkscape.org/) -->

<svg
   width="54.215034mm"
   height="69.769417mm"
   viewBox="0 0 54.215034 69.769417"
   version="1.1"
   id="svg1"
   xmlns="http://www.w3.org/2000/svg"
   xmlns:svg="http://www.w3.org/2000/svg">
  <defs
     id="defs1" />
  <g
     id="layer1"
     transform="translate(125.94753,913.78433)">
    <path
       style="fill:#000000;stroke-width:0.264583"
       d="m -113.53666,-844.17782 c -0.48509,-0.16244 -2.12336,-0.40102 -3.64062,-0.53019 l -2.75867,-0.23486 -1.12189,-0.97285 c -0.61704,-0.53508 -1.58967,-1.19518 -2.16138,-1.4669 l -1.03952,-0.49404 -0.82257,-1.6025 c -0.99208,-1.93274 -1.12469,-3.80283 -0.43537,-6.14005 l 0.51472,-1.74532 1.9403,-2.12893 c 1.06714,-1.17091 2.05136,-2.29052 2.18715,-2.48801 0.13578,-0.19749 0.77078,-0.99408 1.4111,-1.77019 1.50397,-1.8229 2.52272,-3.94248 3.47594,-7.23195 0.82627,-2.85143 1.9095,-5.12206 3.06205,-6.4186 3.18116,-3.57861 4.40092,-4.80011 6.09153,-6.10032 2.34225,-1.80134 4.62351,-3.00147 5.71857,-3.00843 0.44431,-0.003 1.522198,-0.25542 2.395323,-0.56132 0.873125,-0.3059 2.089811,-0.55759 2.70375,-0.55931 l 1.116251,-0.003 0.259662,-3.40431 c 0.142822,-1.87237 0.275511,-4.10537 0.294852,-4.96222 l 0.03519,-1.55793 1.001024,-0.33384 1.000998,-0.33386 0.389335,0.38934 c 0.214127,0.21413 0.377322,1.18449 0.362664,2.15635 l -0.02664,1.76702 h 0.446511 c 0.245612,0 0.892968,-0.58529 1.438592,-1.30064 1.537573,-2.01586 4.8582,-5.07801 5.316088,-4.90229 0.504428,0.19356 5.235442,-4.3248 6.783043,-6.47811 0.620024,-0.86271 1.395465,-1.60791 1.723178,-1.65601 0.774832,-0.11372 1.497171,-1.11838 1.497171,-2.08237 0,-0.91118 1.37115,-3.03472 2.116667,-3.27811 l 0.529166,-0.17276 -0.465613,0.56417 c -0.25609,0.3103 -0.758799,1.72517 -1.11715,3.14418 -3.18823,12.62509 -7.923081,20.02636 -13.45647,21.03448 l -1.54133,0.2808 -0.734034,-0.37457 c -0.403727,-0.20601 -0.668311,-0.57177 -0.587957,-0.81278 0.207513,-0.62256 -0.104352,-0.5488 -1.50323,0.35554 -0.675322,0.43656 -1.158769,0.98058 -1.074367,1.20893 0.08443,0.22834 -0.0752,0.60497 -0.354727,0.83694 -0.837697,0.69523 -0.60415,0.95015 1.518788,1.65779 l 2.026973,0.67566 0.0027,0.67666 c 0,0.37216 0.187642,0.64106 0.415184,0.59756 0.227515,-0.0435 1.529397,1.20366 2.89306,2.77147 l 2.47941,2.85055 1.075664,2.58388 1.07569,2.58387 0.0053,1.87661 c 0.0029,1.03213 0.147743,2.10148 0.321707,2.37632 l 0.316309,0.49972 -0.314775,0.82789 c -0.173117,0.45534 -0.465746,1.76539 -0.650266,2.91122 l -0.335518,2.08333 -1.170729,1.5598 c -4.119113,5.48793 -7.421854,8.74212 -12.076906,11.89938 -2.81223,1.90739 -12.072698,4.91957 -15.000188,4.87917 -0.72951,-0.0101 -1.62837,0.0653 -1.99752,0.16755 -0.36912,0.10222 -1.06802,0.0529 -1.55308,-0.10949 z m 7.05553,-1.93063 c 2.11318,-0.26659 5.94517,-1.53167 7.11002,-2.34729 0.515038,-0.3606 1.087517,-0.65564 1.272196,-0.65564 0.184679,0 1.083865,-0.57121 1.998186,-1.26934 0.914321,-0.69814 1.75477,-1.17697 1.867667,-1.06408 0.112898,0.1129 0.570706,-0.18902 1.017323,-0.67093 0.446617,-0.48191 0.938689,-0.8736 1.09347,-0.8704 0.455798,0.009 5.749475,-5.74263 5.749475,-6.24728 0,-0.25372 0.15875,-0.46131 0.352796,-0.46131 0.194019,0 0.352769,-0.17393 0.352769,-0.38651 0,-0.21258 0.328321,-0.84758 0.729588,-1.41111 0.401267,-0.56353 0.642091,-1.0246 0.535173,-1.0246 -0.106892,0 0.120412,-0.56045 0.505142,-1.24545 0.384757,-0.685 0.704586,-1.67719 0.710751,-2.20486 0.0061,-0.52768 0.244316,-1.26756 0.529166,-1.6442 0.284877,-0.37663 0.517949,-1.36101 0.517949,-2.18749 0,-1.75902 -0.74168,-5.44553 -0.965386,-4.79844 -0.08427,0.24374 -0.291465,0.35772 -0.460454,0.25329 -0.168963,-0.10444 -0.226113,-0.40125 -0.127,-0.65958 0.09914,-0.25833 -0.304668,-1.2921 -0.897334,-2.29728 -0.592693,-1.00518 -1.077595,-1.97936 -1.077595,-2.16485 0,-0.18549 -0.119063,-0.33814 -0.264584,-0.33922 -0.145521,-10e-4 -1.018063,-0.71546 -1.938946,-1.5875 l -1.674389,-1.58553 h -0.745119 -0.74512 l 0.223308,-0.88969 0.223282,-0.88969 -0.533479,-0.20472 c -0.293397,-0.11259 -1.13075,-0.0639 -1.860735,0.10817 l -1.327283,0.31289 -0.569409,1.20071 -0.56941,1.20071 -0.382614,-0.71494 c -0.210423,-0.39321 -0.30308,-1.01841 -0.205899,-1.38932 l 0.176742,-0.6744 -2.921132,0.0711 -2.921135,0.0711 -0.39941,0.54621 c -0.21966,0.30042 -0.62497,0.54621 -0.9007,0.54621 -0.67072,0 -4.5362,2.43455 -4.5362,2.85698 0,0.18323 -0.39761,0.51433 -0.88363,0.73576 -1.0142,0.4621 -4.05728,4.73196 -4.05606,5.69122 0,0.35249 -0.38754,1.15006 -0.8622,1.77237 -0.47466,0.62231 -1.37274,2.47703 -1.99572,4.1216 -1.1969,3.15956 -2.60639,5.51233 -3.94155,6.57935 -0.44329,0.35426 -1.27135,1.27911 -1.84018,2.05522 -0.5688,0.77612 -1.31802,1.69511 -1.66492,2.04222 -0.34689,0.34711 -0.63074,0.89023 -0.63074,1.20694 0,0.31672 -0.27781,0.88282 -0.61735,1.25802 l -0.61735,0.68218 0.007,1.81504 c 0.004,0.99828 0.11684,2.21537 0.25109,2.70466 l 0.2441,0.88961 1.89794,0.96102 c 1.04388,0.52856 2.72909,1.11864 3.74493,1.31129 1.01585,0.19265 2.03317,0.47112 2.26068,0.61882 0.49607,0.32201 5.20301,0.70951 6.94008,0.57134 0.6791,-0.054 1.9491,-0.18833 2.82223,-0.29848 z m 16.580568,-38.80988 c 0,-0.097 -0.07938,-0.17639 -0.176397,-0.17639 -0.097,0 -0.176372,0.0794 -0.176372,0.17639 0,0.097 0.07937,0.17639 0.176372,0.17639 0.09702,0 0.176397,-0.0794 0.176397,-0.17639 z m 5.021792,-6.23143 c 4.197244,-2.52225 7.001933,-6.72714 8.746146,-13.1125 0.981313,-3.59246 0.829786,-3.62402 -1.628537,-0.33915 -1.131808,1.51236 -2.222765,2.81563 -2.424324,2.89616 -0.20156,0.0805 -0.787347,0.59647 -1.30175,1.14653 -0.514403,0.55006 -1.100905,1.00011 -1.303311,1.00011 -0.563192,0 -4.993349,4.55572 -4.993349,5.13488 0,0.92674 -0.04403,1.02987 -0.943001,2.20849 l -0.892228,1.16975 0.653044,0.49472 c 1.013725,0.76799 2.070153,0.61317 4.08731,-0.59899 z"
       id="path5948" />
  </g>
</svg>
