<?xml version="1.0" encoding="UTF-8" standalone="no"?>
<!-- Created with Inkscape (http://www.inkscape.org/) -->

<svg
   width="56.003716mm"
   height="60.284771mm"
   viewBox="0 0 56.003716 60.284771"
   version="1.1"
   id="svg1"
   xmlns="http://www.w3.org/2000/svg"
   xmlns:svg="http://www.w3.org/2000/svg">
  <defs
     id="defs1" />
  <g
     id="layer1"
     transform="translate(36.518358,904.52408)">
    <path
       id="path5955"
       style="fill:#000000;stroke-width:0.264583"
       d="m 1.7599181,-904.52403 c -0.143987,2.6e-4 -0.279877,0.0718 -0.392219,0.22686 -0.125941,0.17379 -0.54625905,0.37088 -0.93429605,0.43821 -1.46946995,0.25497 -3.57129295,3.36273 -4.20854195,6.22288 l -0.392219,1.75958 0.330227,2.20969 c 0.454184,3.03903 0.18243,3.06314 -2.418477,0.21342 l -2.263934,-2.48099 -2.3853771,-0.80563 -2.385404,-0.80564 -2.839614,0.19379 -2.839614,0.1943 -2.490285,0.86558 c -3.295042,1.14548 -4.579435,1.83579 -5.649278,3.03651 -0.488235,0.54797 -1.793583,1.61228 -2.9006,2.36523 -1.107017,0.75295 -2.489041,1.80576 -3.071125,2.33939 -0.582083,0.53363 -1.395862,0.97124 -1.808665,0.97204 -0.412829,7.9e-4 -0.948055,0.23967 -1.189593,0.53071 l -0.439261,0.52917 h 0.687308 c 0.377984,0 1.059974,0.39705 1.515666,0.88212 0.455718,0.48507 0.986842,0.8816 1.180279,0.8816 0.193437,0 0.602165,0.22113 0.908474,0.49144 0.306334,0.27031 1.707832,0.60412 3.114542,0.74155 l 2.557992,0.25012 v -0.36897 c 0,-0.60498 -1.497357,-1.46658 -2.548176,-1.46658 -0.538929,0 -1.297119,-0.31784 -1.685157,-0.7059 -0.388065,-0.38805 -0.904161,-0.70759 -1.146705,-0.71055 -0.242517,-0.003 -0.654949,-0.14137 -0.916225,-0.30696 l -0.474901,-0.30075 2.768309,-1.71411 c 2.817654,-1.74492 3.894984,-2.59064 5.929339,-4.65191 l 1.142577,-1.15755 3.180159,-0.85112 c 1.748949,-0.46804 3.637783,-0.79161 4.197694,-0.71882 6.1152091,0.79505 6.6217801,0.98647 9.2216551,3.48093 2.204429,2.11505 2.037239,2.46778 -0.909505,1.91978 l -2.2101971,-0.41083 -1.155488,0.41806 c -0.635741,0.22988 -1.432613,0.41807 -1.770433,0.41807 -1.785382,0 -5.941642,1.70437 -7.504986,3.07784 -1.816311,1.59572 -2.34561,2.01159 -4.097417,3.21686 -0.917257,0.63109 -1.668118,1.34101 -1.668118,1.57768 0,0.23668 -0.369517,0.98319 -0.821664,1.65882 -1.40626,2.10136 -2.595218,6.69352 -2.395696,9.25421 l 0.103346,1.32292 h -0.589121 -0.588592 l 0.16174,0.4408 c 0.08893,0.24253 0.319643,0.40819 0.513159,0.36794 l 0.351923,-0.0734 -0.177271,1.57252 -0.177245,1.57251 h 0.398939 c 0.21926,0 0.398436,0.38731 0.398436,0.86093 0,0.47362 0.146473,0.95178 0.32557,1.06247 0.179096,0.11069 0.428334,0.6694 0.553958,1.24127 0.125598,0.57186 0.61431,1.83918 1.085718,2.81636 0.471408,0.97719 0.8568,1.90073 0.8568,2.05259 0,0.15186 0.277998,0.5425 0.617537,0.86816 0.339567,0.32567 1.173004,1.16535 1.852084,1.86552 1.36644,1.40885 4.977447,4.0459 6.35,4.63745 0.485087,0.20905 1.806151,0.80801 2.935737,1.33066 1.129612,0.52266 2.828581,1.13417 3.775472,1.35909 l 1.7218551,0.40877 1.692407,1.85466 c 1.778,1.94825 2.221574,2.21426 2.221574,1.33119 v -0.53589 l 0.820632,0.20567 0.820102,0.20619 1.317229,-1.45831 c 0.724587,-0.802 1.60914195,-1.51416 1.96577395,-1.58284 0.356632,-0.0687 1.26018405,-0.50948 2.00763205,-0.97927 0.747475,-0.4698 2.379821,-1.20605 3.627173,-1.63608 2.837837,-0.97836 3.368117,-1.26346 4.8963269,-2.63343 1.93048,-1.7306 2.43443,-2.30559 4.99144,-5.69061 l 2.39829,-3.175 0.71004,-2.4691 c 1.27389,-4.4312 1.27952,-5.35043 0.0641,-10.14253 -0.18452,-0.72761 -0.47591,-1.91823 -0.64751,-2.64583 -0.17159,-0.72761 -0.60799,-2.1165 -0.96997,-3.08664 l -0.65836,-1.76423 -1.71513,-1.73168 c -0.94335,-0.95258 -1.74808,-1.95785 -1.78854,-2.23345 -0.0982,-0.66948 -0.89101,-1.13802 -1.9363,-1.14464 -0.46979,-0.003 -1.1049499,-0.22188 -1.4112799,-0.48627 -1.14173,-0.98545 -8.99427505,-2.25375 -9.44438405,-1.52549 -0.319299,0.51668 0.949219,1.31025 1.98800005,1.24385 2.402787,-0.15357 7.336814,1.18005 8.0305039,2.17041 0.2731,0.38992 0.68625,0.71392 0.91778,0.72037 0.52586,0.0147 2.00814,1.22899 2.00814,1.64486 0,0.1696 0.47183,0.58692 1.04852,0.92759 l 1.04851,0.61909 0.34674,1.30896 c 0.1905,0.71982 0.53229,2.10255 0.75964,3.07268 0.22736,0.97014 0.67358,2.31969 0.99169,2.99879 l 0.57825,1.23455 -0.20463,3.88038 -0.20516,3.8809 -0.97618,2.11667 c -1.98501,4.30448 -2.2588,4.76831 -3.93877,6.67401 l -1.71461,1.9451 -0.27286,-0.42892 -0.27234,-0.42943 -0.006,0.61754 -0.005,0.61753 h -0.7384499 -0.73845 l -0.1633,0.62477 c -0.22569,0.86304 -3.426728,2.21323 -5.767629,2.43292 l -1.94042705,0.18191 -1.169961,1.11414 c -0.64338795,0.61274 -1.48296295,1.61875 -1.86552395,2.23552 l -0.695564,1.12138 -1.075901,0.23668 -1.076431,0.23616 -1.163214,-1.26969 c -0.639604,-0.69828 -1.466559,-1.26969 -1.83814,-1.26969 -0.371607,0 -0.826452,-0.13725 -1.010788,-0.30489 -0.184335,-0.16765 -1.1268861,-0.49646 -2.0944411,-0.73122 -0.967582,-0.23477 -1.858169,-0.58705 -1.979216,-0.7829 -0.121047,-0.19585 -1.234546,-0.71181 -2.474277,-1.14618 -2.970372,-1.04074 -4.787503,-2.22708 -7.49255,-4.89118 l -2.23139,-2.1978 -0.618067,-1.76371 c -0.339752,-0.97014 -0.762132,-2.03969 -0.938953,-2.3766 -0.176821,-0.33692 -0.321416,-0.98699 -0.321416,-1.44488 0,-0.45789 -0.25662,-1.34639 -0.569992,-1.97455 l -0.569992,-1.14257 -0.01614,-2.53266 c -0.009,-1.39319 0.167931,-2.87798 0.393277,-3.29902 0.225293,-0.42105 0.409787,-1.41049 0.409787,-2.19935 v -1.43454 h 0.393779 0.393753 l -0.184467,-0.70538 c -0.101468,-0.38806 -0.04048,-0.7059 0.135387,-0.7059 0.175842,0 0.319881,-0.23813 0.319881,-0.52917 0,-0.29104 0.119063,-0.52903 0.264583,-0.52917 0.145521,-1.3e-4 0.287999,-0.40733 0.31676,-0.90485 0.05988,-1.03523 0.496887,-1.60197 0.730726,-0.94723 0.200051,0.56017 0.804598,0.57725 0.804598,0.0227 0,-0.56945 1.428512,-2.05104 1.977654,-2.05104 0.244131,0 0.53639,-0.29052 0.64905,-0.64544 0.296571,-0.93444 5.012769,-3.51611 7.170631,-3.92534 1.014122,-0.19232 2.286027,-0.57876 2.826703,-0.85834 l 0.982874,-0.50798 2.2804961,0.14366 c 5.268569,0.33219 5.612765,0.45323 5.626524,1.98024 0.0029,0.32809 0.164094,0.6945 0.358113,0.81442 0.194046,0.11991 0.352954,-0.0186 0.352954,-0.30799 0,-0.28942 0.277469,-0.61424 0.617009,-0.72192 l 0.61753695,-0.19586 -0.0568299,-2.8236 -0.05633,-2.82411 0.65473805,-2.16318 c 0.360204,-1.1897 1.303311,-3.10775 2.09597595,-4.26279 l 1.441265,-2.10013 -0.232013,-1.2361 c -0.171,-0.91147 -0.67699,-1.54666 -1.109001,-1.54564 z m -2.20863605,3.53518 v 0.34365 c 0,0.18893 -0.47625,1.09443 -1.05833395,2.01228 -1.061402,1.67366 -1.370594,1.4733 -0.699187,-0.45268 0.197485,-0.56653 0.673735,-1.2264 1.058333,-1.46658 z m -2.29287895,4.23954 c 0.097,0 0.176212,0.0792 0.176212,0.17621 0,0.097 -0.07922,0.17622 -0.176212,0.17622 -0.09702,0 -0.176742,-0.0792 -0.176742,-0.17622 0,-0.097 0.07972,-0.17621 0.176742,-0.17621 z m 3.70622995,9.4728 -0.614442,0.11834 c -0.337926,0.0651 -0.667305,0.3939 -0.732261,0.73122 l -0.118321,0.6134 h 0.55499 0.555016 v 0.75499 c 0,0.41511 0.44825705,1.48667 0.99631505,2.38125 2.524469,4.12068 3.808545,10.3442 3.501602,16.9721 l -0.171556,3.70416 -0.959644,2.46962 c -0.945224,2.43181 -1.889522,4.66004 -2.215885,5.22965 -0.626401,1.09324 1.436634,-0.90451 2.271183,-2.19934 1.526064,-2.36773 2.228533,-4.40236 2.577624,-7.46311 l 0.310039,-2.71715 -0.507445,-3.12798 c -0.279241,-1.72028 -0.50792,-3.92155 -0.510566,-4.89169 l -0.0026,-1.76371 -0.983403,-2.46962 c -0.856219,-2.15014 -2.158339,-4.78491 -3.225113,-6.52622 -0.178276,-0.29104 -0.414628,-0.81865 -0.525039,-1.17254 z m 16.72197995,12.81524 c 0.0281,0.004 0.0591,0.0219 0.0915,0.0543 0.12936,0.12935 0.12936,0.34091 0,0.47026 -0.12935,0.12935 -0.23513,0.0236 -0.23513,-0.23513 0,-0.19403 0.0593,-0.30207 0.14366,-0.28939 z" />
  </g>
</svg>
