<?xml version="1.0" encoding="UTF-8" standalone="no"?>
<!-- Created with Inkscape (http://www.inkscape.org/) -->

<svg
   width="56.090088mm"
   height="63.232441mm"
   viewBox="0 0 56.090088 63.232441"
   version="1.1"
   id="svg1"
   xmlns="http://www.w3.org/2000/svg"
   xmlns:svg="http://www.w3.org/2000/svg">
  <defs
     id="defs1" />
  <g
     id="layer1"
     transform="translate(134.52117,729.35402)">
    <path
       style="fill:#000000;stroke-width:0.264583"
       d="m -112.03319,-667.23584 c -1.44624,-1.24063 -3.175,-2.17213 -3.175,-1.71079 0,0.58096 -6.63702,-5.80904 -9.06248,-8.72519 -0.61873,-0.74391 -2.105,-2.53926 -3.30285,-3.98966 l -2.17789,-2.6371 -1.43158,-3.00735 -1.43161,-3.00735 -0.0627,-3.70416 c -0.0345,-2.03729 -0.1769,-4.06136 -0.31641,-4.49792 l -0.25366,-0.79375 h 0.55293 0.55295 v -1.23472 c 0,-1.74596 -0.003,-1.73404 0.55422,-2.046 0.89651,-0.50171 0.53988,-0.86971 -1.14255,-1.17903 -1.86132,-0.34221 -2.35424,-1.02228 -1.0895,-1.50313 0.46694,-0.17753 1.13996,-0.77381 1.49561,-1.32508 0.35563,-0.55128 1.8664,-2.19294 3.35722,-3.64815 1.49082,-1.45521 2.9713,-3.05065 3.28993,-3.54542 0.31861,-0.49477 1.53041,-1.41016 2.69283,-2.0342 l 2.11354,-1.13461 2.83893,-0.53853 c 1.56144,-0.2962 3.46297,-0.46685 4.22563,-0.37923 l 1.38671,0.15931 0.31969,-0.4088 c 0.17585,-0.22484 0.609,-1.20255 0.96259,-2.17269 0.6428,-1.76371 4.84288,-7.58472 5.47264,-7.58472 0.18349,0 0.33361,-0.33073 0.33361,-0.73495 v -0.73496 l 0.44098,0.14089 c 0.24254,0.0775 0.70533,0.92415 1.02841,1.88148 l 0.58743,1.7406 0.70424,-0.10508 c 0.9525,-0.14212 1.29005,0.51408 0.61283,1.19131 -0.60405,0.60404 -0.7665,1.73402 -0.19889,1.38321 0.19405,-0.11992 0.3528,-0.0499 0.3528,0.15557 0,0.51456 -0.9665,0.47274 -1.14054,-0.0494 l -0.14097,-0.42294 -1.14345,0.8142 c -0.62889,0.44782 -1.05458,0.90308 -0.94599,1.01168 0.10861,0.10861 -0.0629,0.48519 -0.38114,0.83684 l -0.57864,0.63938 0.42788,0.51554 0.42786,0.51554 4.11874,-0.10999 4.118751,-0.10998 1.32291,0.65939 c 3.48507,1.73711 4.05736,2.06884 4.51012,2.61438 0.48831,0.58838 4.05426,2.98391 4.44179,2.98391 0.18442,0 2.86126,1.99145 3.30711,2.46033 0.097,0.10202 0.48445,0.35559 0.86095,0.56348 0.37651,0.20789 0.74692,0.56508 0.82315,0.79375 l 0.13859,0.41577 h -0.85715 c -0.47143,0 -1.39075,-0.2662 -2.04295,-0.59156 -0.65217,-0.32535 -1.70455,-0.60876 -2.33857,-0.6298 l -1.15279,-0.0383 -0.17706,0.46142 c -0.0974,0.25378 0.15814,0.79662 0.56785,1.20631 l 0.74488,0.74489 2.68668,-0.25574 c 1.47768,-0.14065 3.30833,-0.28102 4.06808,-0.31192 l 1.38136,-0.0562 0.16203,0.48507 0.16203,0.48507 -0.46302,-0.15434 c -0.25466,-0.0849 -0.75316,0.13581 -1.10781,0.49044 l -0.64476,0.64478 -0.93133,-0.23374 -0.93131,-0.23375 0.20831,0.79654 0.2083,0.79653 -0.68273,0.17854 -0.68273,0.17854 v 1.17275 c 0,0.64502 0.13031,1.25329 0.28956,1.35172 0.15925,0.0984 0.0862,1.33811 -0.16237,2.75485 -0.24858,1.41674 -0.45826,3.34311 -0.46596,4.28082 l -0.014,1.70494 -1.41113,2.84894 c -1.32866,2.68251 -1.80809,3.91099 -1.0721,2.74724 0.53303,-0.84288 0.75013,-0.21627 0.27467,0.79284 -0.24051,0.51042 -0.79447,1.01782 -1.23103,1.12755 l -0.79375,0.1995 v 0.87522 c 0,0.48138 -0.13181,0.87523 -0.29289,0.87523 -0.16108,0 -0.88196,1.16061 -1.60197,2.57913 -0.72001,1.41853 -1.85823,3.35147 -2.52934,4.29543 l -1.22026,1.7163 -0.004,1.08443 -0.004,1.08443 -1.23034,0.79699 c -0.67669,0.43835 -1.23036,0.95429 -1.23036,1.14653 0,0.19224 -0.3175,0.34953 -0.70557,0.34953 -0.38803,0 -0.70553,0.15875 -0.70553,0.35278 0,0.19403 -0.1795,0.35278 -0.39886,0.35278 -0.21934,0 -1.13215,0.52623 -2.02846,1.16939 -0.896301,0.64317 -2.368151,1.60164 -3.270781,2.12994 l -1.64113,0.96054 -2.22887,-0.35895 -2.22888,-0.35895 -0.34568,0.34568 c -0.54142,0.5414 -0.9934,0.39689 -2.32124,-0.74216 z m 6.63295,-0.81632 c 0.52437,-0.27117 1.26846,-0.84114 1.65348,-1.26658 l 0.70004,-0.77354 -0.54634,-0.40911 c -0.90461,-0.67737 -1.00931,-1.49413 -0.33393,-2.60472 l 0.64037,-1.05301 1.15112,-0.23022 c 1.36097,-0.27219 1.32379,-0.29774 1.60396,1.10305 l 0.22011,1.10054 -0.922,0.85447 c -0.5071,0.46996 -0.92199,1.13922 -0.92199,1.48726 v 0.63279 l 0.71665,-0.84963 c 2.133571,-2.52952 5.280581,-6.67896 5.280581,-6.96267 0,-0.54998 1.12985,-1.30151 1.78885,-1.18986 l 0.62211,0.10539 0.20966,-0.66059 c 0.11533,-0.36332 0.48972,-0.96638 0.83201,-1.34013 0.34229,-0.37376 0.84817,-1.39393 1.12419,-2.26706 0.27601,-0.87312 0.69559,-1.905 0.93239,-2.29305 0.23683,-0.38806 0.60838,-1.38024 0.82568,-2.20486 0.21731,-0.82462 0.54364,-1.49931 0.7252,-1.49931 0.30358,0 1.40658,-1.80072 1.40658,-2.29635 0,-0.1181 -0.19844,-0.0987 -0.44098,0.0431 -0.24252,0.14181 -0.16315,-0.0598 0.17639,-0.44793 0.33954,-0.38818 0.61736,-1.04258 0.61736,-1.45423 0,-0.41164 0.26199,-0.89505 0.58216,-1.07423 l 0.58219,-0.3258 -0.21783,-1.08917 -0.21786,-1.08916 0.39574,-0.24458 0.39573,-0.24457 -0.28265,0.49548 -0.28266,0.49548 0.4445,-0.41039 0.4445,-0.41039 -0.2264,-1.52989 c -0.12454,-0.84144 -0.22283,-2.0354 -0.21841,-2.65325 0.005,-0.61785 -0.23376,-1.36517 -0.5293,-1.66071 l -0.53734,-0.53734 -0.58021,0.22265 -0.5802,0.22264 0.24572,-0.64031 0.24569,-0.64031 -0.48149,0.39962 c -0.26485,0.21979 -0.58597,0.29515 -0.71364,0.16749 -0.40317,-0.40317 -0.25214,-0.82009 0.29705,-0.82009 0.29104,0 0.52917,-0.15875 0.52917,-0.35278 0,-0.19402 -0.24749,-0.35277 -0.54999,-0.35277 -0.3025,0 -0.45188,-0.15875 -0.33197,-0.35278 0.11993,-0.19403 -0.0294,-0.35278 -0.33195,-0.35278 -0.3025,0 -0.54999,-0.15875 -0.54999,-0.35278 0,-0.19403 -0.17574,-0.35278 -0.39052,-0.35278 -0.21479,0 -0.29914,0.23813 -0.18746,0.52917 0.11168,0.29104 0.0584,0.52917 -0.1184,0.52917 -0.41196,0 -0.21725,0.95934 0.45392,2.23623 l 0.52641,1.00151 -0.56711,0.98812 -0.5671,0.98813 -0.45681,-0.17529 -0.45683,-0.1753 v 0.57504 0.57505 l -0.85553,-0.56058 c -0.47056,-0.30832 -1.0128,-1.01162 -1.20496,-1.56289 l -0.34941,-1.00231 0.2794,-1.17927 c 0.15367,-0.6486 0.33872,-1.40999 0.41121,-1.69197 0.0725,-0.28198 -0.10633,-0.53561 -0.39737,-0.56362 -0.29105,-0.028 -0.80698,-0.0751 -1.14652,-0.10468 l -0.61735,-0.0537 0.0111,-0.79375 0.0111,-0.79375 0.46863,0.61736 c 0.57153,0.75289 0.92004,0.791 0.92004,0.10061 0,-0.28422 -0.33071,-0.69375 -0.73491,-0.91006 l -0.73491,-0.39331 -0.67619,0.61196 -0.67623,0.61196 v 1.17594 1.17593 l -1.99622,3.2119 -1.996231,3.2119 0.43831,0.2709 0.438311,0.27089 -0.515311,0.19774 c -0.78136,0.29985 -3.50014,-0.14364 -4.38001,-0.71447 l -0.77926,-0.50554 -0.22037,1.0012 c -0.1212,0.55066 -0.31176,1.23933 -0.42346,1.53037 l -0.20312,0.52917 -0.32896,-1.5875 c -0.7751,-3.74046 -1.10464,-3.8343 -3.06573,-0.87298 -0.83846,1.26611 -2.01956,2.64752 -2.62469,3.06981 -0.6051,0.42228 -1.18274,0.88449 -1.28365,1.02713 -0.2517,0.35579 -3.58648,1.76674 -3.76166,1.59156 -0.0776,-0.0776 0.4608,-0.38649 1.19647,-0.68642 1.80298,-0.73509 3.60865,-2.12754 4.17536,-3.21985 l 0.46554,-0.89731 -0.33452,-0.20673 c -0.18399,-0.11371 -0.24159,-0.35711 -0.128,-0.5409 0.11358,-0.18379 0.34203,-0.25041 0.50765,-0.14805 0.16563,0.10236 0.58209,-0.45067 0.92546,-1.22897 0.34338,-0.77829 0.74023,-1.41507 0.88186,-1.41507 0.14163,0 0.43476,-0.53701 0.65135,-1.19334 l 0.39386,-1.19334 -0.56666,-1.41623 c -0.31168,-0.77892 -0.53009,-1.63098 -0.4854,-1.89346 0.0447,-0.26248 -0.0389,-0.90478 -0.18582,-1.42733 -0.1469,-0.52255 -0.15483,-1.1317 -0.0177,-1.35366 l 0.24943,-0.40356 0.40116,0.40115 c 0.22063,0.22064 0.40113,1.17418 0.40113,2.11899 v 1.71783 l 0.7093,0.82217 c 0.3901,0.45219 1.0137,1.42361 1.38578,2.15869 l 0.67654,1.33654 0.50861,-0.19518 c 0.27974,-0.10734 0.78801,0.12698 1.1295,0.52073 l 0.6209,0.7159 0.65969,-0.23413 c 0.9507,-0.33741 2.24718,-1.58045 2.24718,-2.15454 v -0.49144 l 0.65577,0.20812 0.655751,0.20813 0.45915,-0.55327 0.45919,-0.55327 -0.0586,-1.5493 c -0.0322,-0.85211 0.10105,-1.64797 0.2962,-1.76857 0.45895,-0.28365 0.46043,-1.83459 0.003,-2.11791 -0.49818,-0.30789 -0.43863,-0.88194 0.0915,-0.88194 0.42214,0 1.21441,-0.96614 1.73577,-2.11667 l 0.23977,-0.52917 0.0654,0.88195 c 0.036,0.48507 0.0414,1.13452 0.0122,1.44324 l -0.0533,0.56129 1.68838,0.0331 1.68836,0.0331 0.57224,-0.73768 0.57222,-0.73767 0.66249,0.28002 0.66251,0.28001 -0.78319,0.21602 -0.78317,0.21603 0.254,0.38665 c 0.13973,0.21266 0.70612,0.4974 1.25868,0.63275 l 1.00467,0.24609 -0.16682,-0.45636 c -0.0917,-0.25099 -0.35721,-0.41274 -0.58991,-0.35942 -0.2327,0.0533 -0.33078,-0.0524 -0.21796,-0.23498 0.54242,-0.87768 -4.5365,-7.0939 -5.79605,-7.0939 -0.20679,0 -0.46704,-0.23721 -0.5783,-0.52714 -0.11125,-0.28993 -0.35441,-0.43313 -0.54033,-0.31822 -0.18592,0.11491 -0.67244,-0.0844 -1.08117,-0.443 l -0.74316,-0.65192 0.22683,0.62173 0.2268,0.62172 -0.96075,-0.24281 c -0.528801,-0.13355 -1.913631,-0.24804 -3.077801,-0.25443 l -2.11666,-0.0116 -1.4111,0.9749 -1.41113,0.9749 -0.3846,1.30363 -0.38463,1.30364 h -0.49733 -0.49731 l 0.11641,-1.05833 c 0.0641,-0.58209 0.13957,-1.72108 0.16785,-2.5311 0.0283,-0.81001 0.214,-1.44501 0.41273,-1.41111 0.19873,0.0339 0.31102,-0.23209 0.24955,-0.59111 -0.0615,-0.35902 0.0391,-0.55948 0.22363,-0.44546 0.18449,0.11402 0.5456,-0.30661 0.80245,-0.93474 0.52594,-1.28614 0.67548,-1.45407 2.52529,-2.83569 1.47725,-1.10337 1.58131,-1.54589 0.74412,-3.16482 l -0.57881,-1.11927 -1.37601,1.57776 c -0.75682,0.86777 -1.94432,2.50328 -2.63891,3.63447 l -1.26288,2.05671 0.17621,1.5633 0.17622,1.5633 -0.86011,0.21588 -0.86011,0.21587 0.18201,0.47434 c 0.10012,0.26089 0.0291,0.56887 -0.15783,0.68439 -0.18692,0.11553 -0.43476,-0.0372 -0.55073,-0.33945 -0.23301,-0.60726 -0.89119,-0.39049 -0.81004,0.2668 0.11197,0.90697 -0.0567,1.29632 -0.56161,1.29632 -0.29104,0 -0.52917,-0.12497 -0.52917,-0.27771 0,-0.33115 -1.05629,-0.52678 -3.03696,-0.56243 l -1.44947,-0.0261 -3.56735,2.41307 c -1.96204,1.32719 -3.74414,2.62608 -3.9602,2.88642 -0.68419,0.82442 -1.68035,2.97507 -1.37801,2.97507 0.55976,0 2.77895,-1.59176 2.79374,-2.00385 l 0.0148,-0.41634 0.97014,0.28112 c 0.53356,0.15462 1.57314,0.6214 2.31013,1.03729 l 1.34004,0.75615 0.84412,-0.62093 c 0.4643,-0.34152 0.89316,-0.90504 0.95306,-1.25227 0.0599,-0.34724 0.26765,-0.63633 0.46167,-0.64242 0.19402,-0.006 0.47972,-0.23794 0.6349,-0.5152 0.47013,-0.84009 0.88664,-0.56668 0.81057,0.53209 -0.0394,0.5699 0.0391,0.96769 0.17458,0.88397 0.13546,-0.0837 0.34464,0.10404 0.46482,0.41725 l 0.21854,0.56947 -0.71075,0.61641 c -0.39089,0.33902 -0.71072,1.03435 -0.71072,1.54517 v 0.92876 h 0.70567 c 0.82484,0 0.9453,0.63569 0.1764,0.93076 l -0.52917,0.20306 v 1.4792 c 0,0.81356 -0.14944,1.63001 -0.33205,1.81434 -0.18265,0.18433 -0.41752,1.50929 -0.52197,2.94438 -0.20103,2.76162 -0.35457,3.20247 -0.91882,2.6382 -0.37873,-0.37873 -0.49091,-1.83563 -0.41759,-5.42383 0.0257,-1.26118 0.0287,-2.61056 0.007,-2.99861 -0.0222,-0.38806 0.003,-0.86431 0.0553,-1.05834 0.0525,-0.19403 0.0767,-0.78934 0.0537,-1.32291 l -0.0418,-0.97014 -0.67297,0.67296 c -0.37012,0.37013 -1.60044,0.86934 -2.73402,1.10936 -1.13361,0.24003 -2.40996,0.64978 -2.83633,0.91056 -0.4264,0.26079 -0.98203,0.42259 -1.23473,0.35957 -0.25271,-0.063 -0.34039,-0.048 -0.19487,0.0334 0.463,0.25893 0.28461,0.79472 -0.26458,0.79472 -0.29104,0 -0.52917,-0.15875 -0.52917,-0.35278 0,-0.19402 -0.16811,-0.35277 -0.37362,-0.35277 -0.20547,0 -0.2767,0.15675 -0.1583,0.34832 0.19868,0.3215 0.0135,0.63679 -1.12112,1.9091 l -0.41827,0.46905 0.39597,0.39598 0.39598,0.39598 -0.71885,0.79842 c -1.02661,1.14021 -1.27251,1.91628 -1.41139,4.4546 l -0.12285,2.24507 1.23211,3.02215 c 0.67765,1.66218 1.15705,3.09721 1.06529,3.18896 -0.0917,0.0917 -0.42971,-0.45288 -0.75104,-1.21027 -0.32131,-0.7574 -0.65683,-1.17058 -0.74555,-0.91818 -0.24029,0.68346 0.62723,2.53971 1.18693,2.53971 0.26752,0 0.48638,0.18863 0.48638,0.41918 0,2.34925 13.29444,15.8086 15.61489,15.8086 0.27694,0 0.79174,0.31847 1.144,0.70771 0.35227,0.38925 0.7044,0.64379 0.78256,0.56565 0.0781,-0.0781 0.56859,-0.0134 1.0899,0.1439 1.49,0.44957 3.19069,0.39069 4.22936,-0.14642 z m -1.69405,-2.85834 c 0,-0.097 0.0794,-0.17639 0.17637,-0.17639 0.097,0 0.1764,0.0794 0.1764,0.17639 0,0.097 -0.0794,0.17639 -0.1764,0.17639 -0.097,0 -0.17637,-0.0794 -0.17637,-0.17639 z m 2.11667,-2.11666 c 0,-0.097 0.0794,-0.17639 0.17637,-0.17639 0.097,0 0.17639,0.0794 0.17639,0.17639 0,0.097 -0.0794,0.17638 -0.17639,0.17638 -0.097,0 -0.17637,-0.0794 -0.17637,-0.17638 z m -5.42912,-1.19169 c -0.78264,-0.86482 -0.71536,-1.03168 0.33504,-0.83088 l 0.90315,0.17265 0.19529,-0.74677 c 0.1074,-0.41072 0.336,-0.65981 0.50795,-0.55353 0.59817,0.36969 0.30734,1.48506 -0.53033,2.03393 l -0.84299,0.55235 z m -1.31564,-1.71873 c -0.065,-0.41025 -0.0711,-1.60798 -0.0116,-2.31388 0.10271,-1.22061 0.75924,-0.19317 0.75924,1.18817 0,1.1422 -0.60129,2.04772 -0.74752,1.12571 z m 2.18794,-1.81091 c -0.41426,-0.58178 -1.06656,-1.15724 -1.44957,-1.27881 -0.6491,-0.20601 -1.01716,-1.24604 -0.43183,-1.22007 0.77317,0.0343 3.22564,2.96564 2.8203,3.37097 -0.10213,0.10213 -0.52461,-0.29031 -0.9389,-0.87209 z m 7.91708,-1.44249 c -0.92149,-1.0182 -0.13999,-3.89035 1.05852,-3.89035 0.684601,0 0.657301,0.28723 -0.1841,1.9376 l -0.70419,1.38124 0.34129,0.34129 0.34131,0.3413 0.76107,-0.96754 0.761051,-0.96754 0.33636,0.33634 0.33634,0.33635 -0.44894,0.71887 c -0.24691,0.39537 -0.81159,0.78819 -1.254821,0.87292 l -0.80586,0.15405 z m 2.937511,-2.723 c -0.0287,-0.15697 -0.0684,-0.60291 -0.0882,-0.99096 -0.0198,-0.38806 -0.23439,-0.66587 -0.47693,-0.61736 -0.24252,0.0485 -0.44096,-0.0706 -0.44096,-0.26459 0,-0.40255 0.39868,-0.44838 1.20587,-0.13864 0.61547,0.23618 0.76335,1.73399 0.20523,2.07892 -0.19401,0.11992 -0.37629,0.0896 -0.40499,-0.0674 z m 2.16889,-0.10902 c 0,-0.2587 0.10584,-0.36453 0.23519,-0.23518 0.12933,0.12935 0.12933,0.34102 0,0.47037 -0.12935,0.12935 -0.23519,0.0235 -0.23519,-0.23519 z m -22.489581,-0.23364 c -0.24254,-0.0979 -0.44098,-0.38797 -0.44098,-0.64467 v -0.46675 l 0.74165,0.19395 0.74168,0.19396 0.31126,-0.49156 0.31128,-0.49157 0.005,0.54681 c 0.005,0.54104 -0.66056,1.41941 -1.03529,1.36562 -0.10673,-0.0153 -0.39248,-0.10792 -0.635,-0.20579 z m 11.0831,-0.002 c -0.12935,-0.12936 -0.23518,-0.72031 -0.23518,-1.31322 v -1.07803 l 0.47053,0.69585 c 0.25882,0.38272 0.57132,0.97367 0.69448,1.31322 l 0.22394,0.61736 h -0.45929 c -0.25262,0 -0.56515,-0.10583 -0.69448,-0.23518 z m 1.53731,-0.51894 c 0.0382,-0.45836 0.0519,-1.12818 0.0304,-1.48848 l -0.0391,-0.65511 -0.52917,0.20306 c -0.29104,0.11169 -0.52917,0.0587 -0.52917,-0.11782 0,-0.58077 0.72681,-0.78408 1.25019,-0.3497 0.59809,0.49637 0.69196,2.65759 0.13049,3.00459 l -0.38322,0.23685 z m -12.48661,-3.30762 c -0.31218,-0.31216 -1.12168,-0.65748 -1.7989,-0.76737 -1.31284,-0.21305 -1.37219,-0.82389 -0.078,-0.80265 0.83455,0.0137 2.9966,1.58541 2.65322,1.92878 -0.11483,0.11484 -0.46419,-0.0466 -0.77634,-0.35876 z m 1.54188,-0.52433 c 0,-0.2587 0.10584,-0.36454 0.23519,-0.23518 0.12936,0.12935 0.12936,0.34101 0,0.47037 -0.12935,0.12935 -0.23519,0.0235 -0.23519,-0.23519 z m 7.62247,-0.91079 c -0.30271,-0.78889 -0.30737,-0.78384 0.66757,-0.72758 0.98358,0.0568 1.08111,0.24 0.45886,0.86226 -0.56901,0.56899 -0.87021,0.53298 -1.12643,-0.13468 z m -7.9474,-1.05888 0.0279,-0.67616 0.18529,0.46302 c 0.10189,0.25466 0.0894,0.55893 -0.0279,0.67616 -0.11721,0.11722 -0.20061,-0.0911 -0.18529,-0.46302 z m 19.889311,-0.5161 -0.65328,-0.72189 0.0339,-1.19448 c 0.0378,-1.33473 0.31407,-1.94786 0.87757,-1.94786 h 0.37812 l -0.19545,1.20437 -0.19542,1.20436 0.45964,0.62861 0.45966,0.6286 0.74795,-1.46613 c 0.4114,-0.80638 0.74797,-1.88257 0.74797,-2.39154 v -0.9254 l 0.44099,0.15419 c 0.24251,0.0848 0.41499,0.37585 0.38327,0.64676 -0.45715,3.90379 -2.0289,5.78924 -3.48488,4.18041 z m -12.508811,-1.2184 c 0,-0.097 0.0794,-0.17638 0.17637,-0.17638 0.097,0 0.1764,0.0794 0.1764,0.17638 0,0.097 -0.0794,0.17639 -0.1764,0.17639 -0.097,0 -0.17637,-0.0794 -0.17637,-0.17639 z m -13.40557,-1.56668 c 0,-0.18257 0.15875,-0.43006 0.35277,-0.54998 0.19405,-0.11992 0.3528,0.0295 0.3528,0.33196 0,0.30249 -0.15875,0.54998 -0.3528,0.54998 -0.19402,0 -0.35277,-0.14938 -0.35277,-0.33196 z m 13.58194,-0.0208 c 0.11994,-0.19402 0.28805,-0.35277 0.37362,-0.35277 0.0855,0 0.15555,0.15875 0.15555,0.35277 0,0.19403 -0.16812,0.35278 -0.37359,0.35278 -0.20548,0 -0.27549,-0.15875 -0.15558,-0.35278 z m 1.29733,-0.38365 c -0.25535,-0.40886 -0.3965,-0.81114 -0.31371,-0.89395 0.24476,-0.24474 1.03438,0.86803 0.90066,1.26922 -0.0675,0.20247 -0.33163,0.0336 -0.58695,-0.37527 z m 3.1124,-0.96918 c 0,-0.34642 2.46272,-1.94648 2.67272,-1.73649 0.0629,0.0629 -0.0799,0.5059 -0.31724,0.98447 l -0.43156,0.87013 -0.96195,0.11163 c -0.52908,0.0614 -0.96197,-0.042 -0.96197,-0.22974 z m -20.28473,-1.82217 c -0.11991,-0.19402 -0.0499,-0.35277 0.15558,-0.35277 0.20547,0 0.37359,0.15875 0.37359,0.35277 0,0.19403 -0.07,0.35278 -0.15555,0.35278 -0.0856,0 -0.25368,-0.15875 -0.37362,-0.35278 z m 1.23473,-0.17638 c 0,-0.097 0.0794,-0.17639 0.1764,-0.17639 0.097,0 0.17637,0.0794 0.17637,0.17639 0,0.097 -0.0794,0.17638 -0.17637,0.17638 -0.097,0 -0.1764,-0.0794 -0.1764,-0.17638 z m 10.73896,-1.06956 c 0.80785,-0.61103 1.25548,-0.66249 1.25548,-0.14435 0,0.20548 -0.14777,0.28227 -0.3284,0.17064 -0.18061,-0.11163 -0.4281,-0.0416 -0.54999,0.15557 -0.12187,0.19719 -0.41064,0.35348 -0.64172,0.34731 -0.23109,-0.006 -0.112,-0.24429 0.26463,-0.52917 z m 20.305481,-2.98739 c 0,-0.2587 0.10583,-0.36454 0.23518,-0.23518 0.12936,0.12935 0.12936,0.34102 0,0.47037 -0.12935,0.12935 -0.23518,0.0235 -0.23518,-0.23519 z m -11.851751,-2.52395 -0.2517,-0.40728 0.40728,0.25171 c 0.22402,0.13844 0.4073,0.32172 0.4073,0.40729 0,0.29426 -0.31152,0.15495 -0.56288,-0.25172 z m 17.143411,0.0545 c 0,-0.25871 0.10584,-0.36454 0.23519,-0.23519 0.12936,0.12935 0.12936,0.34102 0,0.47037 -0.12935,0.12935 -0.23519,0.0235 -0.23519,-0.23518 z m -35.277771,-0.17639 c 0,-0.097 0.0794,-0.17639 0.1764,-0.17639 0.097,0 0.17637,0.0794 0.17637,0.17639 0,0.097 -0.0794,0.17639 -0.17637,0.17639 -0.097,0 -0.1764,-0.0794 -0.1764,-0.17639 z m -1.05833,-0.70556 c 0,-0.097 0.0794,-0.17639 0.1764,-0.17639 0.097,0 0.17637,0.0794 0.17637,0.17639 0,0.097 -0.0794,0.17639 -0.17637,0.17639 -0.097,0 -0.1764,-0.0794 -0.1764,-0.17639 z m 3.52777,-0.15446 c 0,-0.18197 0.3175,-0.30694 0.70556,-0.27771 0.38807,0.0292 0.70557,0.17812 0.70557,0.33086 0,0.15273 -0.3175,0.2777 -0.70557,0.2777 -0.38806,0 -0.70556,-0.14888 -0.70556,-0.33085 z m 26.105561,-0.0219 c 0,-0.2587 0.10584,-0.36453 0.23519,-0.23518 0.12936,0.12935 0.12936,0.34102 0,0.47037 -0.12935,0.12935 -0.23519,0.0235 -0.23519,-0.23519 z m -25.400001,-5.64444 c 0,-0.19403 0.15875,-0.35278 0.35277,-0.35278 0.19405,0 0.3528,0.15875 0.3528,0.35278 0,0.19403 -0.15875,0.35278 -0.3528,0.35278 -0.19402,0 -0.35277,-0.15875 -0.35277,-0.35278 z m 1.41111,-1.5875 c 0,-0.097 0.0794,-0.17639 0.17639,-0.17639 0.097,0 0.1764,0.0794 0.1764,0.17639 0,0.097 -0.0794,0.17639 -0.1764,0.17639 -0.097,0 -0.17639,-0.0794 -0.17639,-0.17639 z m 25.047231,0 c 0,-0.097 0.0794,-0.17639 0.1764,-0.17639 0.097,0 0.17637,0.0794 0.17637,0.17639 0,0.097 -0.0794,0.17639 -0.17637,0.17639 -0.097,0 -0.1764,-0.0794 -0.1764,-0.17639 z m 0.49548,-0.58367 -0.25172,-0.40729 0.4073,0.25172 c 0.22399,0.13844 0.40727,0.32172 0.40727,0.40728 0,0.29427 -0.31152,0.15495 -0.56285,-0.25171 z m -0.14271,-1.18022 c 0,-0.097 0.0794,-0.17639 0.17639,-0.17639 0.097,0 0.1764,0.0794 0.1764,0.17639 0,0.097 -0.0794,0.17639 -0.1764,0.17639 -0.097,0 -0.17639,-0.0794 -0.17639,-0.17639 z m -22.930541,-1.76389 c 0,-0.097 0.0794,-0.17639 0.17637,-0.17639 0.097,0 0.1764,0.0794 0.1764,0.17639 0,0.097 -0.0794,0.17639 -0.1764,0.17639 -0.097,0 -0.17637,-0.0794 -0.17637,-0.17639 z m 11.99443,-10.93611 c 0,-0.097 0.0794,-0.17639 0.1764,-0.17639 0.097,0 0.17637,0.0794 0.17637,0.17639 0,0.097 -0.0794,0.17639 -0.17637,0.17639 -0.097,0 -0.1764,-0.0794 -0.1764,-0.17639 z m 2.79821,52.77402 c 0.40127,-0.56353 0.72956,-1.11916 0.72956,-1.23473 0,-0.45681 -1.09318,-0.17701 -1.28757,0.32956 l -0.20708,0.53968 -0.70795,-0.2247 c -0.38939,-0.12358 -0.6332,-0.0886 -0.54179,0.0777 0.0914,0.16631 0.26504,0.5802 0.38587,0.91974 0.31491,0.8848 0.79428,0.76496 1.62896,-0.40723 z m 15.193461,-21.3768 c 0,-0.097 -0.0794,-0.17638 -0.1764,-0.17638 -0.097,0 -0.17637,0.0794 -0.17637,0.17638 0,0.097 0.0794,0.17639 0.17637,0.17639 0.097,0 0.1764,-0.0794 0.1764,-0.17639 z m -4.65079,-7.49652 c 0.33859,-0.66803 0.30742,-3.84361 -0.0412,-4.19219 -0.47292,-0.47292 -1.19952,0.86597 -1.40319,2.58561 l -0.21617,1.82526 0.42164,0.17149 c 0.7361,0.29939 0.91848,0.24195 1.23889,-0.39017 z m 8.76654,-4.90949 c -0.12935,-0.12936 -0.34102,-0.12936 -0.47037,0 -0.12936,0.12935 -0.0236,0.23518 0.23519,0.23518 0.25868,0 0.36451,-0.10583 0.23518,-0.23518 z m -0.23518,-0.64676 c 0,-0.097 -0.0794,-0.17639 -0.1764,-0.17639 -0.097,0 -0.1764,0.0794 -0.1764,0.17639 0,0.097 0.0794,0.17638 0.1764,0.17638 0.097,0 0.1764,-0.0794 0.1764,-0.17638 z m -5.64447,-4.85403 c 0,-0.24437 -0.3175,-0.64259 -0.70553,-0.88494 l -0.70557,-0.44062 v 0.35576 c 0,0.19568 0.15875,0.35577 0.35277,0.35577 0.19405,0 0.3528,0.23813 0.3528,0.52917 0,0.29104 0.15875,0.52916 0.35276,0.52916 0.19402,0 0.35277,-0.19993 0.35277,-0.4443 z m -2.46943,-2.55431 c 0,-0.097 -0.0794,-0.17639 -0.1764,-0.17639 -0.097,0 -0.17637,0.0794 -0.17637,0.17639 0,0.097 0.0794,0.17639 0.17637,0.17639 0.097,0 0.1764,-0.0794 0.1764,-0.17639 z"
       id="path5953" />
  </g>
</svg>
