<?xml version="1.0" encoding="UTF-8" standalone="no"?>
<!-- Created with Inkscape (http://www.inkscape.org/) -->

<svg
   width="51.365818mm"
   height="59.778828mm"
   viewBox="0 0 51.365818 59.778828"
   version="1.1"
   id="svg1"
   xmlns="http://www.w3.org/2000/svg"
   xmlns:svg="http://www.w3.org/2000/svg">
  <defs
     id="defs1" />
  <g
     id="layer1"
     transform="translate(118.9368,475.27815)">
    <path
       style="fill:#000000;stroke-width:0.264583"
       d="m -89.606227,-416.79197 c -1.358185,-0.71102 -3.205083,-1.82965 -4.104216,-2.48587 -1.94863,-1.42216 -2.057638,-1.43205 -3.782219,-0.34337 -2.291609,1.44663 -8.016188,2.88152 -10.786988,2.7038 l -1.38731,-0.089 -0.95909,-1.02672 c -1.11384,-1.19237 -1.74747,-1.3295 -1.48378,-0.32115 l 0.18449,0.70557 h -0.39391 c -0.21667,0 -0.39391,-0.16632 -0.39391,-0.36957 0,-0.20328 -0.78515,-1.15472 -1.74477,-2.11434 l -1.74474,-1.74474 -1.06662,-2.23488 c -2.24123,-4.69609 -2.22197,-9.37528 0.0503,-12.22587 l 0.97801,-1.22693 v -1.07585 c 0,-0.59171 -0.21344,-1.38898 -0.47432,-1.7717 -0.26088,-0.38272 -0.56589,-1.06209 -0.67781,-1.50974 l -0.20346,-0.81388 0.40857,0.13618 c 0.22473,0.0749 0.64881,0.87691 0.94239,1.78223 0.64267,1.98178 0.56274,1.97181 2.62014,0.32674 l 1.65449,-1.32292 -0.10652,-1.85259 c -0.0586,-1.01891 0.0124,-1.85234 0.15806,-1.85208 0.14552,2.6e-4 0.26459,0.70551 0.26459,1.56718 0,1.95493 0.28276,2.12812 2.57111,1.57483 2.53646,-0.61331 2.68645,-0.82204 3.2916,-4.5815 l 0.53412,-3.31814 -0.11163,-7.79568 -0.1116,-7.79571 -1.19465,-1.90789 c -0.65704,-1.04934 -1.50595,-2.46351 -1.88648,-3.14259 -0.38049,-0.6791 -1.00692,-1.57639 -1.39205,-1.99395 l -0.70022,-0.75922 0.12563,-0.82828 c 0.0691,-0.45556 0.28061,-0.80518 0.47003,-0.77695 0.18941,0.0283 0.97941,0.14594 1.75551,0.26157 2.6774,0.39886 4.1801,0.87683 4.48834,1.42761 l 0.30922,0.55256 1.48177,0.0564 1.4818,0.0565 -1.14655,0.1423 c -1.32887,0.16491 -1.37059,0.38803 -0.50085,2.67806 0.8074,2.12598 0.73615,2.11669 2.964361,0.38637 1.0219,-0.79359 2.731161,-1.88106 3.798305,-2.41657 l 1.940269,-0.97372 2.469462,0.39912 c 3.986367,0.64426 5.488597,0.95467 8.290267,1.71296 1.455209,0.39386 3.360209,0.8264 4.233329,0.96118 3.333886,0.51464 8.192486,2.52868 8.789006,3.64332 l 0.34396,0.64267 -0.50953,0.94181 c -0.28025,0.518 -0.73546,1.35911 -1.01158,1.86915 -1.47789,2.72994 -4.68829,4.86156 -8.175706,5.42843 -1.33911,0.21767 -4.101619,0.70278 -6.138909,1.07802 -2.0373,0.37523 -5.269101,0.75178 -7.181774,0.83679 -1.912673,0.085 -3.550947,0.22786 -3.640587,0.3175 -0.387298,0.38733 2.285285,4.79002 4.160599,6.85398 0.57695,0.635 0.953135,1.30969 0.835951,1.49932 -0.117184,0.1896 -0.08001,0.34475 0.08263,0.34475 0.162613,0 0.889503,0.57676 1.615281,1.28172 l 1.319583,1.28169 1.668727,-0.29442 c 0.91781,-0.16193 3.21694,-0.28155 5.109179,-0.26583 l 3.44043,0.0286 1.05749,0.43802 c 0.58161,0.24093 1.057486,0.64619 1.057486,0.90061 0,0.25445 0.35718,0.5741 0.79375,0.71036 1.98765,0.62042 4.79443,4.1625 5.36231,6.76717 0.32501,1.49058 0.89948,1.47732 0.89948,-0.0209 0,-0.64201 0.23307,-1.47545 0.51794,-1.85208 l 0.51795,-0.68479 0.009,0.52916 c 0.005,0.29104 -0.16798,1.16417 -0.3846,1.94027 -0.21661,0.77613 -0.4228,2.99863 -0.45815,4.9389 -0.0803,4.40481 -0.52498,6.00519 -2.48758,8.95233 -2.12382,3.18924 -2.39245,3.48941 -3.49917,3.91018 -1.591176,0.60497 -1.892776,0.38428 -0.48834,-0.35732 0.72162,-0.38106 1.50167,-1.04873 1.73347,-1.48373 l 0.4214,-0.7909 -0.5261,0.43368 c -0.87447,0.72089 -5.337726,2.91769 -5.927826,2.91769 -0.30316,0 -1.14096,0.3161 -1.86177,0.70245 l -1.310579,0.70244 -2.38837,0.19592 -2.38834,0.19593 z m 4.728611,-0.68498 1.75088,0.2408 1.998339,-0.41487 1.99837,-0.41484 1.28828,-1.14237 c 0.70856,-0.6283 2.002656,-1.63054 2.875786,-2.22718 0.87312,-0.59663 2.11259,-1.6329 2.75436,-2.30277 l 1.16684,-1.21799 0.52975,-2.02861 c 0.55631,-2.13035 0.46437,-2.87433 -0.20146,-1.63023 -0.21656,0.40465 -0.55454,0.73575 -0.75107,0.73575 -0.19653,0 0.12655,-0.70329 0.71798,-1.56286 l 1.07526,-1.56287 v -1.10614 c 0,-0.60839 -0.19592,-1.45291 -0.43537,-1.87672 l -0.4354,-0.77057 -0.22011,1.41113 -0.2201,1.4111 -0.0501,-1.47635 c -0.20624,-6.08211 -8.699416,-11.48548 -14.345305,-9.12648 l -1.21978,0.50966 0.1915,0.49906 c 0.10533,0.2745 0.56248,0.69763 1.0159,0.94028 l 0.82441,0.44121 0.74438,-0.74437 c 0.7625,-0.76251 1.802739,-1.00301 1.802739,-0.41683 0,0.18018 -0.230579,0.55814 -0.512369,0.83995 -0.2818,0.28181 -0.4141,0.61066 -0.294,0.73075 0.12012,0.12012 0.0504,0.21839 -0.15494,0.21839 -0.20532,0 -0.47294,0.39687 -0.59468,0.88196 -0.12173,0.48506 -0.35798,0.88193 -0.52496,0.88193 -0.16698,0 -1.20242,0.69795 -2.30097,1.55099 -1.959057,1.52122 -4.03519,2.26708 -4.871617,1.75014 l -0.42209,-0.26085 1.045448,-0.4459 c 0.574993,-0.24525 0.847011,-0.45305 0.604467,-0.46181 -0.892995,-0.0322 -0.395472,-0.68892 1.322917,-1.74627 1.697755,-1.04463 2.250415,-1.7974 1.319583,-1.7974 -0.244369,0 -0.647938,-0.32607 -0.896832,-0.72461 l -0.452517,-0.72462 -0.725487,0.23027 -0.725514,0.23027 0.235003,-0.74039 c 0.296756,-0.93503 -0.01932,-0.93339 -1.378241,0.007 -1.931776,1.33694 -4.205949,5.01761 -4.989169,8.07482 l -0.58375,2.27861 0.19095,1.94604 c 0.105013,1.07029 0.505724,2.87846 0.890455,4.0181 l 0.699532,2.07211 1.179512,1.14006 c 1.324134,1.27987 3.421989,2.48867 4.089956,2.35667 0.242544,-0.0479 0.441246,0.11827 0.44159,0.36931 2.64e-4,0.25103 0.436932,0.70945 0.970147,1.01867 l 0.969513,0.56226 0.430534,-0.33221 0.43055,-0.33221 z m 2.35272,-1.88243 -0.67974,-0.2826 0.62042,-0.23808 c 0.34124,-0.13094 1.271699,-0.23807 2.067669,-0.23807 1.46926,0 4.49225,-1.20816 4.49225,-1.79535 0,-0.17675 0.277806,-0.31197 0.617376,-0.30057 l 0.61735,0.0206 -0.67826,0.42021 c -0.37303,0.23114 -1.150636,0.8568 -1.728016,1.39038 -0.57737,0.53356 -1.30402,0.97187 -1.6148,0.97401 -0.31075,0.003 -1.12064,0.0777 -1.79975,0.16791 -0.6791,0.0902 -1.540609,0.0368 -1.914499,-0.11859 z m -1.61327,-0.58238 c 0,-0.097 0.0794,-0.17637 0.17637,-0.17637 0.097,0 0.1764,0.0794 0.1764,0.17637 0,0.097 -0.0794,0.1764 -0.1764,0.1764 -0.097,0 -0.17637,-0.0794 -0.17637,-0.1764 z m 11.641665,-7.40833 c 0,-0.097 0.0794,-0.17637 0.17637,-0.17637 0.097,0 0.1764,0.0794 0.1764,0.17637 0,0.097 -0.0794,0.1764 -0.1764,0.1764 -0.097,0 -0.17637,-0.0794 -0.17637,-0.1764 z m -4.760536,-13.227 c -0.35227,-0.38925 -0.47657,-0.7077 -0.27623,-0.7077 0.44389,0 1.32376,1.00835 1.08672,1.24539 -0.0935,0.0935 -0.45826,-0.14843 -0.81049,-0.53769 z m -25.174553,21.52769 c 1.23312,-0.38232 2.599218,-0.94694 3.03578,-1.25473 l 0.79375,-0.55957 v -1.03833 -1.03833 h 0.881936 c 0.925645,0 1.118129,-0.32827 0.534643,-0.91175 -0.191002,-0.19101 -0.488817,-1.37369 -0.661802,-2.62819 l -0.31451,-2.28089 0.493368,-3.52777 c 0.271357,-1.9403 0.648547,-3.80344 0.8382,-4.14036 0.189654,-0.33692 0.344832,-1.00774 0.344832,-1.49074 v -0.87818 l -1.265582,-1.15509 c -3.285095,-2.99829 -4.816235,-2.89796 -5.253565,0.34422 l -0.24985,1.85208 h 1.07064 c 2.721821,0 1.53209,1.06138 -1.46934,1.31086 l -2.18091,0.18124 -0.41751,0.524 c -0.46355,0.5818 -1.16999,0.32586 -1.16999,-0.42386 0,-0.26551 -0.51593,-0.89215 -1.14654,-1.3925 l -1.14652,-0.90972 0.48003,-0.30731 c 0.264,-0.16904 0.75978,-0.23418 1.10173,-0.14476 l 0.62172,0.16259 0.23661,-1.26127 c 0.32216,-1.71712 0.28697,-1.81443 -0.60404,-1.67116 -1.22402,0.19682 -2.42284,0.94575 -4.00211,2.50021 -2.85571,2.81083 -5.06328,9.33651 -3.63998,10.75981 0.46225,0.46225 0.42912,1.35318 -0.0395,1.06354 -0.20765,-0.12832 -0.51507,-0.57425 -0.68321,-0.99097 l -0.3057,-0.75763 -0.0204,1.4111 c -0.0366,2.53603 1.47659,5.82083 2.68155,5.82083 0.1819,0 0.86926,0.55563 1.52747,1.23474 0.6582,0.67908 1.38557,1.2347 1.61636,1.2347 0.2308,0 0.87435,0.23715 1.4301,0.527 1.39846,0.72935 4.21818,0.66222 6.88234,-0.16381 z m 1.83044,-4.47892 c 0.12936,-0.12935 0.34103,-0.12935 0.47038,0 0.12935,0.12936 0.0236,0.23519 -0.23519,0.23519 -0.25868,0 -0.36451,-0.10583 -0.23519,-0.23519 z m -4.72429,-1.86322 c -1.95784,-0.59409 -4.12435,-2.35916 -5.53125,-4.50635 -0.91027,-1.38925 -0.25532,-1.26159 0.80537,0.15695 1.30511,1.74545 2.26724,2.53846 4.49646,3.70615 1.84364,0.96573 1.91058,1.1534 0.22942,0.64325 z m 13.89761,-16.61943 1.012058,-0.61545 -1.359112,-1.35861 c -1.44436,-1.4438 -2.946612,-3.43442 -2.946612,-3.90453 0,-0.15584 -0.410659,-0.59172 -0.912547,-0.96864 l -0.912575,-0.6853 -2.296133,-4.6019 c -1.262879,-2.53105 -2.382339,-4.68127 -2.487639,-4.77829 -0.10533,-0.097 -0.0973,2.4452 0.0177,5.64936 l 0.20928,5.82575 -0.33147,0.52425 -0.33147,0.52424 -0.005,-1.67568 c -0.003,-0.92163 -0.16417,-1.67569 -0.35819,-1.67569 h -0.35277 v 2.94965 2.94963 l 1.97165,0.75454 c 1.084422,0.41497 2.158842,0.75451 2.387575,0.75451 0.228732,0 1.006792,0.40153 1.729052,0.89231 l 1.31318,0.89233 0.905007,-0.59298 0.905007,-0.59298 -0.801661,1.37636 -0.801661,1.37633 1.217295,-1.20187 c 0.669502,-0.66103 1.672723,-1.47883 2.229353,-1.81734 z m -3.058477,-7.62291 c -0.129355,-0.12935 -0.235189,-0.0236 -0.235189,0.23519 0,0.25871 0.105834,0.36454 0.235189,0.23519 0.129328,-0.12936 0.129328,-0.34102 0,-0.47038 z m -8.792713,-7.42307 c -0.068,-1.31776 -0.12425,-0.33216 -0.12486,2.19019 0,2.52238 0.0551,3.60053 0.12375,2.39594 0.0687,-1.20462 0.0692,-3.26837 0,-4.58613 z m 6.558915,3.56677 c -1.004014,-1.82655 -2.234724,-3.57455 -2.234724,-3.17397 0,0.37555 1.432428,3.10803 2.201201,4.19896 1.074658,1.52496 1.094872,0.90591 0.03352,-1.02499 z m 1.469443,-3.66961 c -0.119936,-0.19405 -0.456168,-0.3528 -0.74721,-0.3528 -0.291042,0 -0.431059,0.15875 -0.311124,0.3528 0.11991,0.19402 0.456142,0.35277 0.747184,0.35277 0.291041,0 0.431059,-0.15875 0.31115,-0.35277 z m -3.81598,-0.77171 -0.185261,-0.46302 -0.02786,0.67614 c -0.01535,0.3719 0.06805,0.58026 0.185288,0.46302 0.11721,-0.11721 0.129752,-0.42148 0.02783,-0.67614 z m 12.803316,0.12038 2.63734,-0.63971 -1.18213,-0.23643 c -0.65019,-0.13004 -1.67822,-0.23955 -2.28457,-0.24339 -1.63015,-0.0103 -6.820957,-1.94188 -8.864202,-3.29853 -0.979911,-0.65061 -2.134685,-1.29498 -2.566194,-1.43196 l -0.784542,-0.24899 v 0.88275 c 0,1.44703 0.589782,2.56836 1.860761,3.5378 l 1.199039,0.91453 3.320812,0.6667 c 4.220766,0.84738 3.607858,0.83844 6.663686,0.0972 z m 8.778609,-2.74214 c 0.12414,-0.17089 0.53962,-0.36565 0.92329,-0.43278 0.942546,-0.16497 2.910126,-1.93122 2.735336,-2.45552 l -0.14033,-0.42103 h 0.85667 c 0.99382,0 2.19485,-1.16348 1.92553,-1.86536 -0.19135,-0.49859 -3.48983,-1.47204 -6.251176,-1.84481 -0.87312,-0.11787 -2.06375,-0.42585 -2.64583,-0.68437 -2.054519,-0.91252 -2.845379,-1.20611 -5.115269,-1.89889 -3.522503,-1.07506 -4.002987,-1.13353 -6.112113,-0.74364 -2.649881,0.48988 -4.849521,1.78578 -6.619584,3.89993 l -1.471374,1.75739 0.663337,0.50229 c 0.87548,0.66288 1.383242,0.64714 2.488697,-0.0772 l 0.918581,-0.60188 6.036362,-0.0156 c 5.384664,-0.0138 10.893843,0.3052 12.121773,0.70186 1.433746,0.46318 -0.10768,0.75354 -3.88056,0.73091 -5.000859,-0.0299 -12.506243,0.38516 -13.05102,0.72187 -0.205343,0.12689 -0.576845,-0.0476 -0.825553,-0.38764 -0.248682,-0.34013 -0.62148,-0.51374 -0.82841,-0.38587 -1.802871,1.11424 4.830127,3.95544 10.207064,4.37213 l 2.99863,0.23239 2.420119,-0.3968 c 1.33107,-0.21823 2.52169,-0.5366 2.64583,-0.7075 z m -2.06734,-1.36903 c 0,-0.097 0.0794,-0.1764 0.17639,-0.1764 0.097,0 0.17637,0.0794 0.17637,0.1764 0,0.097 -0.0794,0.17637 -0.17637,0.17637 -0.097,0 -0.17639,-0.0794 -0.17639,-0.17637 z m 4.938886,-2.11667 c 0,-0.097 0.0794,-0.1764 0.17637,-0.1764 0.097,0 0.1764,0.0794 0.1764,0.1764 0,0.097 -0.0794,0.17637 -0.1764,0.17637 -0.097,0 -0.17637,-0.0794 -0.17637,-0.17637 z m -22.577787,-2.82223 c 0,-0.097 0.07937,-0.1764 0.176398,-0.1764 0.09702,0 0.176398,0.0794 0.176398,0.1764 0,0.097 -0.07937,0.1764 -0.176398,0.1764 -0.09702,0 -0.176398,-0.0794 -0.176398,-0.1764 z m 20.931471,-0.0588 c 0.12936,-0.12936 0.341026,-0.12936 0.470376,0 0.12935,0.12935 0.0236,0.23519 -0.235186,0.23519 -0.25868,0 -0.36451,-0.10584 -0.23519,-0.23519 z m -18.919341,-0.50694 0.389335,-0.38934 0.651351,0.37862 0.651351,0.37859 -1.040686,0.0109 -1.040685,0.0109 z m -6.886342,3.13512 -0.41745,-0.41746 v 0.36455 c 0,0.47088 0.41719,0.88807 0.65264,0.65264 0.10025,-0.10025 -0.006,-0.37012 -0.23519,-0.59973 z m 2.404777,-3.45998 c 0,-0.12459 -0.238125,-0.22654 -0.529167,-0.22654 h -0.52917 l 0.0111,0.91134 0.0111,0.91135 0.51795,-0.68479 c 0.284879,-0.37664 0.51795,-0.78674 0.51795,-0.91136 z m -3.152037,-0.8129 c -0.19706,-0.5183 -0.53419,-0.94235 -0.74919,-0.94235 -0.215,0 -0.3257,0.11907 -0.24604,0.26459 0.0797,0.14552 0.37071,0.7969 0.64675,1.44751 0.5752,1.35572 0.8912,0.65773 0.34848,-0.76975 z m -4.2563,-5.0201 c 0,-0.27962 -0.0664,-0.50835 -0.14753,-0.50835 -0.0811,0 -0.39865,-0.0964 -0.70556,-0.21415 l -0.55801,-0.21413 v 0.49636 c 0,0.63349 0.72692,1.37144 1.1148,1.13173 0.16295,-0.10073 0.2963,-0.41188 0.2963,-0.69146 z"
       id="path5856" />
  </g>
</svg>
