<?xml version="1.0" encoding="UTF-8" standalone="no"?>
<!-- Created with Inkscape (http://www.inkscape.org/) -->

<svg
   width="49.930809mm"
   height="56.538986mm"
   viewBox="0 0 49.930809 56.538986"
   version="1.1"
   id="svg1"
   xmlns="http://www.w3.org/2000/svg"
   xmlns:svg="http://www.w3.org/2000/svg">
  <defs
     id="defs1" />
  <g
     id="layer1"
     transform="translate(19.303595,638.77802)">
    <path
       style="fill:#000000;stroke-width:0.264583"
       d="m 1.6630051,-582.53458 -0.49218,-0.31166 0.65627,-0.12639 c 0.36095,-0.0695 -1.40194005,-0.16621 -3.91752,-0.21489 -2.51561,-0.0487 -5.00092,-0.17717 -5.52294,-0.28554 l -0.94909,-0.19701 -0.71469,-1.21131 -0.71469,-1.21132 h -0.6559801 c -0.65646,0 -1.53168,-0.81407 -2.65483,-2.46943 -0.32915,-0.48507 -0.85953,-1.24802 -1.17867,-1.69543 -1.39099,-1.95019 -3.28136,-8.40846 -3.28993,-11.23976 -0.003,-1.00248 -0.15849,-1.87561 -0.34547,-1.94027 l -0.33996,-0.11761 0.34655,-2.43795 0.34658,-2.43798 1.43954,-2.60783 1.43957,-2.60784 -0.35713,-0.95142 c -0.19643,-0.52328 -0.56436,-1.70548 -0.81762,-2.62711 -0.25328,-0.92164 -0.58155,-1.6757 -0.72951,-1.6757 -0.14795,0 -0.16856,-0.73272 -0.0458,-1.62826 l 0.22317,-1.62827 -0.8473,0.26557 c -0.46598,0.14606 -1.07175,0.35013 -1.34612,0.45349 l -0.49885,0.18793 0.2584,-0.41808 c 0.1421,-0.22994 0.78036,-0.63617 1.41832,-0.90273 l 1.15996,-0.48466 0.24561,-1.85142 c 0.80169,-6.04351 9.4060001,-13.38841 16.14462005,-13.78156 l 1.52635005,-0.089 1.129,0.58991 c 0.62095,0.32445 1.47958,0.58991 1.90807,0.58991 0.42847,0 1.90479,0.54482 3.2807,1.21071 1.375918,0.66589 3.2160379,1.47048 4.0891679,1.78798 1.72915,0.62877 4.16044,2.48345 3.76888,2.87502 -0.13414,0.13414 -0.60045,-0.061 -1.03624,-0.43366 -1.00108,-0.85602 -2.37988,-1.63495 -2.37988,-1.34447 0,0.32942 2.1158,2.67733 2.12207,2.35489 0.003,-0.15227 0.17383,-0.0387 0.37965,0.25231 l 0.37423,0.52916 0.17893,-0.44097 c 1.13583,-2.79925 9.63772,8.8178 12.26466,16.75852 0.79602,2.40623 0.55729,3.0834 -0.38852,1.10211 -4.0717,-8.5295 -4.77758,-9.74107 -7.52268,-12.91157 -1.26117,-1.45663 -2.48915,-2.98746 -2.72881,-3.40186 l -0.43579,-0.75345 -0.0164,0.52917 -0.0164,0.52916 -0.51795,-0.68478 -0.51795,-0.68479 v 0.97019 0.97019 l -0.33501,-0.20706 c -0.66038,-0.40813 -3.54553,-4.43927 -3.54553,-4.9538 v -0.52522 h -0.80346 c -0.44188,0 -1.1519399,-0.2441 -1.5778699,-0.54244 -6.413658,-4.49229 -17.135338,-1.5695 -22.2093581,6.05439 l -1.20317,1.80778 -0.35181,2.24916 c -0.19352,1.23704 -0.44305,2.92381 -0.55452,3.74839 l -0.20267,1.49922 0.44262,1.58088 c 0.24345,0.86948 0.64572,1.74944 0.89395,1.95545 l 0.45133,0.37457 2.34283,-2.07967 2.3428101,-2.07968 3.24731,-1.10118 3.24728,-1.10119 2.99859995,-0.22342 2.99863005,-0.22342 1.94027,0.52374 c 1.06715,0.28806 2.17078,0.58288 2.452478,0.65516 1.06653,0.27365 3.5101999,1.98521 5.7383899,4.01922 l 2.31081,2.10943 1.70784,3.35138 1.70786,3.3514 0.1348,4.77427 0.13481,4.77428 -0.78314,2.90232 c -0.43072,1.59628 -0.92403,2.98939 -1.09625,3.09583 -0.17225,0.10645 -0.31316,0.4018 -0.31316,0.65636 v 0.46278 l 1.61107,-0.30097 c 2.10378,-0.39303 2.20054,-0.4691 2.47804,-1.94825 l 0.23585,-1.25725 0.27434,0.44386 c 0.15087,0.24416 0.18651,0.67276 0.0792,0.95245 -0.10735,0.27972 0.005,0.63235 0.24989,0.78364 l 0.44503,0.27504 0.87702,-0.45498 0.87699,-0.455 1.19123,-2.4937 c 1.44227,-3.01914 2.97029,-8.29278 2.97029,-10.25131 0,-0.78661 0.15875,-1.4302 0.35277,-1.4302 0.19405,0 0.35377,0.35718 0.35497,0.79375 0.003,0.43656 0.25579,1.27 0.56581,1.85208 l 0.56364,1.05833 -0.0511,2.60345 c -0.0877,4.47418 -4.30114,9.59728 -10.60645,12.8964 l -1.23384,0.64558 -2.64583,0.0893 c -1.45521,0.0492 -2.73516,0.10737 -2.84432,0.12938 -0.10917,0.022 -0.98229,0.75018 -1.9403,1.61817 l -1.7417799,1.57816 -2.028448,0.4327 c -1.11567,0.23799 -2.02848,0.61828 -2.02848,0.84513 0,0.22683 -0.59531,0.51081 -1.32292,0.63108 -1.7186,0.28406 -1.93331,0.27589 -2.52066,-0.096 z m 1.72691,-0.73589 c 0,-0.19402 -0.16812,-0.35277 -0.37359,-0.35277 -0.20548,0 -0.27549,0.15875 -0.15558,0.35277 0.11991,0.19402 0.28803,0.35277 0.37359,0.35277 0.0856,0 0.15558,-0.15875 0.15558,-0.35277 z m -10.9361,-1.23473 c 0,-0.097 -0.0794,-0.17637 -0.1764,-0.17637 -0.097,0 -0.1764,0.0794 -0.1764,0.17637 0,0.097 0.0794,0.1764 0.1764,0.1764 0.097,0 0.1764,-0.0794 0.1764,-0.1764 z m 11.05315,-0.553 3.57928,-0.72943 1.679628,-0.91417 c 0.92377,-0.50276 1.6795999,-1.04767 1.6795999,-1.21086 0,-0.16317 0.25384,-0.29671 0.56412,-0.29671 0.89853,0 3.46723,-2.97767 4.6414,-5.38038 1.56329,-3.19892 1.55617,-3.17674 1.9857,-6.19686 l 0.21661,-1.5231 -0.49739,-2.35746 c -0.27352,-1.29662 -1.01179,-3.77135 -1.64055,-5.49942 l -1.14318,-3.14193 -1.7803,-1.96587 c -3.3642599,-3.71494 -7.6917279,-5.7377 -9.2432179,-4.32051 -0.18434,0.16837 -0.84492,0.40129 -1.46799,0.51761 l -1.13284005,0.21149 -0.22558,-0.36497 c -0.12404,-0.20074 0.0969,-0.4493 0.49109005,-0.55238 0.39415,-0.10307 0.80881,-0.42756 0.92144,-0.72109 l 0.20479,-0.53368 -0.52187,0.20026 c -0.28702,0.11014 -0.62524,0.033 -0.75155,-0.17139 l -0.22971005,-0.37166 2.30939005,0.11876 c 2.70804,0.13927 3.36227,-0.20108 1.40147,-0.72907 l -1.38329,-0.37248 -1.81409,0.47057 c -0.99775005,0.25881 -1.72059005,0.31927 -1.60629005,0.13435 l 0.20778,-0.33622 -1.54394995,0.25003 c -1.91741,0.3105 -4.54255,1.42406 -4.54255,1.92689 v 0.37561 l 0.61735,-0.33295 c 1.01695,-0.54845 2.7041,-0.98651 3.175,-0.82439 0.69469,0.23917 0.51435,0.79858 -0.25744,0.79858 -0.70821,0 -3.5642,1.0188 -3.88768,1.38682 -0.097,0.11038 -0.8114,0.52351 -1.5875,0.91808 -0.77613,0.39457 -1.56782,1.06925 -1.75935,1.49931 -0.1915301,0.43004 -0.5110401,0.7819 -0.7100301,0.7819 -0.19897,0 -0.66736,0.40693 -1.04087,0.90429 -0.37349,0.49736 -0.98272,1.25142 -1.35382,1.67571 -0.37111,0.42425 -1.1489,1.70709 -1.72842,2.8507 l -1.0537,2.07928 -0.19408,1.88036 -0.19407,1.88034 -0.3579,-0.22119 -0.35793,-0.22119 0.24657,2.78794 c 0.27159,3.07113 0.76919,5.29963 1.24965,5.59655 0.17137,0.10591 0.0896,-0.64143 -0.18179,-1.66079 -0.9678,-3.63548 -0.51618,-3.31449 1.11495,0.79245 0.34676,0.87313 0.90808,1.905 1.24735,2.29307 0.33925,0.38803 0.83159,1.10241 1.09403,1.5875 2.3576501,4.35729 4.0454201,6.00093 7.0206901,6.83715 3.78865,1.06481 4.22203995,1.07468 8.54104,0.19455 z m -4.70315,-4.01043 v -0.91807 l -0.94787,0.23791 -0.94787,0.23789 1.21245,-1.45953 c 1.11775995,-1.34556 2.19087995,-1.85285 2.55473995,-1.20769 0.25058,0.44432 -0.96007,3.73182 -1.4305,3.88446 l -0.44094995,0.14308 z m 3.02225,-0.86635 c -0.1325,-0.21439 0.006,-0.74292 0.30869,-1.17448 l 0.54959,-0.78468 -0.005,0.69586 c -0.003,0.38272 -0.14187,0.91125 -0.30866,1.17451 l -0.30329,0.47863 z m -7.3588,-1.80589 c -0.21249,-0.81253 0.45101,-2.8185 0.93226,-2.8185 0.17687,0 0.23143,0.55563 0.12123,1.23474 l -0.20037,1.23473 h 0.507 c 0.27884,0 0.50696,-0.15875 0.50696,-0.3528 0,-0.19402 0.23813,-0.35277 0.52917,-0.35277 0.96375,0 0.54846,0.98258 -0.58179,1.3766 -1.48961,0.51927 -1.59957,0.49977 -1.81446,-0.322 z m 10.47557,0.21723 c -0.10385,-0.27064 -0.13565,-1.10408 -0.0707,-1.85209 l 0.11817,-1.36001 0.66095,1.29085 c 0.6526,1.27458 0.58431,2.41332 -0.14472,2.41332 -0.20622,0 -0.4599,-0.22146 -0.56375,-0.49207 z m -11.07792,-3.2121 c 0,-0.097 0.0794,-0.17639 0.1764,-0.17639 0.097,0 0.17637,0.0794 0.17637,0.17639 0,0.097 -0.0794,0.17637 -0.17637,0.17637 -0.097,0 -0.1764,-0.0794 -0.1764,-0.17637 z m -2.93455,-1.01862 c -0.21164,-0.55152 -0.0362,-0.73448 1.47196,-1.53529 1.02907,-0.54642 1.46259,-0.3061 1.46259,0.81084 v 0.86111 l -0.61735,0.005 c -0.33957,0.003 -0.95266,0.0948 -1.36248,0.20482 l -0.74509,0.2 z m 16.22251,-0.0985 c -0.12936,-0.12935 -0.22511,-0.56591 -0.21284,-0.97012 l 0.0222,-0.73496 0.33801,0.84498 c 0.34549,0.86367 0.27381,1.28145 -0.14754,0.8601 z m 2.146058,-0.156 c -0.55954,-0.3167 -0.899,-1.72548 -0.41577,-1.72548 0.45249,0 1.2532799,1.09408 1.1470999,1.56721 l -0.1139499,0.50774 z m -3.321978,-0.54954 c 0.12936,-0.12935 0.34102,-0.12935 0.47038,0 0.12933,0.12936 0.0236,0.23519 -0.23519,0.23519 -0.25871,0 -0.36454,-0.10583 -0.23519,-0.23519 z m -14.84606,-2.13669 c -1.2261301,-0.15216 -1.3981901,-0.41037 -0.72321,-1.08535 0.63566,-0.63566 1.62213,-0.51001 2.03369,0.25903 0.43281,0.80867 0.46159,1.10209 0.10062,1.02507 -0.14552,-0.0311 -0.78052,-0.12049 -1.4111,-0.19875 z m 16.49235,-0.97951 c 0,-0.59376 0.0646,-0.61762 0.853098,-0.31504 0.78824,0.30247 0.69358,0.8442 -0.14753,0.8442 h -0.705568 z m 1.594168,-0.87461 -0.63188,-0.69818 0.60455,-0.23199 0.60454,-0.23199 0.5435399,0.54356 c 0.51525,0.51523 0.3864,1.31681 -0.21162,1.31681 -0.1524999,0 -0.5616299,-0.3142 -0.9091299,-0.69821 z m -1.596388,-2.30307 -0.38095,-0.459 0.23339,-0.9299 0.23342,-0.92991 -0.57949,-0.64034 c -0.31872,-0.35216 -0.4848,-0.88707 -0.36907,-1.18867 0.11573,-0.30157 -0.0329,-1.01878 -0.3302,-1.59377 -0.55997,-1.08283 -0.45225,-1.4877 0.39574,-1.4877 h 0.49416 l -0.21214,0.66837 -0.21212,0.66836 0.62931,-0.051 0.629338,-0.051 v 2.0605 2.0605 l 0.99372,0.52077 0.9937199,0.52076 -0.3878999,0.46744 c -0.57687,0.69506 -1.69752,0.8868 -2.130928,0.36459 z m -17.9222901,-0.79107 0.1189,-0.61738 h 1.0486801 1.04865 l 0.1189,0.61738 0.1189,0.61735 h -1.28645 -1.2864601 z m 24.325518,-1.32292 c -0.1244,-2.30547 -0.96401,-5.16342 -2.1246,-7.23196 -0.59875,-1.06714 -1.07897,-2.17839 -1.06717,-2.46944 l 0.0214,-0.52916 0.19018,0.52916 c 0.10459,0.29105 0.65098,1.26261 1.21423,2.15904 1.27574,2.0304 2.14042,5.25792 1.97096,7.35681 l -0.12891,1.59665 z m -22.9815679,-1.41113 -0.43916,-0.52917 h 0.92514 0.92515 v 0.52917 c 0,0.29104 -0.21871,0.52917 -0.48599,0.52917 -0.26728,0 -0.6836,-0.23813 -0.92514,-0.52917 z m 0.61738,-1.96853 c -0.33957,-0.19777 -0.61738,-0.64169 -0.61738,-0.9865 v -0.62693 l 1.08635,0.15944 c 1.20142,0.17635 1.76022,1.02698 0.99354,1.51247 -0.61325,0.3883 -0.70155,0.38475 -1.46251,-0.0585 z m 3.83876,-2.01329 c -0.27046,-0.43765 0.28757,-2.36817 0.68453,-2.36817 0.55253,0 0.57158,1.79762 0.0238,2.2522 l -0.51559,0.42789 z m 2.95219,-1.64179 c 0,-1.42816 0.53314,-1.94445 0.83703995,-0.8106 0.35462,1.3231 0.24796,2.02451 -0.30786995,2.02451 h -0.52917 z m 5.99723,0.92514 c 0,-0.42635 0.66929,-0.92342 0.91395,-0.67879 0.0888,0.0888 -0.0805,0.36227 -0.37626,0.6077 l -0.53769,0.44624 z m -4.17229005,-0.91848 c 0.0634,-0.51225 0.27411,-0.92643 0.46813,-0.92039 0.52768005,0.0164 0.42571005,1.51536 -0.11534,1.6957 l -0.46812,0.15605 z m -9.23326995,-0.0275 c 0,-0.097 0.0794,-0.17639 0.1764,-0.17639 0.097,0 0.17639,0.0794 0.17639,0.17639 0,0.097 -0.0794,0.1764 -0.17639,0.1764 -0.097,0 -0.1764,-0.0794 -0.1764,-0.1764 z m -0.70554,-1.05833 c 0,-0.097 0.0794,-0.17638 0.17637,-0.17638 0.097,0 0.1764,0.0794 0.1764,0.17638 0,0.097 -0.0794,0.17639 -0.1764,0.17639 -0.097,0 -0.17637,-0.0794 -0.17637,-0.17639 z m 8.03063,-1.94027 c -0.11406,-0.29104 -0.37187,-1.04511 -0.57287,-1.6757 l -0.36552,-1.14653 h 0.34316 c 0.4739,0 1.09149,1.73623 0.93295,2.62272 l -0.13034,0.72867 z m 10.313808,-0.88195 c 0,-1.04544 0.37933,-1.12157 1.18004,-0.2368 0.7981699,0.88197 0.7350899,1.11875 -0.29811,1.11875 h -0.88193 z m -1.411108,-0.88194 -0.52916,-0.34198 0.61735,-0.005 c 0.33954,-0.003 0.617348,0.15334 0.617348,0.34737 0,0.43025 -0.0398,0.43025 -0.705538,0 z m -1.64631,-0.94074 c 0.12935,-0.12935 0.34102,-0.12935 0.47037,0 0.12936,0.12935 0.0236,0.23518 -0.23519,0.23518 -0.25868,0 -0.36451,-0.10583 -0.23518,-0.23518 z m -14.22869,31.8088 c 0,-0.097 -0.0794,-0.1764 -0.17639,-0.1764 -0.097,0 -0.1764,0.0794 -0.1764,0.1764 0,0.097 0.0794,0.1764 0.1764,0.1764 0.097,0 0.17639,-0.0794 0.17639,-0.1764 z m -3.3200401,-4.28779 c -0.50231,-0.73924 -0.91271,-1.18813 -0.91199,-0.99758 0.003,0.54112 1.42528,2.74164 1.63655,2.53037 0.10382,-0.10382 -0.22225,-0.79357 -0.72456,-1.53279 z m 30.131148,0.23085 0.52916,-0.34197 -1.16734,-0.005 -1.16737,-0.005 0.21805,0.35279 c 0.27389,0.44318 0.90172,0.44318 1.5875,0 z m -31.397238,-1.5875 c 0,-0.097 -0.0794,-0.17639 -0.17637,-0.17639 -0.097,0 -0.17639,0.0794 -0.17639,0.17639 0,0.097 0.0794,0.17637 0.17639,0.17637 0.097,0 0.17637,-0.0794 0.17637,-0.17637 z m -1.53024,-2.73404 c -0.0979,-0.24252 -0.17793,-0.0441 -0.17793,0.44098 0,0.48506 0.0801,0.6835 0.17793,0.44098 0.0979,-0.24254 0.0979,-0.63942 0,-0.88196 z m 32.587248,-0.28805 c 0.41775,-0.78055 1.07767,-4.35936 0.74197,-4.02363 -0.11041,0.11039 -0.37568,0.86773 -0.58947,1.68294 -0.21378,0.81523 -0.50784,1.83941 -0.65344,2.27597 -0.33176,0.99478 -0.0185,1.03526 0.50094,0.0647 z m 10.41765,-2.84375 c 0.27826,-0.53805 0.49009,-1.34336 0.47075,-1.78956 l -0.0352,-0.81129 -0.23185,0.70556 c -0.1275,0.38807 -0.61071,1.41859 -1.07381,2.29011 l -0.84199,1.58453 0.60309,-0.50051 c 0.33169,-0.27527 0.83074,-0.94075 1.10898,-1.47884 z m -9.37186,-2.60085 c 0,-0.097 -0.0794,-0.17637 -0.1764,-0.17637 -0.097,0 -0.1764,0.0794 -0.1764,0.17637 0,0.097 0.0794,0.1764 0.1764,0.1764 0.097,0 0.1764,-0.0794 0.1764,-0.1764 z m 10.23054,-1.05833 c 0,-0.48506 -0.0609,-0.88194 -0.13526,-0.88194 -0.0744,0 -0.21114,0.39688 -0.30385,0.88194 -0.0927,0.48508 -0.0318,0.88196 0.13526,0.88196 0.16711,0 0.30385,-0.39688 0.30385,-0.88196 z m -10.41956,-3.61596 -0.23619,-3.79238 -1.37491,-2.35471 c -0.75618,-1.29511 -1.37488,-2.55841 -1.37488,-2.80736 0,-0.51622 -2.44753,-3.12819 -2.93124,-3.12819 -0.17523,0 -0.60179,-0.36001 -0.9479,-0.80002 -0.67135,-0.85346 -3.8015799,-2.57298 -4.1143979,-2.26015 -0.10287,0.10286 0.485458,0.61153 1.307358,1.13038 0.82193,0.51885 2.4184499,1.84198 3.5478499,2.9403 1.12943,1.09831 2.21819,1.94203 2.41951,1.87492 0.20132,-0.0671 0.36602,0.05 0.36602,0.26017 0,0.2102 -0.14427,0.38218 -0.32064,0.38218 -0.17635,0 0.2999,1.19915 1.05833,2.66481 0.75845,1.46566 1.37898,2.94733 1.37898,3.29258 0,0.34529 0.10909,0.73687 0.24239,0.87017 0.13329,0.13329 0.26566,0.51694 0.29419,0.85254 0.44574,5.24973 1.00224,5.95982 0.68553,0.87476 z m -30.502648,-10.14236 c 0,-0.097 -0.0794,-0.17639 -0.17639,-0.17639 -0.097,0 -0.1764,0.0794 -0.1764,0.17639 0,0.097 0.0794,0.17638 0.1764,0.17638 0.097,0 0.17639,-0.0794 0.17639,-0.17638 z m 14.6990601,-4.64491 c -0.12935,-0.12935 -0.23519,-0.0235 -0.23519,0.23518 0,0.25871 0.10584,0.36454 0.23519,0.23519 0.12936,-0.12935 0.12936,-0.34102 0,-0.47037 z m 2.58705,-17.22732 c 0,-0.097 -0.0794,-0.17639 -0.1764,-0.17639 -0.097,0 -0.17637,0.0794 -0.17637,0.17639 0,0.097 0.0794,0.17639 0.17637,0.17639 0.097,0 0.1764,-0.0794 0.1764,-0.17639 z m -0.70557,-0.35278 c 0,-0.097 -0.0794,-0.17638 -0.17637,-0.17638 -0.097,0 -0.1764,0.0794 -0.1764,0.17638 0,0.097 0.0794,0.17639 0.1764,0.17639 0.097,0 0.17637,-0.0794 0.17637,-0.17639 z"
       id="path5917" />
  </g>
</svg>
