<?xml version="1.0" encoding="UTF-8" standalone="no"?>
<!-- Created with Inkscape (http://www.inkscape.org/) -->

<svg
   width="49.503578mm"
   height="48.106232mm"
   viewBox="0 0 49.503578 48.106232"
   version="1.1"
   id="svg1"
   xmlns="http://www.w3.org/2000/svg"
   xmlns:svg="http://www.w3.org/2000/svg">
  <defs
     id="defs1" />
  <g
     id="layer1"
     transform="translate(130.58008,549.89568)">
    <path
       style="fill:#000000;stroke-width:0.264583"
       d="m -110.44226,-502.0176 c -2.74463,-0.49578 -7.58751,-2.04669 -10.53986,-3.37532 -0.65521,-0.29485 -1.36959,-0.56652 -1.5875,-0.60372 -0.73594,-0.12563 -1.98374,-1.08181 -1.98374,-1.52012 0,-0.62087 -1.88293,-1.51169 -3.19521,-1.51169 h -1.11361 l 0.268,-0.61735 c 0.1474,-0.33957 0.28345,-1.01426 0.30234,-1.49932 l 0.0343,-0.88193 -0.47749,0.10035 c -0.26265,0.0552 -0.7852,0.003 -1.16128,-0.11665 l -0.68377,-0.21701 0.2516,-0.76531 c 0.1384,-0.4209 0.23235,-1.06841 0.20883,-1.43888 -0.0236,-0.3705 0.10843,-0.95618 0.29327,-1.30152 l 0.33602,-0.62791 -0.35947,-0.22217 c -0.19772,-0.12218 -0.26257,-0.37901 -0.14409,-0.57073 0.11851,-0.19172 0.25935,-0.69667 0.31303,-1.12215 0.0537,-0.42548 0.21537,-1.40859 0.3593,-2.18472 l 0.26168,-1.4111 1.70357,-2.49738 c 0.93694,-1.37359 1.91124,-3.17924 2.16506,-4.0126 l 0.46151,-1.5152 0.76991,-0.3547 c 0.42344,-0.19509 0.95391,-0.79888 1.17877,-1.34177 0.22487,-0.54289 0.71184,-1.26128 1.08218,-1.59642 0.37033,-0.33514 0.67331,-0.73627 0.67331,-0.89141 0,-0.32466 0.34078,-0.69606 5.09394,-5.55161 1.92852,-1.97008 3.62376,-3.58197 3.76717,-3.58197 0.1434,0 0.4705,-0.20419 0.72689,-0.45376 1.23888,-1.2059 3.14634,-2.38477 5.22867,-3.2315 1.26118,-0.51283 2.61056,-1.07052 2.99862,-1.2393 2.3571,-1.02521 4.427088,-1.08819 5.364108,-0.1632 l 0.42522,0.41976 -1.08668,0.21734 c -0.59769,0.11953 -1.613108,0.21733 -2.256488,0.21733 -1.64664,0 -1.80594,0.56121 -0.58397,2.05711 l 1.05728,1.29427 0.656928,-0.11594 c 0.36132,-0.0638 0.88141,-0.33361 1.15578,-0.59965 l 0.49887,-0.48371 -0.43645,-0.5259 c -0.24006,-0.28925 -0.663,-0.43898 -0.93986,-0.33274 -0.27683,0.10624 -0.50337,0.0174 -0.50337,-0.19736 v -0.39052 h 1.2187 1.2187 l 0.81809,0.8181 c 0.44995,0.44995 0.84609,1.18972 0.8803,1.64394 0.0342,0.45422 0.23325,0.93157 0.44233,1.06078 0.57256,0.35385 0.52001,3.84875 -0.0849,5.64939 -0.29332,0.87313 -0.62633,2.10214 -0.73996,2.73115 l -0.20664,1.14365 0.69625,-0.43482 c 1.037,-0.64761 1.7544,-2.44521 1.7544,-4.396 v -1.73135 l 0.51794,-0.68478 c 0.28488,-0.37664 0.52301,-1.05882 0.52917,-1.51596 l 0.0111,-0.83118 -0.88193,-0.69374 -0.88196,-0.69373 v -0.87952 c 0,-0.48375 -0.16116,-1.18069 -0.35814,-1.54876 l -0.35817,-0.66923 -0.61198,0.19653 -0.61198,0.19653 0.50659,-0.35924 0.5066,-0.35923 -1.38406,-0.81661 -1.38404,-0.8166 0.57682,-0.11108 c 1.83962,-0.35429 7.30298,4.52657 9.20785,8.2261 0.61574,1.19591 2.87909,3.78059 3.10986,3.55141 0.0821,-0.0815 0.18018,0.2838 0.21793,0.81182 0.0378,0.52802 0.47395,1.76695 0.9693,2.75317 l 0.90065,1.79314 0.079,3.12542 c 0.0434,1.71898 0.0349,5.4273 -0.0188,8.2407 l -0.0979,5.11527 0.54391,2.08335 c 0.29914,1.14586 0.80343,2.37017 1.12064,2.72069 l 0.57677,0.6373 -0.74814,1.43534 c -0.41148,0.78943 -0.74814,1.66856 -0.74814,1.95363 v 0.51831 h -0.72032 c -0.39617,0 -1.07085,0.33274 -1.49929,0.73944 -1.19825,1.13736 -3.07205,1.76225 -3.07205,1.02446 0,-0.19404 0.26458,-0.35279 0.58795,-0.35279 0.32338,0 0.50845,-0.0795 0.4113,-0.17667 -0.0972,-0.0971 -0.87768,-0.0264 -1.7345,0.15714 -3.73161,0.7996 -4.9031,1.15512 -4.72985,1.43544 0.1017,0.16458 0.0235,0.39894 -0.1736,0.52081 l -0.35853,0.22159 v -0.78105 -0.78105 l -0.69242,0.62661 c -0.38084,0.34465 -0.91824,0.53999 -1.19422,0.43408 -0.27599,-0.10592 -0.83781,0.0428 -1.24849,0.33044 -0.41066,0.28762 -0.88345,0.43844 -1.05064,0.33512 -0.16716,-0.10332 -1.39718,0.12477 -2.733378,0.50689 -2.96399,0.84761 -7.05551,1.12445 -9.66142,0.65373 z m 1.28447,-2.07195 c 0.43482,0 0.88869,0.15875 1.0086,0.35276 0.11991,0.19402 0.5275,0.35277 0.90574,0.35277 h 0.68774 l -0.44398,-0.72069 -0.44394,-0.7207 -0.63751,0.16377 -0.63752,0.16378 0.14047,-0.41323 0.14047,-0.4132 h 3.77325 3.77325 l 0.29144,0.47181 0.29143,0.4718 1.634708,-0.74469 c 0.89908,-0.40958 2.03205,-0.89577 2.51774,-1.08043 0.4857,-0.18465 0.8831,-0.48583 0.8831,-0.66923 0,-0.18341 0.4753,-0.43786 1.05622,-0.56547 0.58095,-0.12758 1.19629,-0.48223 1.36745,-0.78809 l 0.3112,-0.5561 0.56155,0.2155 c 0.30885,0.11851 0.65537,0.0637 0.77004,-0.12189 0.30856,-0.49924 2.36337,-0.38817 3.09597,0.16737 l 0.63606,0.48231 -0.98883,0.36058 -0.98882,0.36054 0.81565,0.0279 c 0.44861,0.0153 1.59155,-0.22593 2.53987,-0.5361 l 1.72419,-0.56396 0.53512,-0.81669 0.53509,-0.81669 -0.58865,-1.177 -0.58867,-1.177 -0.10062,-3.175 c -0.0554,-1.74625 -0.10263,-3.53729 -0.10506,-3.9801 l -0.005,-0.80513 -0.74586,-0.2759 -0.74586,-0.27591 0.51596,-0.51597 0.51596,-0.51596 -0.13866,-4.57664 c -0.0763,-2.51714 -0.15476,-5.00546 -0.17439,-5.52959 -0.0196,-0.52414 -0.1316,-0.9419 -0.24879,-0.92836 -0.65709,0.0759 -0.85399,-0.11066 -0.41201,-0.39033 l 0.50663,-0.32058 -0.67318,-1.5261 c -0.903,-2.04708 -2.93632,-5.25727 -3.82805,-6.0437 l -0.72234,-0.63705 -0.23394,0.63705 -0.23397,0.63704 0.50226,0.57378 0.50226,0.57377 -0.54441,0.2089 -0.54441,0.20891 v 1.10715 1.10715 l -0.46548,-0.17863 -0.46551,-0.17863 -0.41108,1.53707 c -0.22611,0.84539 -0.32266,1.76757 -0.21455,2.0493 l 0.19656,0.51221 -0.7238,0.22972 -0.72376,0.22972 -0.50448,1.69879 c -0.27747,0.93433 -0.93472,2.38033 -1.46058,3.21333 -0.52586,0.833 -1.13626,1.9242 -1.35644,2.42489 -1.69524,3.85462 -7.144118,9.76012 -8.329508,9.02749 -0.15076,-0.0932 -0.65016,0.38285 -1.10979,1.0578 -0.45967,0.67496 -0.93298,1.22828 -1.0518,1.2296 -0.42641,0.005 -2.75566,2.02838 -2.55998,2.22406 0.10999,0.10999 -0.0943,0.12304 -0.45402,0.029 -0.35971,-0.0941 -0.97693,0.11512 -1.37158,0.46487 -0.39468,0.34972 -0.948,0.68831 -1.22962,0.75237 -0.28162,0.0641 -0.61487,0.28284 -0.74054,0.48617 -0.12566,0.20333 -0.40498,0.26061 -0.62069,0.12729 l -0.39222,-0.24241 v 0.57518 c 0,1.14842 -1.34728,1.63906 -3.3514,1.22047 -0.19402,-0.0405 -0.7294,-0.0549 -1.18972,-0.0319 l -0.83696,0.0418 0.43918,0.52917 c 0.24154,0.29104 0.64807,0.52917 0.90337,0.52917 0.2553,0 0.98563,0.47625 1.62293,1.05833 0.6373,0.58208 1.42145,1.05833 1.74257,1.05833 0.32113,0 1.15377,0.23813 1.85034,0.52917 0.69654,0.29104 1.83655,0.52917 2.53333,0.52917 h 1.26688 l -0.24895,0.44095 -0.24897,0.44098 0.47508,-0.44098 c 0.26131,-0.24252 0.83085,-0.44095 1.26567,-0.44095 z m -1.58273,-1.21275 c 0.067,-0.32364 0.28064,-0.58004 0.47466,-0.56978 0.52364,0.0276 0.42743,0.81688 -0.12189,0.99999 l -0.47467,0.15822 z m 11.234388,-0.022 c 0,-0.097 0.0794,-0.1764 0.17637,-0.1764 0.097,0 0.1764,0.0794 0.1764,0.1764 0,0.097 -0.0794,0.1764 -0.1764,0.1764 -0.097,0 -0.17637,-0.0794 -0.17637,-0.1764 z m -14.111128,-1.05833 c 0,-0.097 0.0794,-0.1764 0.1764,-0.1764 0.097,0 0.1764,0.0794 0.1764,0.1764 0,0.097 -0.0794,0.1764 -0.1764,0.1764 -0.097,0 -0.1764,-0.0794 -0.1764,-0.1764 z m 0.91946,-0.38227 -0.21437,-0.55864 0.41915,0.13972 c 0.52734,0.17579 0.81772,0.97759 0.35402,0.97759 -0.18945,0 -0.44091,-0.25141 -0.5588,-0.55867 z m 5.49928,-1.53697 c 0.24958,-0.39962 0.66307,-0.7266 0.9189,-0.7266 0.60044,0 0.22971,0.59563 -0.67064,1.07749 l -0.70202,0.37571 z m 11.396558,-0.37383 c -0.11994,-0.19402 -0.0593,-0.35277 0.13475,-0.35277 0.19402,0 0.45088,0.15875 0.57078,0.35277 0.11994,0.19405 0.0593,0.3528 -0.13475,0.3528 -0.19402,0 -0.45087,-0.15875 -0.57078,-0.3528 z m -9.614958,-0.79375 c 0.0799,-0.24251 0.52964,-0.49315 0.99952,-0.55692 l 0.85431,-0.11596 -0.70554,0.54572 c -0.86079,0.66575 -1.34326,0.7192 -1.14829,0.12716 z m 17.552458,0.26459 c 0,-0.097 0.0794,-0.17637 0.17637,-0.17637 0.097,0 0.1764,0.0794 0.1764,0.17637 0,0.097 -0.0794,0.17639 -0.1764,0.17639 -0.097,0 -0.17637,-0.0794 -0.17637,-0.17639 z m -8.81947,-0.35277 c 0,-0.097 0.0794,-0.1764 0.1764,-0.1764 0.097,0 0.1764,0.0794 0.1764,0.1764 0,0.097 -0.0794,0.1764 -0.1764,0.1764 -0.097,0 -0.1764,-0.0794 -0.1764,-0.1764 z m 10.70095,-0.0588 c 0.12935,-0.12936 0.34102,-0.12936 0.47037,0 0.12933,0.12935 0.0236,0.23519 -0.23519,0.23519 -0.25871,0 -0.36454,-0.10584 -0.23518,-0.23519 z m -4.70371,-0.47041 c 0,-0.2587 0.10583,-0.36454 0.23518,-0.23518 0.12936,0.12935 0.12936,0.34102 0,0.47037 -0.12935,0.12936 -0.23518,0.0236 -0.23518,-0.23519 z m 2.7274,-0.32451 -0.21849,-0.83547 0.37274,0.37274 c 0.205,0.205 0.30332,0.58095 0.21847,0.83548 l -0.15425,0.46273 z m -15.603798,-0.38105 c 0.11993,-0.19402 0.45617,-0.35277 0.74721,-0.35277 0.29104,0 0.43106,0.15875 0.31112,0.35277 -0.11991,0.19405 -0.45614,0.3528 -0.74718,0.3528 -0.29104,0 -0.43106,-0.15875 -0.31115,-0.3528 z m 13.648318,-3.7883 c 0.065,-0.33732 0.4073,-0.669 0.7607,-0.73705 l 0.64259,-0.12378 -0.39446,0.73708 c -0.47752,0.89226 -1.17327,0.97761 -1.00883,0.12375 z m 3.28446,-8.43553 c -0.38775,-0.28845 -0.94311,-0.66336 -1.23415,-0.83312 l -0.52917,-0.30866 0.61735,-0.62474 0.61735,-0.62474 v 0.63641 c 0,0.35005 0.35719,0.92602 0.79375,1.27998 0.9656,0.78285 0.72592,1.21213 -0.26513,0.47487 z m -8.28972,-3.82758 c 0,-0.097 0.0794,-0.17637 0.1764,-0.17637 0.097,0 0.17637,0.0794 0.17637,0.17637 0,0.097 -0.0794,0.1764 -0.17637,0.1764 -0.097,0 -0.1764,-0.0794 -0.1764,-0.1764 z m 7.97526,-0.38161 c -0.11779,-0.30691 -0.20749,-0.9816 -0.19936,-1.49931 l 0.0148,-0.94129 0.67599,1.23473 c 0.37179,0.67909 0.68262,1.35378 0.69077,1.4993 0.0284,0.50781 -0.9698,0.26006 -1.18218,-0.29343 z m -1.26706,-1.9788 c -0.003,-0.3281 0.15332,-0.69466 0.34737,-0.81457 0.44645,-0.27594 0.44645,0.19107 0,0.88194 l -0.34198,0.52917 z m -0.91173,-2.44152 c -0.24678,-0.39926 0.44214,-1.0264 1.0827,-0.98563 0.19402,0.0123 0.14772,0.10472 -0.10292,0.20529 l -0.4557,0.18284 0.41069,0.49486 0.41071,0.49486 h -0.55155 c -0.30334,0 -0.66061,-0.1765 -0.79393,-0.39222 z m 1.61187,-1.01889 c 0,-0.2587 0.10583,-0.36453 0.23518,-0.23518 0.12936,0.12935 0.12936,0.34102 0,0.47037 -0.12935,0.12935 -0.23518,0.0235 -0.23518,-0.23519 z m -2.60173,-0.6342 c -0.0957,-0.15479 -0.0323,-0.51065 0.14086,-0.7908 l 0.31483,-0.50938 0.40727,0.40729 c 0.224,0.224 0.30062,0.57986 0.17026,0.7908 -0.27858,0.45074 -0.78671,0.50095 -1.03322,0.10209 z m -1.98438,-1.12969 c 0,-0.2587 0.10584,-0.36453 0.23519,-0.23518 0.12933,0.12935 0.12933,0.34102 0,0.47037 -0.12935,0.12935 -0.23519,0.0235 -0.23519,-0.23519 z m 1.05834,-0.52916 c 0,-0.097 0.0794,-0.17639 0.17637,-0.17639 0.097,0 0.1764,0.0794 0.1764,0.17639 0,0.097 -0.0794,0.17639 -0.1764,0.17639 -0.097,0 -0.17637,-0.0794 -0.17637,-0.17639 z m 0.35277,-0.88195 c 0,-0.2587 0.10583,-0.36453 0.23518,-0.23518 0.12936,0.12935 0.12936,0.34102 0,0.47037 -0.12935,0.12935 -0.23518,0.0235 -0.23518,-0.23519 z m 2.82223,-0.52916 c 0,-0.097 0.0794,-0.17639 0.17637,-0.17639 0.097,0 0.1764,0.0794 0.1764,0.17639 0,0.097 -0.0794,0.17638 -0.1764,0.17638 -0.097,0 -0.17637,-0.0794 -0.17637,-0.17638 z m -3.175,-0.70556 c 0,-0.097 0.0794,-0.17639 0.17637,-0.17639 0.097,0 0.1764,0.0794 0.1764,0.17639 0,0.097 -0.0794,0.17639 -0.1764,0.17639 -0.097,0 -0.17637,-0.0794 -0.17637,-0.17639 z m 0,-1.05833 c 0,-0.097 0.0794,-0.17639 0.17637,-0.17639 0.097,0 0.1764,0.0794 0.1764,0.17639 0,0.097 -0.0794,0.17639 -0.1764,0.17639 -0.097,0 -0.17637,-0.0794 -0.17637,-0.17639 z m 1.05833,0 c 0,-0.097 0.0794,-0.17639 0.17637,-0.17639 0.097,0 0.1764,0.0794 0.1764,0.17639 0,0.097 -0.0794,0.17639 -0.1764,0.17639 -0.097,0 -0.17637,-0.0794 -0.17637,-0.17639 z m -19.402788,34.57224 c 0,-0.097 -0.0794,-0.1764 -0.17638,-0.1764 -0.097,0 -0.17639,0.0794 -0.17639,0.1764 0,0.097 0.0794,0.17637 0.17639,0.17637 0.097,0 0.17638,-0.0794 0.17638,-0.17637 z m 7.58473,-0.52916 0.70556,-0.30322 -1.05833,-0.0193 c -0.58209,-0.0106 -1.29646,0.13451 -1.5875,0.32261 l -0.52917,0.34197 0.88194,-0.0193 c 0.48506,-0.0106 1.19943,-0.15584 1.5875,-0.32258 z m -22.95041,-6.5676 0.56703,-0.21759 -0.42905,-0.51697 c -0.23598,-0.28432 -0.39158,-1.15189 -0.34579,-1.92791 l 0.0833,-1.41097 -0.80976,0.2431 c -0.44535,0.13369 -1.03177,0.45373 -1.30312,0.7112 l -0.49337,0.46812 0.45143,1.08988 c 0.24831,0.59944 0.70845,1.24004 1.02256,1.42359 0.70138,0.40981 0.5815,0.39669 1.2568,0.13755 z m 4.0768,-0.31157 c 0,-0.097 -0.0794,-0.1764 -0.17639,-0.1764 -0.097,0 -0.1764,0.0794 -0.1764,0.1764 0,0.097 0.0794,0.17637 0.1764,0.17637 0.097,0 0.17639,-0.0794 0.17639,-0.17637 z m -2.82223,-1.41113 c 0,-0.097 -0.0794,-0.17637 -0.17639,-0.17637 -0.097,0 -0.17638,0.0794 -0.17638,0.17637 0,0.097 0.0794,0.1764 0.17638,0.1764 0.097,0 0.17639,-0.0794 0.17639,-0.1764 z m 1.55639,-0.0865 c 0.14457,-0.14456 1.06243,-0.28633 2.03967,-0.31498 l 1.77684,-0.0521 0.65418,-0.65514 c 0.35981,-0.36033 0.70331,-0.97263 0.76335,-1.3607 0.06,-0.38806 0.20166,-0.86431 0.31475,-1.05833 0.60245,-1.0337 1.22033,-6.87917 0.72712,-6.87917 -0.31739,0 -2.54063,3.56926 -2.54063,4.0788 0,0.65995 -2.4946,4.03508 -2.98238,4.03508 -0.61079,0 -2.0183,1.7313 -1.75448,2.15815 0.23508,0.38039 0.64958,0.40045 1.00158,0.0484 z m -0.49805,-0.2663 c 0,-0.097 0.0794,-0.1764 0.17639,-0.1764 0.097,0 0.17638,0.0794 0.17638,0.1764 0,0.097 -0.0794,0.1764 -0.17638,0.1764 -0.097,0 -0.17639,-0.0794 -0.17639,-0.1764 z m 4.5861,-4.40973 c 0,-0.25871 0.10583,-0.36454 0.23519,-0.23519 0.12935,0.12936 0.12935,0.34102 0,0.47038 -0.12936,0.12935 -0.23519,0.0236 -0.23519,-0.23519 z m 0.70556,-1.94027 c 0,-0.097 0.0794,-0.1764 0.1764,-0.1764 0.097,0 0.17637,0.0794 0.17637,0.1764 0,0.097 -0.0794,0.17637 -0.17637,0.17637 -0.097,0 -0.1764,-0.0794 -0.1764,-0.17637 z m 4.7625,4.7625 c 0.11991,-0.19402 -0.0388,-0.35279 -0.35277,-0.35279 -0.31395,0 -0.4727,0.15877 -0.35279,0.35279 0.11993,0.19402 0.27868,0.35277 0.35279,0.35277 0.0741,0 0.23286,-0.15875 0.35277,-0.35277 z m -15.6986,-0.1764 c 0,-0.097 -0.0794,-0.17639 -0.1764,-0.17639 -0.097,0 -0.17639,0.0794 -0.17639,0.17639 0,0.097 0.0794,0.1764 0.17639,0.1764 0.097,0 0.1764,-0.0794 0.1764,-0.1764 z m 0.70554,-0.35277 c 0,-0.097 -0.0794,-0.17639 -0.17637,-0.17639 -0.097,0 -0.1764,0.0794 -0.1764,0.17639 0,0.097 0.0794,0.17638 0.1764,0.17638 0.097,0 0.17637,-0.0794 0.17637,-0.17638 z m 16.93333,0 c 0,-0.097 -0.0794,-0.17639 -0.17637,-0.17639 -0.097,0 -0.1764,0.0794 -0.1764,0.17639 0,0.097 0.0794,0.17638 0.1764,0.17638 0.097,0 0.17637,-0.0794 0.17637,-0.17638 z m -11.78383,-1.50307 c 0.36923,-0.34163 0.85461,-0.95017 1.07858,-1.35231 l 0.40725,-0.7312 h -0.50348 c -0.27691,0 -0.59357,0.35893 -0.70366,0.79764 -0.11009,0.43868 -0.42399,0.8835 -0.69752,0.98846 -0.27353,0.10496 -0.49734,0.35456 -0.49734,0.55469 0,0.50025 0.13983,0.46099 0.91617,-0.25728 z m 14.51841,-0.45437 c 0.80433,-0.59152 1.81245,-1.66309 2.24025,-2.38125 0.42783,-0.71815 1.00819,-1.49412 1.28976,-1.72436 0.28155,-0.23024 0.45562,-0.58698 0.38685,-0.79275 l -0.12504,-0.37415 -1.02502,0.88096 c -0.56375,0.48451 -1.16716,0.88093 -1.34091,0.88093 -0.17375,0 -0.5433,0.51594 -0.82121,1.14652 -0.59751,1.3557 -1.49117,2.44904 -2.46166,3.01165 l -0.7012,0.4065 0.54787,0.0106 c 0.30131,0.006 1.20595,-0.47323 2.01031,-1.06476 z m -4.49845,-0.18004 c 0,-0.3025 -0.15875,-0.45189 -0.35279,-0.33198 -0.19402,0.11994 -0.35277,0.36743 -0.35277,0.54999 0,0.18259 0.15875,0.33197 0.35277,0.33197 0.19404,0 0.35279,-0.24749 0.35279,-0.54998 z m -13.40556,0.0208 c 0,-0.097 -0.0794,-0.1764 -0.1764,-0.1764 -0.097,0 -0.17637,0.0794 -0.17637,0.1764 0,0.097 0.0794,0.17637 0.17637,0.17637 0.097,0 0.1764,-0.0794 0.1764,-0.17637 z m 1.05833,-1.05834 c 0,-0.097 -0.0794,-0.17639 -0.1764,-0.17639 -0.097,0 -0.17637,0.0794 -0.17637,0.17639 0,0.097 0.0794,0.17638 0.17637,0.17638 0.097,0 0.1764,-0.0794 0.1764,-0.17638 z m 5.78144,-4.89968 1.27412,-0.53237 v -0.54716 c 0,-0.69741 -0.83838,-0.70813 -1.41112,-0.018 -0.24154,0.29104 -0.70366,0.52917 -1.02693,0.52917 -0.32327,0 -1.19055,0.30731 -1.92725,0.68291 -0.73671,0.37561 -1.56403,0.59674 -1.83849,0.49141 l -0.499,-0.19148 0.006,2.24261 0.006,2.24261 2.07084,-2.18366 c 1.13898,-1.20102 2.64422,-2.42324 3.34499,-2.71603 z m 7.97689,4.37052 c 0,-0.19405 0.17558,-0.3528 0.39021,-0.3528 0.2146,0 0.70355,-0.39838 1.08656,-0.88529 0.38302,-0.48692 0.84244,-0.79505 1.02093,-0.68474 0.17848,0.11033 0.32453,-0.11692 0.32453,-0.50499 0,-0.38804 -0.15875,-0.80367 -0.35279,-0.92358 -0.48924,-0.30237 -0.44363,-1.23473 0.0604,-1.23473 0.22725,0 0.7035,0.26273 1.05833,0.58386 l 0.64514,0.58383 -0.005,-0.49565 c -0.003,-0.2726 -0.1593,-0.73377 -0.34737,-1.02481 l -0.34197,-0.52917 -0.005,0.40796 -0.006,0.40794 -0.79375,-0.19161 c -0.43656,-0.10539 -1.12972,-0.56677 -1.54035,-1.02532 -1.18525,-1.3235 -2.21967,-0.60909 -2.24078,1.54755 -0.006,0.63061 -0.18696,1.14655 -0.40175,1.14655 -0.21478,0 -0.30109,0.23304 -0.19179,0.51787 0.1093,0.28482 0.0475,0.61132 -0.13735,0.72556 l -0.33607,0.20773 0.53692,1.0383 c 0.50781,0.982 1.57715,1.4468 1.57715,0.68554 z m -0.70556,-1.23473 c 0,-0.097 0.0794,-0.1764 0.1764,-0.1764 0.097,0 0.17639,0.0794 0.17639,0.1764 0,0.097 -0.0794,0.17639 -0.17639,0.17639 -0.097,0 -0.1764,-0.0794 -0.1764,-0.17639 z m 1.7639,-1.05834 c 0,-0.097 0.0794,-0.17639 0.17639,-0.17639 0.097,0 0.17638,0.0794 0.17638,0.17639 0,0.097 -0.0794,0.1764 -0.17638,0.1764 -0.097,0 -0.17639,-0.0794 -0.17639,-0.1764 z m -15.39465,1.05834 c 0.11168,-0.29104 0.0493,-0.52917 -0.13864,-0.52917 -0.18794,0 -0.34171,0.23813 -0.34171,0.52917 0,0.29104 0.0624,0.52916 0.13864,0.52916 0.0762,0 0.23003,-0.23812 0.34171,-0.52916 z m 11.04373,-2.17546 c -0.12935,-0.12935 -0.34102,-0.12935 -0.47037,0 -0.12936,0.12935 -0.0236,0.23519 0.23518,0.23519 0.25869,0 0.36452,-0.10584 0.23519,-0.23519 z m 8.83481,-0.82315 c 0.10147,-0.38806 0.36592,-0.70556 0.58767,-0.70556 0.22174,0 0.60145,-0.3175 0.84378,-0.70556 l 0.44064,-0.70554 -1.14951,0.0249 c -0.63225,0.0138 -1.46704,0.16124 -1.85508,0.32798 l -0.70556,0.30318 0.55626,0.0249 0.55626,0.0249 -0.15534,1.05834 -0.15531,1.05833 h 0.42585 c 0.23421,0 0.50887,-0.3175 0.61034,-0.70554 z m -0.13298,-1.64629 c 0.12936,-0.12935 0.34102,-0.12935 0.47038,0 0.12935,0.12933 0.0235,0.23517 -0.23519,0.23517 -0.25868,0 -0.36452,-0.10584 -0.23519,-0.23517 z m -20.09833,0.76433 c 0.11168,-0.29104 0.0493,-0.52916 -0.13867,-0.52916 -0.18793,0 -0.34168,0.23812 -0.34168,0.52916 0,0.29104 0.0624,0.52917 0.13864,0.52917 0.0762,0 0.23003,-0.23813 0.34171,-0.52917 z m 2.5904,-0.39645 c -0.0397,-0.0387 -0.52332,0.0161 -1.07474,0.12216 l -1.00256,0.19256 0.44183,0.27308 c 0.35513,0.21947 1.89545,-0.33414 1.63547,-0.5878 z m 21.7664,-0.83825 c 0.69696,-0.97016 1.11239,-1.76391 0.92316,-1.76391 -0.18923,0 -0.62185,0.43656 -0.96139,0.97015 -0.33954,0.53357 -0.70041,1.0495 -0.8019,1.14653 -0.1015,0.097 -0.40241,0.45421 -0.66871,0.79375 l -0.48416,0.61735 h 0.36287 c 0.19961,0 0.93314,-0.79375 1.63013,-1.76387 z m -18.48715,0.88193 c 0,-0.097 -0.0794,-0.17639 -0.1764,-0.17639 -0.097,0 -0.1764,0.0794 -0.1764,0.17639 0,0.097 0.0794,0.1764 0.1764,0.1764 0.097,0 0.1764,-0.0794 0.1764,-0.1764 z m 12.13188,-1.03259 -0.19317,-0.50343 0.82161,0.15454 c 0.45188,0.085 0.58349,0.0527 0.29245,-0.0718 -0.29105,-0.12452 -0.85781,-0.62527 -1.25947,-1.11279 -0.40167,-0.48755 -0.92454,-0.82167 -1.16192,-0.74255 l -0.43164,0.14388 0.72096,0.77388 c 0.39653,0.42561 0.72096,1.01862 0.72096,1.31779 0,0.29914 0.15375,0.54391 0.34171,0.54391 0.18794,0 0.25477,-0.22654 0.14851,-0.50343 z m -12.98389,-0.90234 c 0.19108,-0.19111 0.82002,-0.39918 1.39766,-0.46241 1.58604,-0.17365 3.30366,-1.04249 3.26099,-1.64956 -0.087,-1.23756 0.12898,-1.62608 1.15652,-2.08091 0.59544,-0.26357 1.44309,-0.83969 1.88367,-1.28027 0.44059,-0.44058 1.44719,-0.91022 2.2369,-1.04364 l 1.43586,-0.24259 0.3179,0.56809 0.31792,0.56809 0.47914,-0.89524 0.4791,-0.89524 -0.43238,-0.80794 -0.43241,-0.80793 2.64359,-2.78438 c 1.45394,-1.53141 2.98101,-3.44048 3.39341,-4.24237 l 0.74988,-1.45798 -0.43145,-0.94692 c -0.23728,-0.52081 -0.55438,-0.94692 -0.70464,-0.94692 -0.63024,0 -2.16292,0.74323 -1.9571,0.94904 0.12306,0.12306 -0.40216,0.50399 -1.16718,0.84649 -2.61437,1.17049 -5.30871,4.8776 -5.30871,7.30416 0,0.59671 -0.16991,1.53182 -0.37758,2.07803 l -0.37759,0.99311 -0.36769,-0.65702 c -0.20225,-0.36136 -0.27773,-1.21139 -0.16777,-1.88896 0.26133,-1.61049 -0.0674,-3.17901 -0.71872,-3.42893 l -0.51906,-0.19919 0.14603,0.43807 c 0.16465,0.49398 -0.0103,0.68676 -2.11553,2.33116 -0.82463,0.6441 -1.49932,1.45674 -1.49932,1.80586 v 0.63477 l -0.73194,0.19141 -0.73194,0.19141 0.38724,0.7236 c 0.21299,0.39797 0.69747,0.88962 1.07664,1.09254 0.37918,0.20292 0.86762,0.70197 1.08546,1.10899 l 0.39605,0.74004 -0.40344,-0.24933 c -0.22188,-0.13713 -0.62764,-0.0633 -0.90167,0.16419 -0.27405,0.22743 -0.66336,0.31147 -0.86516,0.18676 -0.77658,-0.47995 -1.83565,-0.48174 -2.93248,-0.005 -0.62767,0.27287 -0.99759,0.50233 -0.82198,0.50993 0.17557,0.008 0.0742,0.29162 -0.22535,0.63117 -0.29951,0.33954 -0.65151,1.12096 -0.78224,1.73646 l -0.23765,1.11911 0.81576,0.15576 c 0.44866,0.0857 0.90308,0.1774 1.00979,0.20381 0.1067,0.0265 0.35038,-0.1083 0.54147,-0.29938 z m 5.43811,-4.76785 c 0,-0.097 0.0794,-0.17639 0.1764,-0.17639 0.097,0 0.17637,0.0794 0.17637,0.17639 0,0.097 -0.0794,0.17639 -0.17637,0.17639 -0.097,0 -0.1764,-0.0794 -0.1764,-0.17639 z m 4.87275,-3.59238 c 0.25466,-0.1019 0.55893,-0.0894 0.67614,0.0279 0.11724,0.11723 -0.0911,0.20061 -0.46302,0.18529 l -0.67614,-0.0279 z m 7.34465,7.62056 c 0.65347,-0.40389 1.18835,-0.84045 1.18859,-0.97015 2.4e-4,-0.12969 0.39711,-0.69706 0.88193,-1.26082 1.017718,-1.18337 1.058968,-1.38716 0.39278,-1.94004 l -0.48872,-0.40562 -2.73129,0.89159 c -1.50222,0.49037 -3.01919,0.89158 -3.371,0.89158 -0.97129,0 -1.10146,0.53108 -0.42085,1.71696 1.07794,1.87821 2.64954,2.25014 4.54856,1.0765 z m -2.33963,0.20516 c 0,-0.097 0.0794,-0.1764 0.1764,-0.1764 0.097,0 0.17639,0.0794 0.17639,0.1764 0,0.097 -0.0794,0.17637 -0.17639,0.17637 -0.097,0 -0.1764,-0.0794 -0.1764,-0.17637 z m 6.336268,-1.30125 c 0.6755,-0.72507 0.86013,-1.15822 0.76107,-1.78556 -0.023,-0.14552 0.11078,-0.26459 0.29726,-0.26459 0.62222,0 1.77763,-1.53365 1.77763,-2.35957 0,-0.97308 -0.3928,-1.04019 -1.15549,-0.19742 -0.53168,0.58749 -1.48979,2.7027 -1.25055,2.76084 0.0622,0.0151 -0.33166,0.61042 -0.87511,1.32292 -1.066558,1.39833 -0.73409,1.78917 0.44519,0.52338 z m -12.535058,-1.1934 c 0.30488,-0.3049 0.55435,-0.78115 0.55435,-1.05833 0,-0.77105 -1.18192,-0.59919 -1.71153,0.24886 l -0.47017,0.75284 0.4735,0.30009 c 0.60203,0.38158 0.50922,0.40116 1.15385,-0.24346 z m -0.85675,-0.32758 c 0,-0.097 0.0794,-0.17639 0.17637,-0.17639 0.097,0 0.1764,0.0794 0.1764,0.17639 0,0.097 -0.0794,0.17639 -0.1764,0.17639 -0.097,0 -0.17637,-0.0794 -0.17637,-0.17639 z m 5.8075,-1.71052 0.65069,-0.4758 -1.11244,-0.38779 -1.11242,-0.3878 v 0.62841 c 0,1.14566 0.55759,1.36633 1.57417,0.62298 z m 3.19368,-1.64087 h 0.85227 l 1.08265,-1.05833 c 0.59547,-0.58208 1.315328,-1.05833 1.599668,-1.05833 0.28435,0 0.517,-0.16812 0.517,-0.3736 0,-0.20548 0.13568,-0.28975 0.30149,-0.18726 0.40675,0.25138 1.68169,-1.15117 2.13567,-2.34941 0.48643,-1.28397 0.10969,-3.02071 -0.75576,-3.48388 l -0.69485,-0.37187 -1.04574,1.00176 c -0.57518,0.55096 -1.471818,1.67616 -1.992598,2.50043 -0.52075,0.82427 -1.10556,1.49993 -1.29961,1.50147 -0.49575,0.004 -4.05693,3.33485 -4.05693,3.79462 0,0.20811 0.43656,0.52709 0.97014,0.70883 l 0.97013,0.33045 0.28212,-0.47744 c 0.15515,-0.26259 0.66561,-0.47744 1.13435,-0.47744 z m 4.051588,-3.70416 c 0,-0.097 0.0794,-0.17639 0.1764,-0.17639 0.097,0 0.17637,0.0794 0.17637,0.17639 0,0.097 -0.0794,0.17638 -0.17637,0.17638 -0.097,0 -0.1764,-0.0794 -0.1764,-0.17638 z m 0.35277,-1.05834 c 0,-0.097 0.0794,-0.17639 0.1764,-0.17639 0.097,0 0.17639,0.0794 0.17639,0.17639 0,0.097 -0.0794,0.17639 -0.17639,0.17639 -0.097,0 -0.1764,-0.0794 -0.1764,-0.17639 z m 0.16134,5.49243 c 0.11163,-0.18062 0.0681,-0.41176 -0.0968,-0.51364 -0.16487,-0.10189 -0.29975,0.0459 -0.29975,0.3284 0,0.59484 0.11126,0.64681 0.39653,0.18524 z m 3.24885,-1.67067 c -0.12936,-0.12935 -0.23519,-0.0235 -0.23519,0.23519 0,0.2587 0.10583,0.36453 0.23519,0.23518 0.12935,-0.12935 0.12935,-0.34102 0,-0.47037 z m -3.41019,0.0588 c 0,-0.097 -0.0794,-0.17639 -0.17637,-0.17639 -0.097,0 -0.1764,0.0794 -0.1764,0.17639 0,0.097 0.0794,0.17639 0.1764,0.17639 0.097,0 0.17637,-0.0794 0.17637,-0.17639 z m -7.408328,-1.76389 c 0,-0.097 -0.0794,-0.17639 -0.17638,-0.17639 -0.097,0 -0.17639,0.0794 -0.17639,0.17639 0,0.097 0.0794,0.17639 0.17639,0.17639 0.097,0 0.17638,-0.0794 0.17638,-0.17639 z m -5.82084,-5.46806 c 0.11994,-0.19402 -0.0201,-0.35277 -0.31112,-0.35277 -0.29104,0 -0.62728,0.15875 -0.74721,0.35277 -0.11991,0.19403 0.0201,0.35278 0.31115,0.35278 0.29104,0 0.62727,-0.15875 0.74718,-0.35278 z m 1.5875,-0.52916 c 0,-0.097 -0.0794,-0.17639 -0.17637,-0.17639 -0.097,0 -0.1764,0.0794 -0.1764,0.17639 0,0.097 0.0794,0.17639 0.1764,0.17639 0.097,0 0.17637,-0.0794 0.17637,-0.17639 z m 0.63744,-1.42045 c -0.10862,-0.10861 -0.30589,0.0872 -0.43837,0.43509 l -0.24087,0.63258 0.43836,-0.43509 c 0.24109,-0.2393 0.34949,-0.52396 0.24088,-0.63258 z m 1.00888,-0.75502 c -0.12936,-0.12935 -0.34102,-0.12935 -0.47038,0 -0.12935,0.12935 -0.0236,0.23519 0.23519,0.23519 0.25868,0 0.36452,-0.10584 0.23519,-0.23519 z m 11.759248,-0.3148 c 0,-0.30249 -0.16135,-0.45027 -0.35854,-0.3284 -0.19719,0.12187 -0.2672,0.36937 -0.15558,0.54999 0.30242,0.48931 0.51412,0.39808 0.51412,-0.22159 z m -9.524998,-1.39028 c 0,-0.097 -0.0794,-0.17639 -0.1764,-0.17639 -0.097,0 -0.17637,0.0794 -0.17637,0.17639 0,0.097 0.0794,0.17638 0.17637,0.17638 0.097,0 0.1764,-0.0794 0.1764,-0.17638 z m 1.05833,-0.35278 c 0,-0.097 -0.0794,-0.17639 -0.1764,-0.17639 -0.097,0 -0.17637,0.0794 -0.17637,0.17639 0,0.097 0.0794,0.17639 0.17637,0.17639 0.097,0 0.1764,-0.0794 0.1764,-0.17639 z m 2.11667,-1.05833 c 0,-0.097 -0.0794,-0.17639 -0.1764,-0.17639 -0.097,0 -0.17637,0.0794 -0.17637,0.17639 0,0.097 0.0794,0.17639 0.17637,0.17639 0.097,0 0.1764,-0.0794 0.1764,-0.17639 z"
       id="path5922" />
  </g>
</svg>
