<?xml version="1.0" encoding="UTF-8" standalone="no"?>
<!-- Created with Inkscape (http://www.inkscape.org/) -->

<svg
   width="46.564442mm"
   height="49.855778mm"
   viewBox="0 0 46.564442 49.855778"
   version="1.1"
   id="svg1"
   xmlns="http://www.w3.org/2000/svg"
   xmlns:svg="http://www.w3.org/2000/svg">
  <defs
     id="defs1" />
  <g
     id="layer1"
     transform="translate(14.977408,559.50752)">
    <path
       style="fill:#000000;stroke-width:0.264583"
       d="m 29.769883,-509.97202 c -0.41403,0.13322 -1.23748,0.0997 -1.82986,-0.0745 -0.59238,-0.17418 -1.77729,-0.10022 -2.63307,0.16435 -1.50519,0.46531 -3.48669,0.20098 -4.26205,-0.56854 -0.2073,-0.20576 -0.68044,-0.68906 -1.05142,-1.07402 -0.37097,-0.38493 -0.82955,-0.57593 -1.01907,-0.42439 -0.18928,0.15178 -1.086,0.0776 -1.99219,-0.1643 l -1.6476,-0.43977 -1.48256,-1.74315 -1.48254,-1.74314 -0.99963,-0.0808 -0.99963,-0.0807 -0.7257199,-1.19379 -0.72571,-1.19375 -0.77531,1.03227 -0.775303,1.03226 -0.866604,-0.24907 -0.866575,-0.24909 -0.913675,1.58377 c -0.502529,0.87109 -1.40973,2.13542 -2.016014,2.80967 l -1.102318,1.22588 -1.33283705,-0.31119 -1.33285595,-0.31118 -0.878682,0.74732 -0.878702,0.74734 -1.926383,-0.2001 c -2.422503,-0.25166 -5.6395411,-0.72209 -6.7511401,-0.98724 -1.681488,-0.40112 -3.69941,-3.56884 -2.774514,-4.35546 0.216501,-0.18414 0.316848,-0.42578 0.222993,-0.53699 -0.09428,-0.11085 -0.01823,-0.74086 0.168014,-1.39922 l 0.338661,-1.19701 -0.717481,-0.56684 -0.717515,-0.56683 0.134011,-1.19342 c 0.07369,-0.65638 0.465282,-1.746 0.870202,-2.4214 l 0.73621,-1.22794 -0.247483,-1.00224 c -0.325064,-1.31635 0.366955,-2.92913 1.980889,-4.61647 l 1.308235,-1.36771 -0.387252,-1.00031 -0.387232,-1.00029 0.463686,-0.84334 0.463667,-0.84335 -0.885776,-1.04147 c -1.150184,-1.35236 -1.836697,-3.1496 -1.358467,-3.55634 l 0.376811,-0.32048 -0.664359,-0.78114 c -1.542535,-1.81367 -2.29363,-6.19693 -1.218562,-7.11128 l 0.518257,-0.44077 -0.410362,-2.31849 c -0.225697,-1.27515 -0.273118,-2.78526 -0.105385,-3.35578 l 0.304983,-1.03728 3.022321,0.29601 c 1.6622771,0.16282 3.1208281,0.21222 3.2412731,0.10978 0.389568,-0.33133 2.893374,0.24972 4.011286,0.93089 l 1.087345,0.66254 1.46885195,-0.16193 1.468843,-0.16189 1.21507905,0.81902 c 0.668303,0.45044 1.656405,1.30941 2.195754,1.90881 l 0.980658,1.08978 1.432388,-0.92389 c 0.787814,-0.50818 1.822739,-0.89239 2.299829,-0.85384 l 0.86742,0.07 0.7528899,-1.00201 c 1.74839,-2.32684 2.51766,-2.7753 6.61616,-3.85704 0.60401,-0.15944 1.49602,-0.62821 1.98223,-1.04173 l 0.88403,-0.75186 0.80413,0.2096 c 0.44227,0.11529 1.20251,0.0128 1.6894,-0.22773 0.48688,-0.24056 1.05413,-0.38283 1.2605,-0.31615 0.2064,0.0667 0.7598,-0.0154 1.22979,-0.18246 l 0.85454,-0.30369 0.40356,0.47866 c 0.22112,0.264 0.5179,0.97836 0.65718,1.58948 0.31305,1.37373 0.55158,1.66627 1.3436,1.64773 l 0.62167,-0.0145 0.47545,1.02459 0.47545,1.02462 -0.68244,1.65558 -0.68243,1.65559 0.41357,0.48626 c 0.22744,0.26742 0.35186,1.24992 0.27645,2.1833 l -0.13708,1.69703 -1.05471,1.39397 c -0.58009,0.76666 -1.38322,1.80403 -1.78473,2.30526 -0.40153,0.50124 -0.63033,1.02858 -0.50847,1.17187 0.27129,0.31896 -0.9896,3.07357 -1.68345,3.67772 -0.27664,0.24052 -0.92249,1.36786 -1.43561,2.50474 l -0.93295,2.06705 0.37297,0.46589 c 0.20511,0.25629 0.53621,0.44102 0.73568,0.41062 0.19946,-0.0304 0.92554,0.43559 1.61349,1.03553 l 1.2508,1.09078 -0.16156,0.50021 -0.16157,0.50021 1.83824,1.2437 c 2.7941,1.89046 3.08418,2.50323 2.6533,5.60531 l -0.11381,0.81919 0.73564,0.86496 c 0.40461,0.47573 0.6783,1.04256 0.60819,1.2596 -0.0701,0.21708 0.0652,0.62122 0.30074,0.89814 0.23553,0.27693 0.25949,0.77341 0.0532,1.10331 -0.3655,0.5847 -0.3923,3.38145 -0.0367,3.8341 0.72649,0.9248 -0.20204,2.91725 -1.56366,3.35538 z m 0.28459,-5.33468 c -0.20037,-1.83521 -0.5878,-3.51591 -0.86095,-3.73489 l -0.49663,-0.39811 -0.0694,0.85917 c -0.0382,0.47256 -0.051,1.19798 -0.0285,1.61207 0.077,1.41683 -0.29614,3.05483 -0.88164,3.87031 l -0.58542,0.81528 -0.2021,-0.57429 c -0.11116,-0.31586 -0.0221,-0.72742 0.19794,-0.91456 0.50689,-0.43111 1.09067,-2.69115 0.78727,-3.04789 l -0.22839,-0.26854 -0.39238,0.6277 -0.39236,0.62769 -0.23326,-0.27426 c -0.12831,-0.15086 0.0911,-0.94666 0.48765,-1.76846 l 0.72091,-1.49419 -0.91238,-2.88001 -0.91241,-2.87998 -1.64487,-1.6113 c -0.90466,-0.88619 -1.97619,-1.85047 -2.3812,-2.14281 l -0.7363,-0.53154 0.65401,0.13842 0.65405,0.13841 -1.31325,-1.18213 c -1.0756,-0.96821 -3.44016,-2.15107 -2.80342,-1.40241 0.10108,0.11885 -0.43761,0.31075 -1.19706,0.42648 -1.76338,0.2687 -1.77412,0.28176 -1.16919,1.41975 0.27973,0.52622 0.39727,1.05146 0.26123,1.16716 -0.13607,0.11573 0.318,0.87516 1.00902,1.68764 l 1.25639,1.47723 -0.0546,1.82323 -0.0546,1.82326 0.55097,0.0445 c 0.53934,0.0436 2.83605,2.03731 5.8937,5.11625 l 1.53251,1.54322 -0.26705,0.48926 -0.26705,0.48928 -0.68192,-0.26811 c -0.37505,-0.14746 -0.67501,-0.3537 -0.66654,-0.45829 0.0149,-0.18457 -4.74082,-4.98581 -5.79259,-5.84804 -0.28745,-0.23564 -1.26975,-0.34599 -2.18288,-0.24518 l -1.66025,0.18327 -1.55171,-1.20967 c -0.85343,-0.6653 -1.71624,-1.51589 -1.91738,-1.89013 -0.57607,-1.072 -1.09479,-0.69882 -1.3017,0.93645 l -0.19022,1.50326 1.17398,1.459 c 0.64569,0.80242 1.97851,2.38982 2.96185,3.52754 l 1.78782,2.06858 -0.26233,0.22312 c -0.14429,0.12271 -0.0726,0.28439 0.1592,0.35928 0.23185,0.0749 0.53972,-0.0804 0.68417,-0.34502 l 0.26263,-0.4812 0.0664,0.43563 c 0.0365,0.23962 0.5296,0.49516 1.09574,0.56791 1.54679,0.19872 2.54874,0.69449 3.39437,1.67949 l 0.76187,0.88761 -0.0786,-0.55788 -0.0786,-0.55785 0.98377,0.79645 0.98376,0.79644 0.89576,-0.47616 c 0.4927,-0.26191 1.76971,-0.39509 2.83781,-0.296 2.6374,0.24471 2.81354,-0.0408 2.39424,-3.88136 z m -6.77061,3.56926 c -0.18234,-0.0147 -0.4378,-0.15174 -0.5677,-0.30447 l -0.23617,-0.27769 0.58846,0.0475 c 0.32366,0.0261 0.57912,0.16316 0.5677,0.30447 -0.0114,0.14132 -0.16997,0.24485 -0.35227,0.23017 z m -5.06008,-5.41408 c -1.02479,-0.0828 -1.92445,-3.20307 -0.96565,-3.34914 l 0.41953,-0.0639 0.48251,1.23067 c 0.5437,1.3867 0.56808,2.22316 0.0636,2.1824 z m 3.20152,-5.80825 c -1.45478,0.16128 -1.95533,-0.0449 -1.35291,-0.55724 0.44953,-0.38233 2.65004,-0.49697 2.94234,-0.15329 0.31527,0.37068 -0.0675,0.54182 -1.58943,0.71053 z m -0.97886,-6.7601 -0.59331,-0.3258 0.6158,0.0474 c 0.33869,0.0261 0.60567,0.1727 0.5933,0.3258 -0.0123,0.15312 -0.28943,0.13182 -0.61579,-0.0474 z m -1.51585,-0.93053 c -0.0628,-0.0739 -0.0538,-0.18579 0.0201,-0.24865 0.0739,-0.0628 0.18579,-0.0538 0.24864,0.0201 0.0628,0.0739 0.0538,0.18578 -0.0201,0.24862 -0.0739,0.0629 -0.18581,0.0538 -0.24863,-0.0201 z m 8.24434,5.53193 c -0.19775,-0.10836 -0.22298,0.20776 -0.056,0.70261 0.16696,0.49477 0.46445,0.95469 0.66113,1.02201 0.44874,0.15362 -0.11632,-1.45671 -0.60516,-1.72462 z m -11.5414,2.7524 c -0.18233,-0.0147 -0.34357,0.12242 -0.35831,0.30474 -0.0147,0.18232 0.13443,0.19442 0.33152,0.0268 0.19708,-0.16761 0.20912,-0.3168 0.0268,-0.33153 z m 1.79503,-1.77367 0.0482,-0.59674 -1.66844,-1.96171 -1.66845,-1.96172 0.4031,-0.34283 c 0.67568,-0.57467 -0.10127,-1.03774 -1.93819,-1.15519 l -1.74529,-0.11161 1.38147,1.24846 1.38145,1.24847 -0.30224,0.5538 c -0.40008,0.73303 -0.47308,0.70863 -1.86743,-0.62452 -0.65864,-0.62973 -1.38015,-1.20394 -1.6033299,-1.27605 -0.48408,-0.15636 -0.0115,-1.55202 0.5160499,-1.52413 0.42429,0.0224 -0.9027099,-0.8832 -1.7477099,-1.19277 l -0.57089,-0.20914 0.62047,0.74587 c 0.34126,0.41019 0.50902,0.84062 0.37298,0.95632 -0.13607,0.11573 -0.0221,0.63424 0.25325,1.15221 0.27535,0.51802 0.52123,1.48006 0.54642,2.1379 l 0.0458,1.19609 0.9945199,-0.0583 0.99451,-0.0583 1.12008,1.27734 1.12008,1.27736 0.60429,-0.29115 c 0.33233,-0.16017 0.726,-0.14808 0.87475,0.0268 0.28269,0.33237 1.34693,0.51394 1.62518,0.27728 0.0887,-0.0754 0.18293,-0.40566 0.20944,-0.73387 z m -6.55178,4.89309 c -0.18234,-0.0147 -0.19438,0.13447 -0.0268,0.33153 0.16759,0.19705 0.31678,0.20911 0.33153,0.0268 0.0147,-0.18234 -0.12241,-0.34357 -0.30475,-0.35831 z m 12.89897,-10.97061 c -0.18234,-0.0147 -0.19438,0.13447 -0.0268,0.33153 0.16759,0.19705 0.31678,0.2091 0.33152,0.0268 0.0147,-0.18234 -0.1224,-0.34358 -0.30474,-0.35831 z m -16.2723869,10.90664 c -0.03434,-0.2255 -0.243869,-0.2557 -0.465548,-0.0672 -0.221701,0.18856 -0.374976,0.52732 -0.340638,0.75282 0.03437,0.2255 0.243881,0.25571 0.465581,0.0671 0.221701,-0.18855 0.374977,-0.52732 0.340605,-0.75281 z m -5.064704,3.85153 c -0.03383,-0.22205 0.214524,-0.61833 0.551932,-0.88063 1.658001,-1.28897 4.637417,-4.67112 5.113209,-5.80432 l 0.53572,-1.27594 -0.977183,-1.88118 c -0.537464,-1.03465 -1.307686,-2.7349 -1.711647,-3.77835 l -0.734433,-1.89716 -0.490298,0.0747 c -0.269661,0.0411 -0.748915,0.39476 -1.064988,0.78592 -1.122684,1.38919 -5.751806,5.78676 -5.903608,5.60828 -0.08485,-0.0998 -0.844528,0.78351 -1.688234,1.96279 -0.843666,1.17928 -2.204377,2.8534 -3.023807,3.72025 l -1.489865,1.5761 -0.514135,-0.28061 c -0.734612,-0.40096 -0.413027,-1.0437 1.099569,-2.19778 0.725805,-0.55377 2.3233,-2.31328 3.55003,-3.91003 l 2.230391,-2.90315 1.86312695,-1.18904 c 1.024731,-0.65401 2.40321805,-1.71172 3.06332405,-2.35053 l 1.200175,-1.16143 -2.211896,-0.63577 -2.21192305,-0.63576 -1.10733295,-1.12045 c -1.058877,-1.07139 -4.150821,-2.74708 -4.517656,-2.44832 -0.09651,0.0781 -0.50917,0.30105 -0.917516,0.49477 l -0.742461,0.3522 0.369507,0.43445 c 0.584904,0.68772 -0.08008,0.93829 -0.912569,0.34385 l -0.754798,-0.53899 -0.364946,0.45797 -0.364938,0.45793 0.560752,0.65932 0.560739,0.6593 -1.284763,1.70094 -1.2847561,1.70095 -0.07625,1.87176 c -0.04195,1.02944 -0.341551,2.23828 -0.665803,2.68627 l -0.589579,0.81452 -0.0083,2.15448 c -0.0046,1.18496 0.07206,2.25058 0.170332,2.36804 0.0992,0.11663 0.06739,1.2899 -0.06857,2.60544 -0.135973,1.31551 -0.09941,2.71533 0.08123,3.11069 l 0.328423,0.71883 1.408271,-0.1342 c 0.7745721,-0.0738 1.5251391,-0.11935 1.6679331,-0.10117 0.142813,0.0182 0.614734,-0.0395 1.048727,-0.12826 l 0.789045,-0.16127 0.803964,0.77465 0.803965,0.77466 0.386082,-0.32836 c 0.212329,-0.18059 0.536362,-0.15163 0.720085,0.0644 l 0.334023,0.39273 1.272578,-0.60183 c 0.699926,-0.33103 1.89692395,-1.00078 2.65998295,-1.48832 0.763059,-0.48758 1.41176705,-0.7265 1.44158305,-0.53095 0.02979,0.19557 0.29602,0.14987 0.591628,-0.10155 0.295609,-0.25142 0.509773,-0.63877 0.475948,-0.86081 z m -0.270104,-2.52407 c -0.202038,-0.0652 -0.309057,-0.29914 -0.237813,-0.51975 0.07126,-0.22059 0.289895,-0.21255 0.485876,0.0179 0.401473,0.47204 0.299321,0.67868 -0.248063,0.50187 z m -3.379865,2.30229 c -0.567025,-0.68345 -0.909775,-3.54082 -0.487947,-4.067 l 0.421956,-0.52636 0.40664695,2.10846 c 0.400521,2.07671 0.247373,3.19385 -0.34065595,2.4849 z m 4.865906,-5.1602 c -0.562054,-0.66085 -1.348822,-3.82257 -1.075732,-4.32296 0.464253,-0.85058 0.689975,-0.51213 1.280994,1.92088 0.550531,2.26628 0.470992,3.19721 -0.205262,2.40208 z m -13.171756,4.66016 c -0.06284,-0.0739 -0.05382,-0.1858 0.02007,-0.24864 0.07391,-0.0628 0.185811,-0.0538 0.248655,0.0201 0.06284,0.0739 0.05381,0.18577 -0.02011,0.24863 -0.07389,0.0628 -0.185791,0.0538 -0.248615,-0.0201 z m 0.281201,-3.48099 c -0.06284,-0.0739 -0.0538,-0.18577 0.02011,-0.24863 0.07389,-0.0628 0.185791,-0.0538 0.248615,0.0201 0.06284,0.0739 0.05381,0.1858 -0.02007,0.24864 -0.07391,0.0628 -0.185813,0.0538 -0.24865,-0.0201 z m 1.463402,-3.83182 c -1.739214,0.12317 -2.5484571,-0.10804 -2.00275,-0.57217 0.225631,-0.1919 2.328994,-0.31037 3.932491,-0.22148 l 0.642241,0.0356 -0.369334,0.31412 c -0.203139,0.17277 -1.194332,0.37255 -2.202648,0.44394 z m -2.3374401,2.25965 c -0.06284,-0.0739 -0.05382,-0.1858 0.02009,-0.24866 0.0739,-0.0629 0.1858121,-0.0538 0.2486551,0.0201 0.06284,0.0739 0.0538,0.18577 -0.02011,0.24863 -0.0739,0.0629 -0.1858131,0.0538 -0.2486371,-0.0201 z m 4.4383611,-6.85106 c -0.870058,-0.0604 -1.57292,-0.22107 -1.561957,-0.35704 0.02705,-0.33488 3.089603,-0.47923 3.362389,-0.15849 0.391191,0.45995 -0.192792,0.62718 -1.800432,0.51553 z m 3.339575,-5.78462 c -0.06284,-0.0739 -0.05381,-0.18577 0.02009,-0.24861 0.0739,-0.0629 0.185812,-0.0538 0.248636,0.0201 0.06284,0.0739 0.05382,0.1858 -0.02009,0.24866 -0.07389,0.0628 -0.185791,0.0538 -0.248635,-0.0201 z m -2.78909,-1.10124 c -0.167611,-0.19707 -0.155557,-0.34625 0.02679,-0.33152 0.182338,0.0147 0.319473,0.17597 0.304739,0.35831 -0.01473,0.18234 -0.163865,0.17035 -0.331527,-0.0268 z m 26.3466009,-1.2521 -0.41512,-0.6572 1.23638,-1.19486 1.23637,-1.19484 0.47451,-1.51825 c 0.26098,-0.83504 1.08099,-2.23203 1.82227,-3.10441 1.64429,-1.93518 2.42444,-3.31505 2.09395,-3.70363 -0.13623,-0.16017 -0.0725,-0.31794 0.14171,-0.35056 0.43971,-0.067 0.19257,-1.69939 -0.26286,-1.73619 -0.16173,-0.013 -0.28816,0.28696 -0.28087,0.66681 0.0144,0.75545 -0.95627,3.63455 -1.14901,3.40793 -0.0657,-0.0773 -0.0329,-0.82437 0.0729,-1.66028 l 0.19231,-1.51979 -1.08667,-0.62078 c -1.32726,-0.75824 -1.79132,-1.26503 -1.2359,-1.34965 0.22917,-0.0349 0.44311,0.11004 0.47544,0.3221 0.0323,0.2121 0.53321,0.48155 1.11313,0.59881 l 1.05441,0.21318 0.75736,-1.79386 c 0.99318,-2.35235 0.9891,-2.47468 -0.0919,-2.75647 l -0.92077,-0.24003 -1.23883,1.05362 c -1.60007,1.36088 -1.55364,1.01721 0.0995,-0.7365 0.71558,-0.75911 1.36042,-1.56387 1.43291,-1.78836 l 0.13186,-0.40818 -0.62941,0.12407 c -0.34618,0.0682 -0.69977,-0.0759 -0.78574,-0.32017 -0.086,-0.24432 -0.71753,-0.34718 -1.40348,-0.22858 -0.68594,0.11862 -1.23662,0.0855 -1.22378,-0.0735 0.0128,-0.15907 0.62732,-0.33043 1.36549,-0.3808 0.73818,-0.0504 1.35365,-0.24262 1.36768,-0.42717 0.0436,-0.57286 -2.5787,-0.2885 -3.2958,0.35742 -0.37381,0.33671 -1.26933,0.74871 -1.99005,0.91559 l -1.31033,0.30341 -0.76118,0.89435 -0.76116,0.89432 -0.17907,-0.50883 -0.17906,-0.50882 -0.56622,0.48157 c -0.31141,0.26486 -1.02497,0.44448 -1.5857,0.3992 l -1.0195,-0.0824 -2.09758,1.99867 -2.0976199,1.99868 -0.83415,-0.164 -0.83417,-0.16401 -1.430307,1.85766 c -2.104229,2.73294 -2.379899,3.39532 -2.33917,5.62041 l 0.03697,2.01799 1.044294,0.61266 1.0443,0.6127 1.106757,1.61102 1.106746,1.611 0.99023,-1.11644 c 0.5446199,-0.61405 2.7266099,-2.8103 4.8488699,-4.88058 2.12228,-2.07026 3.96507,-3.94662 4.09509,-4.16967 0.47834,-0.82062 2.85704,-3.04172 3.0343,-2.8333 0.63825,0.75043 -0.27647,1.86761 -6.24671,7.62954 -2.09835,2.02511 -4.1443,4.10482 -4.54656,4.62158 l -0.7314,0.93957 0.55479,0.27561 c 0.30515,0.15161 1.18195,0.82458 1.94848,1.49551 0.76652,0.67093 1.55514,1.27202 1.75248,1.33575 0.19732,0.0637 0.38579,0.48424 0.41898,0.93426 l 0.0602,0.81834 1.16118,-0.35263 c 1.11608,-0.33895 3.34265,-1.62458 4.92112,-2.84146 l 0.75226,-0.57995 z m -5.75099,-1.5282 c -1.96223,-0.31278 -2.49768,-0.57104 -2.02224,-0.97541 0.26717,-0.22723 3.89985,0.12545 4.45771,0.43276 0.82588,0.45502 -0.76353,0.80913 -2.43547,0.54265 z m 4.14294,-3.93485 c -1.80639,0.40214 -1.94415,0.29069 -0.54652,-0.44222 1.27808,-0.67019 1.9197,-0.80195 2.21494,-0.45482 0.30528,0.35894 -0.008,0.52739 -1.66842,0.89704 z m 7.58569,-10.81973 c -0.0628,-0.0739 -0.0538,-0.18579 0.0201,-0.24865 0.0739,-0.0628 0.18581,-0.0538 0.24865,0.0201 0.0628,0.0739 0.0538,0.18581 -0.0201,0.24866 -0.0739,0.0629 -0.18581,0.0538 -0.24866,-0.0201 z m -4.64733,2.02291 c -0.2476,0.0832 -0.58185,-0.003 -0.74277,-0.19267 l -0.29257,-0.344 0.63055,-0.48377 0.63056,-0.48378 0.32378,0.3807 c 0.36135,0.42486 0.13162,0.8945 -0.54959,1.12348 z m -1.44059,-1.01314 c -0.0628,-0.0739 -0.0538,-0.1858 0.0201,-0.24866 0.0739,-0.0628 0.18581,-0.0538 0.24866,0.0201 0.0628,0.0739 0.0538,0.18579 -0.0201,0.24865 -0.0739,0.0629 -0.18581,0.0538 -0.24864,-0.0201 z m -11.1429199,8.88029 c -0.46999,-0.1518 -0.61598,-4.66827 -0.16335,-5.05323 l 0.3942299,-0.33529 0.26196,1.74545 c 0.43466,2.89618 0.29902,3.89885 -0.4928399,3.64307 z m -3.33019,2.41754 c -0.08602,-0.10113 -0.336545,-0.87796 -0.556726,-1.72628 -0.220188,-0.84831 -0.588071,-1.84628 -0.817501,-2.21768 -0.552448,-0.89435 -0.492229,-1.30703 0.140387,-0.96177 0.28149,0.15365 0.394697,0.37897 0.251518,0.50074 -0.143158,0.12176 0.01042,0.53965 0.341271,0.92865 0.330848,0.38901 0.696214,1.32867 0.81193,2.08814 0.204143,1.33965 0.151502,1.76725 -0.170879,1.3882 z m 13.0100999,-11.79022 c -0.35496,-0.27121 -0.94426,-0.65571 -1.30958,-0.85446 l -0.66416,-0.36132 0.7664,0.0428 c 0.4215,0.0236 1.13074,0.30608 1.57609,0.62775 l 0.8097,0.58493 -0.26653,0.22668 c -0.1466,0.12468 -0.55697,0.005 -0.91192,-0.26642 z m -6.48758,5.84628 c -0.30574,-0.35948 -0.26435,-2.76666 0.0522,-3.03589 0.54397,-0.46265 0.84047,0.13799 0.73182,1.48264 -0.0906,1.12197 -0.4855,1.90425 -0.78402,1.55325 z m -3.9029799,18.82527 c -0.11829,-0.13909 -0.336,-0.15003 -0.48379,-0.0243 -0.14782,0.12572 -0.1084,0.41709 0.0876,0.64752 0.19598,0.23043 0.41368,0.24137 0.48381,0.0243 0.0701,-0.21706 0.0307,-0.50844 -0.0876,-0.64751 z m 14.8203399,-12.88615 c -0.18234,-0.0147 -0.19444,0.1344 -0.0268,0.33153 0.16759,0.19705 0.31678,0.2091 0.33152,0.0268 0.0147,-0.18234 -0.1224,-0.34358 -0.30474,-0.35831 z m -11.06804,8.12535 c -0.54721,-0.97077 -4.6216599,-2.34543 -5.2834379,-1.78259 -0.139027,0.11824 0.207558,0.35035 0.770228,0.51581 0.56264,0.16542 1.05102,0.48457 1.08524,0.70919 0.0342,0.22462 0.4486299,0.70203 0.9207899,1.06101 1.53527,1.16665 3.25396,0.8216 2.50708,-0.50334 z m -4.6222899,3.21249 c 0.12095,-0.10287 0.0454,-0.54026 -0.16791,-0.97197 -0.21329,-0.4317 -0.477705,-1.04043 -0.587603,-1.35268 l -0.19981,-0.56777 -0.388703,0.33059 c -0.512996,0.4363 -0.03992,2.0204 0.915066,3.06424 0.41975,0.45882 0.63855,0.57555 0.48615,0.25938 -0.15239,-0.31612 -0.17812,-0.65894 -0.0572,-0.76179 z m 2.5461499,-6.28224 c -0.11178,-0.13143 -0.68387,-0.32218 -1.2713099,-0.42386 -1.17761,-0.20387 -0.96946,0.36284 0.279,0.75971 0.8166099,0.25956 1.3462499,0.0803 0.9923099,-0.33585 z m -5.6911709,1.19993 c -0.374439,-0.38202 -1.178867,-1.24189 -1.787669,-1.91081 l -1.106898,-1.21623 -2.85626205,-0.27581 -2.85625595,-0.27579 0.276079,0.54138 c 0.151858,0.29776 0.953076,0.84041 1.780501,1.20588 l 1.50438195,0.66449 0.153417,0.70802 c 0.220427,1.01726 0.202391,1.00888 2.81064205,1.3075 2.736258,0.31325 3.022091,0.21047 2.082064,-0.74863 z m 1.674988,-3.1348 c -0.918527,-1.86278 -1.111357,-2.055 -1.054653,-1.05136 0.02541,0.44966 -0.139562,0.84585 -0.366581,0.88044 l -0.412783,0.0629 -0.395527,-1.02172 c -0.217545,-0.56196 -0.587737,-1.16633 -0.822629,-1.34307 l -0.427051,-0.32132 -0.165451,0.70862 -0.165438,0.70863 0.853717,1.10629 c 0.46951,0.60843 1.093592,1.36459 1.386781,1.68032 l 0.533118,0.57407 0.30297,-0.5551 0.302969,-0.5551 0.209925,0.59653 0.209932,0.59654 0.362764,-0.30853 0.362743,-0.30852 z m -1.015905,0.37443 c -0.06284,-0.0739 -0.05381,-0.18577 0.02011,-0.24863 0.0739,-0.0629 0.185812,-0.0538 0.248636,0.0201 0.06284,0.0739 0.05381,0.1858 -0.02009,0.24865 -0.0739,0.0629 -0.185812,0.0538 -0.248649,-0.0201 z m -18.9785531,14.98885 -0.06177,-0.4053 -0.280936,0.51477 c -0.313626,0.57458 -0.234979,0.83964 0.151567,0.51088 0.139087,-0.1183 0.225083,-0.39743 0.191134,-0.62035 z m 15.8032331,-17.72981 c -0.09843,-0.4894 -0.28614,-0.96127 -0.417101,-1.0486 -0.130938,-0.0873 -0.365636,-0.70957 -0.521511,-1.38274 l -0.283385,-1.22394 -1.15658305,-0.006 -1.156601,-0.006 -1.57940695,-1.16611 c -0.868671,-0.64136 -1.846685,-1.25139 -2.173341,-1.35564 l -0.593894,-0.18955 1.529214,1.47808 c 0.841078,0.81294 2.555857,2.53264 3.81060295,3.82155 2.34532505,2.40918 2.85273005,2.62471 2.54200605,1.07985 z m -14.5357711,11.32071 c -0.06284,-0.0739 -0.174745,-0.083 -0.248635,-0.0201 -0.07391,0.0628 -0.08293,0.17476 -0.02009,0.24865 0.06284,0.0739 0.174725,0.0829 0.248636,0.0201 0.07389,-0.0628 0.08291,-0.17475 0.02009,-0.24862 z M 0.65494405,-539.0731 c -0.157135,-0.18475 -1.488601,-1.46112 -2.96066695,-2.8348 l -2.676466,-2.49762 1.021728,2.05253 1.021734,2.05249 -0.782665,0.66566 c -1.106832,0.94136 -0.705285,1.4899 0.910371,1.24371 0.758174,-0.11552 1.809929,-0.15344 2.33723695,-0.0843 1.08774,0.14272 1.54749005,-0.10074 1.128728,-0.59769 z m 2.84227405,-7.22535 c -0.185032,-0.52577 -2.94637305,-2.87705 -4.04560805,-3.44486 -0.372669,-0.19248 -1.75716895,-0.86185 -3.07670795,-1.48752 -1.31952,-0.62564 -2.51225,-1.27054 -2.650519,-1.43311 -0.138243,-0.16255 -1.1618,-0.37772 -2.274567,-0.47811 l -2.0232051,-0.18256 -0.633955,0.73384 -0.633948,0.73385 0.08899,2.08478 c 0.184255,4.31618 1.454389,9.03037 2.5604071,9.50304 l 0.513205,0.21932 -0.07372,1.17806 -0.07372,1.17807 -0.721864,-0.84875 c -0.397035,-0.46683 -0.8427921,-0.7459 -0.9905861,-0.6202 -0.147794,0.12569 0.09125,0.65179 0.531224,1.1691 l 0.7999261,0.94053 0.37018,-0.31484 c 0.203602,-0.17316 0.63094,-0.2692 0.949654,-0.21342 l 0.579447,0.10143 1.304426,-1.35633 1.304406,-1.35632 -0.713591,-1.01398 c -0.392481,-0.55769 -0.699007,-1.22438 -0.681162,-1.48155 0.01785,-0.25713 -0.235874,-0.78305 -0.563807,-1.16862 -0.728757,-0.85686 -0.794431,-1.90147 -0.172719,-2.74743 l 0.46642,-0.63461 1.195907,-0.19105 1.195927,-0.19103 1.208761,0.9876 c 0.664811,0.54317 1.312825,1.05536 1.440036,1.1382 0.127209,0.0828 0.45211395,0.37962 0.72200895,0.65951 l 0.490719,0.50889 0.478532,-0.40699 0.478552,-0.40701 0.99505905,0.55019 0.995058,0.5502 0.415773,-0.8866 c 0.228656,-0.48766 0.338939,-1.10493 0.245061,-1.37172 z m -12.050353,-1.82596 c -0.548581,-0.50008 -0.99002,-1.11353 -0.980961,-1.36323 l 0.01648,-0.45394 0.533505,0.0431 c 0.673493,0.0544 1.94256,1.8434 1.648481,2.32384 l -0.220049,0.35949 z m 11.88208,-1.7353 -0.758484,-1.91495 -0.687795,0.13555 c -0.378261,0.0746 -0.871218,-0.0802 -1.09542705,-0.34378 -0.564852,-0.66414 -1.042849,-0.64196 -1.164702,0.054 -0.05641,0.32246 -0.315039,0.61862 -0.574709,0.65819 l -0.47210895,0.0719 -0.677304,-1.11412 -0.677271,-1.11413 -1.264074,-0.41837 c -1.215599,-0.40233 -2.104848,-0.13615 -1.993203,0.5966 0.02931,0.19227 0.422086,0.43131 0.872867,0.5312 0.450775,0.0999 0.952478,0.33012 1.114944,0.51159 0.162384,0.18151 1.107355,0.68921 2.099832,1.12831 0.99247695,0.43906 2.66224195,1.4964 3.710623,2.34962 l 1.906117,1.55131 0.2096,-0.38403 c 0.115266,-0.21119 -0.131749,-1.24575 -0.548905,-2.29899 z m -8.001914,7.7924 c -0.06284,-0.0739 -0.174745,-0.083 -0.248656,-0.0201 -0.07389,0.0628 -0.08291,0.17475 -0.02007,0.24864 0.06284,0.0739 0.174738,0.083 0.248629,0.0201 0.0739,-0.0628 0.08293,-0.17476 0.02009,-0.24865 z m -7.7693941,-2.97279 -0.44112,-0.23266 0.416858,0.53308 c 0.229244,0.29324 0.427764,0.39792 0.44112,0.23267 0.01335,-0.16522 -0.174226,-0.40513 -0.416858,-0.53309 z m -0.01508,-2.05066 c -0.113347,-0.3221 -0.308365,-0.59392 -0.43336,-0.60404 -0.395209,-0.0319 -0.512912,0.80726 -0.169819,1.21066 0.44832,0.52713 0.857381,0.11572 0.603189,-0.60661 z m 4.3597691,-7.23856 -0.615777,-0.0474 0.593305,0.3258 c 0.326328,0.17921 0.603427,0.20056 0.615784,0.0474 0.01236,-0.1531 -0.254613,-0.29973 -0.593312,-0.3258 z m -3.4345381,0.61849 c 0.01375,-0.17054 0.268604,-0.3958 0.566372,-0.50047 l 0.541261,-0.1905 -0.801208,-0.315 c -1.172693,-0.4611 -2.289426,1.16395 -1.465548,2.13265 0.22404,0.26342 1.116981,-0.60444 1.159181,-1.12661 z"
       id="path5853" />
  </g>
</svg>
