<?xml version="1.0" encoding="UTF-8" standalone="no"?>
<!-- Created with Inkscape (http://www.inkscape.org/) -->

<svg
   width="54.560417mm"
   height="63.46851mm"
   viewBox="0 0 54.560417 63.46851"
   version="1.1"
   id="svg1"
   xmlns="http://www.w3.org/2000/svg"
   xmlns:svg="http://www.w3.org/2000/svg">
  <defs
     id="defs1" />
  <g
     id="layer1"
     transform="translate(33.233915,820.9233)">
    <path
       style="fill:#000000;stroke-width:0.264583"
       d="m 9.8326231,-758.14081 c -1.86449,-0.75186 -3.317548,-2.16752 -3.338688,-3.25268 -0.007,-0.35811 -0.34089,-1.11204 -0.74203,-1.67539 l -0.72935,-1.02426 -0.65857,0.35245 c -0.36222,0.19384 -0.86744,0.34129 -1.12274,0.32766 -0.25529,-0.0138 -0.14665,-0.16123 0.24138,-0.32797 l 0.70557,-0.30319 -1.23473,-0.036 c -0.67908,-0.0198 -1.54287,-0.26908 -1.9195,-0.55395 -0.95261005,-0.72052 -1.37644005,-0.65355 -2.41086,0.38086 l -0.89881,0.89882 -0.22604,-0.36573 -0.22603,-0.36571 -0.85045,0.55724 -0.85045,0.55724 -2.04158,-0.15812 c -2.19612,-0.17005 -3.7374001,-0.67905 -5.8565001,-1.93408 l -1.33977,-0.79351 -0.70234,-1.58774 -0.70236,-1.58776 h -0.8014 c -2.80781,0 -6.86352,-2.20419 -8.55998,-4.6522 l -0.95374,-1.37625 v -2.62848 -2.62845 l -2.10939,-0.59187 -2.10937,-0.59188 -0.91863,-1.58223 c -0.50525,-0.87024 -1.32173,-2.01218 -1.81441,-2.53767 l -0.89577,-0.95541 0.10811,-1.54654 c 0.0595,-0.85059 0.29281,-2.3939 0.51858,-3.42956 l 0.41045,-1.88307 0.91125,-0.93916 c 0.89506,-0.92252 2.70629,-2.30098 5.96151,-4.53708 0.90353,-0.62066 1.85132,-1.31103 2.10622,-1.53421 0.2549,-0.22317 1.08087,-0.34689 1.83552,-0.27493 l 1.37207,0.13087 0.42895,-0.80151 c 0.23593,-0.44082 0.62288,-0.8015 0.85992,-0.8015 h 0.43095 l 0.15407,-1.31977 c 0.0848,-0.72588 -0.0636,-2.35307 -0.32972,-3.61598 -0.2661,-1.26291 -0.40828,-2.58932 -0.316,-2.94756 0.0923,-0.35828 0.0807,-0.87826 -0.0257,-1.15554 l -0.19346,-0.50414 -0.48798,0.40497 -0.48797,0.40497 0.005,-0.48416 c 0.008,-0.74033 1.55657,-5.54559 2.46329,-7.64408 l 0.80722,-1.86825 0.55483,0.10684 c 0.30517,0.0588 0.77994,0.5079 1.05503,0.99804 l 0.50019,0.89117 -1.50418,3.10766 -1.50421,3.10769 0.19024,1.84311 c 0.10461,1.01373 0.54133,2.59009 0.97046,3.50303 l 0.78023,1.65989 -0.21458,1.07289 -0.21457,1.07291 0.78941,-0.24262 c 1.09823,-0.3375 1.11225,-0.36338 1.0224,-1.88619 l -0.0802,-1.35922 0.57561,-0.2209 c 0.3166,-0.12147 1.28616,0.0204 2.15458,0.3152 1.56493,0.53131 2.2322901,0.46408 2.2322901,-0.22487 0,-0.59653 1.00047,-1.36395 3.63934,-2.79159 l 1.34628,-0.72835 2.18149,-0.16184 2.18151995,-0.16182 1.05833005,0.39807 c 4.61158,1.73458 6.36209,3.0141 7.793908,5.69687 l 0.98822,1.85164 -0.0554,2.35177 c -0.0305,1.2935 -0.3638,3.26541 -0.74078,4.38203 l -0.68541,2.03025 1.24646,1.08601 c 0.6855599,0.59733 1.7019499,2.03854 2.2586899,3.2027 l 1.01224,2.11667 -0.21275,1.7639 c -0.117,0.97015 -0.7402,2.8249 -1.38491,4.1217 l -1.17215,2.35784 0.86055,0.56385 0.86053,0.56386 0.84355,-0.84355 0.84352,-0.84352 1.68407,-0.18984 c 0.92625,-0.1044 2.05878,-0.019 2.51672,0.18958 l 0.83264,0.37936 -0.17894,0.46633 c -0.0984,0.25648 0.0161,0.46632 0.25427,0.46632 0.48755,0 1.45849,1.37875 1.17239,1.66484 -0.10173,0.10173 -0.67447,-0.30448 -1.27272,-0.90273 l -1.08773,-1.08773 -0.73364,0.73361 -0.73361,0.73364 -0.28588,-0.46257 -0.28588,-0.46255 -0.9238,0.42093 c -1.12611,0.51308 -1.35088,0.52742 -1.06701,0.0681 0.11991,-0.19402 0.0593,-0.35277 -0.13475,-0.35277 -0.74155,0 -0.73525,0.72612 0.0214,2.4589 l 0.78407,1.79563 0.45826,-0.17587 0.45826,-0.17584 -0.088,1.10918 -0.088,1.10921 1.5875,0.10406 1.5875,0.10407 1.2877,1.4271 1.28768,1.42711 0.40245,2.31103 0.40243,2.31101 -0.86878,1.82845 c -0.47784,1.00566 -1.31845,2.32929 -1.86801,2.9414 l -0.99923,1.11297 -2.10296,0.73912 c -2.56916,0.90299 -3.39336,0.90143 -5.6551799,-0.0106 z m 5.3041299,-1.22004 1.17745,-0.55872 -0.21394,-0.55748 -0.21392,-0.55748 0.40815,0.25226 c 0.5652,0.3493 1.69415,-0.78735 2.35654,-2.37263 l 0.55396,-1.32583 -0.33764,-1.22279 c -0.3855,-1.3961 -1.83115,-3.24732 -3.16785,-4.05649 l -0.91012,-0.55097 -0.81021,1.74876 c -0.44561,0.96182 -0.90384,1.65511 -1.0183,1.54065 -0.11446,-0.11446 -0.58938,0.24503 -1.05537,0.79885 -0.46601,0.5538 -1.71836,1.36798 -2.7829899,1.80922 -2.277188,0.94385 -2.348708,1.27164 -0.68024,3.11844 l 1.25544,1.38964 1.4785699,0.5238 c 1.94051,0.68744 2.54884,0.69064 3.96047,0.0209 z m -1.0587,-0.83286 c -0.12658,-0.20476 -0.56999,-0.37229 -0.98542,-0.37229 h -0.75527 l 0.33514,-0.3293 c 0.41386,-0.4067 2.66272,0.0201 2.6643,0.50567 0.003,0.49419 -0.98001,0.64696 -1.25875,0.19592 z m -16.6808379,-5.55135 c 0.54348,-0.31687 0.23111,-1.11996 -0.84474,-2.17181 l -1.10932,-1.08455 0.21077,-1.77951 c 0.11592,-0.97875 0.15825,-1.77954 0.0941,-1.77954 -0.0642,0 -0.68659,0.23813 -1.38316,0.52917 -0.69657,0.29104 -1.67566,0.52917 -2.17578,0.52917 -0.50011,0 -1.28103,0.37174 -1.73535,0.82605 -0.4543401,0.45432 -1.1851201,0.81151 -1.6239601,0.79375 -1.27635,-0.0517 -1.19726,0.74462 0.1614,1.62491 0.68948,0.44673 1.2555501,1.0045 1.2579601,1.23947 0.003,0.23498 0.36156,0.76047 0.79812,1.16779 l 0.79375,0.74055 2.64583,-0.24059 c 1.45521,-0.13234 2.7649,-0.31001 2.91042,-0.39486 z m -8.5548501,0.0638 c 0,-0.097 -0.0794,-0.17637 -0.1764,-0.17637 -0.097,0 -0.17637,0.0794 -0.17637,0.17637 0,0.097 0.0794,0.1764 0.17637,0.1764 0.097,0 0.1764,-0.0794 0.1764,-0.1764 z m 17.5581201,-0.46326 0.13972,-0.41915 -0.55864,0.21436 c -0.30726,0.1179 -0.55864,0.36936 -0.55864,0.5588 0,0.46371 0.80177,0.17333 0.97756,-0.35401 z m 2.911808,-0.50686 c 0.64432,-0.43656 1.2404199,-1.00349 1.3246399,-1.25981 l 0.15317,-0.46604 -1.8016599,0.91297 c -0.99091,0.50213 -1.801648,1.06902 -1.801648,1.25979 0,0.57816 0.888208,0.39142 2.125498,-0.44691 z m -4.683118,-0.53052 c 0.43656,-0.45582 0.79375,-0.66183 0.79375,-0.45781 0,0.51848 0.70538,0.45869 1.89241,-0.16039 0.55575,-0.28985 1.140058,-0.52699 1.298438,-0.52699 0.1584,0 0.83754,-0.35719 1.5091799,-0.79375 l 1.22119,-0.79375 0.39076,-1.27564 c 0.58139,-1.89785 0.52014,-2.11373 -1.08937,-3.83979 -0.8140999,-0.87305 -1.4421399,-1.78578 -1.3956499,-2.02832 0.12097,-0.63119 -0.67781,-0.54592 -2.520288,0.2691 l -1.60525,0.71007 -2.75879,0.13126 -2.75878005,0.13126 -0.66322995,1.52093 -0.66323,1.52093 0.44021,2.33307 0.44021995,2.33307 1.45539,0.93694 c 1.73543005,1.1172 2.93619005,1.11416 4.01304005,-0.0103 z m -19.2003601,-3.66265 c 1.09767,-0.22045 2.15918,-0.59775 2.35894,-0.83841 l 0.36317,-0.4376 -1.15358,-0.59846 c -0.63447,-0.32914 -1.50606,-0.79758 -1.93689,-1.041 -0.9008,-0.50893 -2.21533,-2.08042 -2.21533,-2.6484 0,-0.21193 -0.16684,-0.38534 -0.37076,-0.38534 -0.47394,0 -1.39311,-2.18197 -1.39311,-3.30703 v -0.86024 l -0.70556,0.1845 c -0.38807,0.10149 -0.70557,0.41349 -0.70557,0.69336 0,0.27985 0.15875,0.41072 0.3528,0.29081 0.19402,-0.11991 0.35277,-0.0499 0.35277,0.15557 0,0.35677 -0.40159,0.4749 -0.97015,0.28541 -0.14552,-0.0485 -0.22103,-0.21881 -0.16782,-0.37843 0.0532,-0.15965 -0.26371,-0.23903 -0.70427,-0.1764 l -0.801,0.11385 -0.35941,1.69976 c -0.42307,2.00086 -0.87792,1.82086 -0.87792,-0.34745 0,-0.84079 -0.15875,-1.52871 -0.35276,-1.52871 -0.70081,0 -0.0349,5.23687 0.79734,6.2707 l 0.36214,0.44988 0.59457,-0.53806 c 0.64651,-0.58507 1.22727,-0.72813 0.91684,-0.22582 -0.10616,0.17174 -0.0206,0.80674 0.19007,1.41113 l 0.38307,1.09884 0.93562,0.0124 c 0.51458,0.007 1.33249,0.23937 1.81758,0.51665 1.08352,0.61942 0.88307,0.61159 3.28922,0.12838 z m 12.3199201,-2.24811 0.16918,-0.88503 -0.48083,0.39904 c -0.53716,0.4458 -0.65132,1.37102 -0.16917,1.37102 0.17139,0 0.38777,-0.39828 0.48082,-0.88503 z m -2.18022,-0.77005 1.084,-0.63799 1.27013,-2.64583 1.27010995,-2.64583 -0.0718,-2.09428 -0.0718,-2.09429 -0.75183995,-1.25711 c -1.17134,-1.95855 -1.76303,-2.54297 -3.26139,-3.22125 l -1.3912,-0.62976 -0.41929,0.5734 -0.41929,0.57338 -1.83239,-0.42296 c -1.0078301,-0.23262 -2.3524401,-0.42296 -2.9880501,-0.42296 h -1.15562 l -1.19872,0.81018 -1.1987,0.81018 v 0.7376 c 0,0.40566 -0.2826,1.05109 -0.62804,1.43426 -2.81926,3.12732 -0.71286,9.31216 3.82397,11.22793 l 2.09574,0.88498 2.3801101,-0.17084 2.38012,-0.17084 z m 8.67738,-4.32091 c 1.49839,-0.25799 2.44669,-0.76083 3.980398,-2.11058 l 0.86309,-0.75956 0.0559,-1.30958 c 0.0307,-0.72025 0.23765,-1.75647 0.45982,-2.30267 1.0876999,-2.67433 -2.010408,-8.99364 -4.029418,-8.21889 -0.24969,0.0958 -0.64376,-0.0545 -0.87574,-0.33398 l -0.42178,-0.50821 h -1.28921 -1.2892 l -1.93080005,1.44542 c -2.45207995,1.83565 -2.42889995,1.68627 -0.63175,4.06818 l 1.52321,2.01882 v 4.37414 4.37418 l 1.05833005,-0.24218 c 0.58209,-0.13322 1.71929,-0.35599 2.52714,-0.49509 z m 10.9592579,-0.93993 c -0.11724,-0.11723 -0.42151,-0.12978 -0.67617,-0.0279 l -0.46302,0.18529 0.67617,0.0279 c 0.37187,0.0154 0.58023,-0.0681 0.46302,-0.18529 z m -40.473898,-2.96188 c 0,-0.19402 -0.3175,-0.35277 -0.70556,-0.35277 -0.38807,0 -0.70557,-0.17269 -0.70557,-0.38377 v -0.38381 l 1.49932,0.24837 c 0.82463,0.1366 1.78726,0.3997 2.13921,0.58467 l 0.63992,0.33629 0.46191,-0.38336 c 0.25403,-0.21084 0.69966,-0.2921 0.99028,-0.18057 0.59317,0.22762 1.6777,-0.69255 1.6777,-1.42344 0,-0.2623 0.40825,-0.9621 0.90723,-1.55508 1.00843,-1.19844 0.92313,-1.56327 -0.54277,-2.3213 -0.55105,-0.28496 -1.31969,-1.03791 -1.7081,-1.6732 l -0.70619,-1.15506 -0.25152,-3.08682 c -0.27649,-3.3928 -0.2758,-3.39212 -2.36807,-2.38125 -0.80317,0.38807 -1.67799,0.70557 -1.94405,0.70557 h -0.48372 l 0.24138,0.39055 0.24138,0.39058 -0.66153,-0.20971 -0.66154,-0.20971 -0.0498,0.86034 c -0.0274,0.47318 -0.62161,1.46336 -1.32045,2.20038 -0.69885,0.73703 -1.52943,1.88151 -1.84571,2.54326 l -0.5751,1.20322 0.41669,1.86206 c 0.22921,1.02412 0.71843,2.24559 1.08718,2.71438 1.10879,1.40962 4.22748,2.63435 4.22748,1.66018 z m -2.11666,-1.2347 c 0,-0.097 0.0794,-0.1764 0.17637,-0.1764 0.097,0 0.1764,0.0794 0.1764,0.1764 0,0.097 -0.0794,0.17637 -0.1764,0.17637 -0.097,0 -0.17637,-0.0794 -0.17637,-0.17637 z m 7.05553,-0.70556 c 0,-0.097 0.0794,-0.1764 0.1764,-0.1764 0.097,0 0.1764,0.0794 0.1764,0.1764 0,0.097 -0.0794,0.17639 -0.1764,0.17639 -0.097,0 -0.1764,-0.0794 -0.1764,-0.17639 z m 7.23197,-5.79748 1.76387,-0.76853 2.9587301,-0.12409 2.9587,-0.12409 0.85185,-0.91866 c 0.46853,-0.50527 0.75248,-1.07945 0.63103,-1.27595 -0.12144,-0.19651 -0.09,-0.33457 0.07,-0.30679 0.15994,0.0278 0.52893,0.0206 0.81997,-0.0161 l 0.52917,-0.0666 -0.70556,-0.30318 -0.70557,-0.30319 0.76999,-0.0249 0.76997,-0.0249 0.22569,-0.71109 c 0.31734,-0.99978 -0.38918,-2.91333 -1.44021,-3.90073 l -0.88884,-0.835 0.60052,-0.21063 0.6005,-0.21066 -1.00801,-0.9347 c -1.56112,-1.44753 -5.68142,-2.90721 -7.7434801,-2.74322 -1.1647,0.0926 -3.3514,1.2896 -3.3514,1.83451 0,0.18965 0.12473,0.26773 0.27718,0.17351 0.15245,-0.0942 0.27718,0.13846 0.27718,0.51708 v 0.68839 l -0.45358,-0.17404 c -0.24945,-0.0957 -0.45598,0.0193 -0.45897,0.25585 l -0.005,0.4299 -0.34737,-0.52917 -0.34738,-0.52917 -0.34737,0.52917 c -0.19105,0.29104 -0.36562,0.37042 -0.38793,0.1764 -0.0222,-0.19405 -0.14383,0.0138 -0.27001,0.46178 -0.12618,0.44801 -0.36853,0.7952 -0.53858,0.77152 -0.31816,-0.0443 -1.24566,1.47971 -1.05127,1.72739 0.0598,0.0761 0.35428,-0.0654 0.65445,-0.31449 l 0.54575,-0.45296 -0.22336,0.5821 c -0.12287,0.32018 -0.60412,0.67768 -1.0695,0.7945 l -0.84608,0.21235 -0.199,0.79282 c -0.10943,0.43606 0.0507,1.39039 0.35584,2.12075 0.30517,0.73032 0.56693,1.66568 0.58169,2.07856 l 0.0268,0.75068 0.41415,-1.12123 c 0.22775,-0.61666 0.55425,-1.25166 0.72551,-1.4111 l 0.31137,-0.2899 -0.24752,1.36747 -0.24755,1.36747 0.43524,1.10197 c 0.23937,0.60608 0.68355,1.39276 0.98706,1.74818 l 0.55184,0.64619 0.71297,-0.8676 c 0.39214,-0.47717 1.50672,-1.21346 2.47687,-1.63615 z m 2.29303,-12.01779 c 0,-0.19405 0.15875,-0.3528 0.3528,-0.3528 0.19402,0 0.35277,0.15875 0.35277,0.3528 0,0.19402 -0.15875,0.35277 -0.35277,0.35277 -0.19405,0 -0.3528,-0.15875 -0.3528,-0.35277 z m -8.46666,11.81803 c 0,-0.097 -0.0794,-0.17637 -0.17637,-0.17637 -0.097,0 -0.1764,0.0794 -0.1764,0.17637 0,0.097 0.0794,0.1764 0.1764,0.1764 0.097,0 0.17637,-0.0794 0.17637,-0.1764 z m 17.9916601,-2.91224 v -0.57115 l -1.05833,1.01396 c -0.58208,0.55766 -1.05833,1.15379 -1.05833,1.32474 0,0.17095 0.47625,-0.0283 1.05833,-0.44281 0.58208,-0.41447 1.05833,-1.0106 1.05833,-1.32474 z m 8.86445,-2.46761 0.484178,-0.61735 -0.617378,0.48416 c -0.33954,0.26628 -0.61735,0.54409 -0.61735,0.61735 0,0.29036 0.28969,0.10348 0.75055,-0.48416 z m -3.66263,-0.30064 1.49765,-0.18307 0.89558,-1.17417 0.89559,-1.17417 0.20243,-1.71487 0.20246,-1.71489 -0.41439,-1.53638 -0.41441,-1.53641 -1.39814,-1.37044 c -1.78856,-1.75316 -3.32388,-2.54093 -4.58997005,-2.35511 -0.55168,0.081 -1.05423,-0.006 -1.11675,-0.19389 -0.61098,-1.83292 -7.31186995,1.47445 -7.31186995,3.60895 0,0.36496 1.86066,1.79247 2.34752,1.80104 0.16409,0.003 0.89763,0.51882 1.6301,1.14652 l 1.33178,1.14128 0.50178,1.94027 c 0.27601,1.06717 0.58769,2.35754 0.69268,2.86755 l 0.19083995,0.92726 1.67974,-0.14822 c 0.92387005,-0.0815 2.35368005,-0.23058 3.17738005,-0.33125 z m 4.205598,-1.08107 c -0.12935,-0.12935 -0.235178,-0.0235 -0.235178,0.23519 0,0.25869 0.105828,0.36452 0.235178,0.23516 0.12936,-0.12932 0.12936,-0.34099 0,-0.47035 z m 0.47038,-0.64677 c 0,-0.097 -0.0794,-0.17637 -0.1764,-0.17637 -0.097,0 -0.1764,0.0794 -0.1764,0.17637 0,0.097 0.0794,0.1764 0.1764,0.1764 0.097,0 0.1764,-0.0794 0.1764,-0.1764 z"
       id="path5861" />
  </g>
</svg>
