<?xml version="1.0" encoding="UTF-8" standalone="no"?>
<!-- Created with Inkscape (http://www.inkscape.org/) -->

<svg
   width="45.111443mm"
   height="62.742088mm"
   viewBox="0 0 45.111443 62.742088"
   version="1.1"
   id="svg1"
   xmlns="http://www.w3.org/2000/svg"
   xmlns:svg="http://www.w3.org/2000/svg">
  <defs
     id="defs1" />
  <g
     id="layer1"
     transform="translate(18.682251,720.4498)">
    <path
       style="fill:#000000;stroke-width:0.264583"
       d="m -2.4477629,-658.38947 c -0.616929,-0.37518 -1.212744,-0.91937 -1.324001,-1.2093 -0.111257,-0.28994 -0.571844,-0.52713 -1.023514,-0.52713 -1.918864,0 -4.116229,-2.04068 -4.918208,-4.56751 l -0.239024,-0.75316 -0.9417841,-0.18933 c -0.517975,-0.10414 -1.576758,-0.62649 -2.352861,-1.16073 l -1.411128,-0.97137 0.07808,-0.67688 c 0.14867,-1.28884 -0.914664,-3.30017 -1.753764,-3.31729 -0.508979,-0.0103 -0.25699,0.65503 0.661247,1.7463 1.176549,1.39824 0.797533,1.85444 -0.504402,0.60711 l -0.982345,-0.94112 -0.08144,-1.32622 c -0.04477,-0.72941 -0.339248,-2.19933 -0.654367,-3.26647 -0.315119,-1.06717 -0.62111,-2.63488 -0.679979,-3.48385 l -0.106998,-1.54355 0.824601,-1.63145 0.824626,-1.63145 -0.343614,-1.76387 c -0.189018,-0.97014 -0.405924,-3.27202 -0.482044,-5.11529 l -0.138404,-3.3514 0.500407,-1.05833 c 0.275193,-0.58209 0.584888,-1.33615 0.688181,-1.67569 0.2862,-0.94086 0.854869,-0.73633 0.980943,0.35277 l 0.112289,0.97015 0.881274,-1.31855 c 0.48469,-0.7252 1.089078,-1.32051 1.343078,-1.32292 0.253973,-0.003 0.373935,-0.14647 0.266594,-0.32017 -0.107342,-0.1737 0.0521,-0.41072 0.35433,-0.52668 0.302207,-0.11597 0.466407,-0.34528 0.364887,-0.50956 -0.101521,-0.16428 0.116549,-0.86059 0.484637,-1.54734 l 0.669237,-1.24867 -1.036161,-2.19098 c -0.569886,-1.20504 -1.036161,-2.48161 -1.036161,-2.83683 v -0.64585 l 1.019968,-0.22402 1.019943,-0.22402 2.2276061,0.57723 c 1.22518,0.31747 2.663296,0.80254 3.195849,1.07793 1.396868,0.72235 1.708865,0.62768 1.708865,-0.51854 0,-0.56059 0.294216,-1.38262 0.653864,-1.82674 l 0.653839,-0.80749 1.98664995,1.12118 c 1.092623,0.61666 2.06840705,1.12119 2.16834005,1.12119 0.09996,0 0.181742,-1.07593 0.181742,-2.39095 v -2.39095 l -0.48408205,-0.69586 c -0.26625,-0.38272 -0.601424,-1.25148 -0.744828,-1.93058 -0.143404,-0.67909 -0.520859,-1.53271 -0.838835,-1.89692 l -0.57808795,-0.66219 0.67870895,-0.39614 c 0.373274,-0.21787 1.239864,-0.99145 1.92574305,-1.71905 1.251956,-1.32811 2.510817,-1.74642 2.510817,-0.83432 0,0.26872 0.374861,0.73421 0.83304,1.03441 l 0.83304,0.54583 0.258921,1.52322 c 0.142399,0.83777 0.327422,3.1901 0.41111,5.22739 l 0.152188,3.70416 -0.434102,0.8167 -0.434075,0.81669 0.512842,0.32443 c 0.282098,0.17844 0.861086,0.32687 1.286668,0.32984 l 0.77383,0.005 0.59692,-1.01051 c 0.3283,-0.55579 1.05164,-1.27914 1.6074499,-1.60745 l 1.0105,-0.59693 v -0.90519 -0.9052 l 0.52917,0.43917 c 0.29104,0.24155 0.52916,0.74767 0.52916,1.12472 0,0.37706 0.15304,0.97148 0.34007,1.32095 0.18701,0.34946 0.37203,2.08528 0.41114,3.85736 0.0391,1.77208 0.21682,3.22197 0.39492,3.22197 0.17809,0 0.25783,-0.19786 0.17721,-0.43969 -0.18457,-0.55372 1.87815,-2.5856 2.97138,-2.92696 0.4513,-0.14092 0.92361,-0.41671 1.04955,-0.61286 0.12594,-0.19615 0.52282,-0.24345 0.88194,-0.10511 l 0.65296,0.25152 -0.60989,0.3424 c -0.33544,0.18832 -0.69654,0.32974 -0.80248,0.31427 -1.11842,-0.16339 -3.00294,1.6914 -2.9192,2.87311 l 0.066,0.93141 0.44,-0.16885 c 0.24201,-0.0929 0.61875,-0.71044 0.83722,-1.37237 0.21847,-0.66194 0.54364,-1.20353 0.72263,-1.20353 0.4531,0 0.40852,1.53966 -0.0581,2.0063 l -0.38351,0.38351 0.34097,0.21072 c 0.18753,0.11591 1.19197,0.2772 2.23205,0.35846 l 1.89111,0.14771 0.74506,1.00428 c 0.40982,0.55237 0.99971,1.66471 1.31093,2.4719 l 0.56584,1.46762 -0.32813,1.14411 -0.32814,1.14411 0.46202,1.09244 c 0.2541,0.60084 0.63933,1.62499 0.85611,2.27586 l 0.39409,1.18343 -0.20544,2.2003 -0.20548,2.20028 0.41365,1.25341 0.41365,1.25338 0.68493,0.1791 0.68492,0.17912 -0.19105,1.53379 c -0.40907,3.28406 -2.45695,8.41296 -3.35915,8.41296 -0.4803,0 0.0506,-1.48045 0.75911,-2.11667 0.45122,-0.40521 1.11199,-2.51187 0.86112,-2.74534 -0.14971,-0.13931 -0.35055,-0.0324 -0.44633,0.23765 -0.0958,0.27 -0.70903,1.08299 -1.36282,1.80665 -1.32304,1.46444 -1.4551,2.01591 -0.62761,2.62099 l 0.56105,0.41024 -0.97169,1.74532 c -0.53443,0.95991 -1.23886,2.1422 -1.56538,2.62726 -0.32655,0.48506 -1.02565,1.56948 -1.55358,2.40982 l -0.95983,1.52787 -0.52358,-0.20093 -0.52358,-0.2009 0.21552,0.34873 c 0.11856,0.19182 0.0322,0.34874 -0.19179,0.34874 -0.22402,0 -0.86905,0.32877 -1.43338,0.73062 -0.56433,0.40183 -1.38258,0.68972 -1.81835,0.63974 -1.07175,-0.1229 -2.19226,0.28466 -4.2302099,1.5386 -0.94197,0.57963 -1.810573,0.95597 -1.930217,0.83633 -0.119645,-0.11962 -0.06218,-0.21752 0.127714,-0.21752 0.189865,0 0.667943,-0.43656 1.062383,-0.97012 l 0.71715,-0.97015 -4.707755,-0.0222 c -2.589265,-0.0122 -4.70775805,0.0233 -4.70775805,0.0791 0,0.30761 2.19448105,1.17142 2.49854005,0.98351 0.198623,-0.12276 0.63836,0.0964 0.977186,0.4871 0.338825,0.39069 1.163849,0.77616 1.833377,0.85659 0.669501,0.0805 -0.46609,0.16081 -2.523543,0.17859 l -3.740838,0.0323 z m -0.157268,-1.97162 c -0.129355,-0.12936 -0.235188,-0.0235 -0.235188,0.23519 0,0.25868 0.105833,0.36451 0.235188,0.23516 0.129355,-0.12933 0.129355,-0.341 0,-0.47035 z m 12.166544,-0.97901 c 0.7090599,-0.0114 1.2156299,-0.1396 1.1256999,-0.28512 -0.0899,-0.14552 0.067,-0.26458 0.34872,-0.26458 0.28173,0 0.60748,-0.24818 0.7239,-0.55153 0.11639,-0.30334 0.35351,-0.46384 0.52692,-0.35665 0.49736,0.30736 1.13789,-0.70139 0.87701,-1.38121 l -0.23598,-0.61492 0.69919,0.3742 0.69919,0.37418 1.02999,-0.52962 c 0.5665,-0.29131 1.26246,-0.75872 1.54657,-1.0387 l 0.51657,-0.50909 -0.51657,-0.0108 -0.51655,-0.0106 0.62477,-0.36372 c 0.34364,-0.20005 0.53271,-0.51273 0.42015,-0.69485 -0.11255,-0.18208 -0.0335,-0.33107 0.17569,-0.33107 h 0.38034 l -0.2117,-0.84347 -0.21169,-0.84346 0.38134,-0.23569 c 0.20977,-0.12965 0.38137,-0.47003 0.38137,-0.75645 v -0.52078 l -0.71887,0.38474 c -0.39539,0.21161 -1.04177,0.28225 -1.4364,0.157 l -0.71752,-0.22773 -0.68027,0.61566 c -0.37415,0.33859 -0.68027,0.85775 -0.68027,1.15366 0,0.29594 -0.51594,1.29911 -1.14652,2.2293 l -1.14654,1.69125 -1.13546,0.009 -1.1354399,0.009 0.20305,-0.52917 c 0.11168,-0.29104 0.3326599,-0.52916 0.4910399,-0.52916 0.15837,0 0.77099,-0.40643 1.36136,-0.90321 l 1.07341,-0.90321 0.21085,-1.30165 c 0.11596,-0.7159 0.35348,-1.65316 0.52784,-2.0828 l 0.31702,-0.78115 -0.33948,-0.20982 c -0.18669,-0.11522 -0.33946,-0.65801 -0.33946,-1.20602 v -0.99637 l -0.79375,-0.2127 c -0.43657,-0.11699 -0.98158,-0.21489 -1.21113,-0.21754 l -0.41738,-0.005 0.018,0.97015 c 0.0283,1.53474 -0.7773799,5.42787 -1.3541399,6.54322 -0.28924,0.55933 -0.43558,1.2523 -0.32523,1.53993 l 0.20069,0.52295 -0.61614,-0.1275 -0.6161,-0.1275 0.092,-1.1511 c 0.0506,-0.63307 0.31331,-1.50006 0.5838,-1.92659 0.67392,-1.06275 1.02891,-4.10877 0.73115,-6.27372 l -0.24673,-1.79403 -1.09685,-1.24924 -1.09686,-1.24925 1.20232,0.26408 c 1.2233,0.26868 2.1242099,0.91453 2.1242099,1.52281 0,0.46241 1.55895,0.83738 1.7051,0.41013 0.0647,-0.1891 0.35767,-0.34377 0.65109,-0.34377 0.91308,0 2.62181,-1.44828 3.68297,-3.12158 0.55904,-0.88149 1.0164,-1.46188 1.0164,-1.2898 0,0.17209 0.2268,0.005 0.50398,-0.37189 l 0.50398,-0.6848 0.22984,0.59267 c 0.33176,0.8554 -0.64958,2.68398 -2.47375,4.60949 l -1.58628,1.67436 v 1.76522 1.7652 l 0.44098,0.0373 c 3.0226,0.25622 6.26182,-2.08889 6.26182,-4.53345 0,-0.41468 0.15875,-0.85206 0.35277,-0.97197 0.19401,-0.11994 0.34025,-0.48649 0.32493,-0.81458 l -0.0279,-0.59655 -0.17793,0.44098 c -0.21125,0.52348 -1.51085,0.59626 -1.57435,0.0882 -0.0243,-0.19401 -0.064,-0.65704 -0.0882,-1.02893 -0.0243,-0.37188 -0.14044,-0.77248 -0.25818,-0.89022 -0.11774,-0.11777 -0.13645,-0.62026 -0.0415,-1.11668 l 0.17253,-0.90259 0.62738,0.16404 0.62738,0.16407 0.22296,-1.18851 0.22297,-1.18851 -0.376,-0.70255 -0.376,-0.70257 0.53734,0.20619 c 0.29552,0.11342 0.53732,0.0305 0.53732,-0.18431 0,-0.21479 -0.1709,-0.39053 -0.37981,-0.39053 h -0.37981 l 0.0992,-1.1516 c 0.0546,-0.63338 -0.0209,-1.34596 -0.16767,-1.58348 l -0.26691,-0.43185 0.5475,0.21011 c 0.30113,0.11554 0.54748,0.0451 0.54748,-0.15666 0,-0.3279 -1.34628,-0.95578 -1.74641,-0.8145 -0.26043,0.092 0.0169,3.26689 0.36547,4.18368 l 0.32271,0.84883 -0.35002,0.654 -0.34999,0.654 0.43815,0.15655 0.43815,0.15655 -0.29104,0.30994 -0.29104,0.30993 -0.38627,-0.69019 c -0.21243,-0.3796 -0.4501,-1.96578 -0.52816,-3.52483 l -0.14192,-2.83464 -0.53798,-0.41675 c -1.12948,-0.87492 -2.25078,0.71541 -1.43052,2.02885 0.73509,1.17708 -0.0874,1.19002 -2.42332,0.0381 -1.26688,-0.62471 -2.44144,-1.05055 -2.61014,-0.94631 -0.16867,0.10425 -0.39719,0.0431 -0.50781,-0.13586 -0.33039,-0.53459 -1.54414,-0.0257 -2.3135999,0.97012 -0.39579,0.51221 -0.96618,1.24878 -1.26754,1.63685 l -0.547898,0.70556 0.207142,-0.97015 0.207146,-0.97015 h -0.335734 c -0.398938,0 -0.810101,1.17502 -0.925803,2.64584 -0.170736,2.17048 -0.619998,4.05696 -0.966179,4.05696 h -0.357505 l 0.209047,-2.38125 c 0.114962,-1.30969 0.30906,-2.85959 0.431324,-3.44419 l 0.222276,-1.06293 -1.657534,-0.80529 c -0.911648,-0.44291 -1.563661,-0.89919 -1.448911,-1.01391 0.11475,-0.11475 -0.09054,-0.62878 -0.456221,-1.14231 -0.365654,-0.51353 -0.775494,-1.52363 -0.910775,-2.24467 l -0.24593,-1.31101 h 0.343852 c 0.189124,0 0.762159,0.93207 1.273387,2.07126 l 0.929534,2.07126 1.28979,1.10173 1.289791,1.1017 0.390789,-0.3243 c 0.214921,-0.17838 1.315082,-0.67017 2.444832,-1.09284 l 2.0540399,-0.76853 1.48124,0.56568 c 1.90177,0.7263 2.21903,0.71202 2.43388,-0.10959 0.0971,-0.3714 0.83002,-1.08776 1.62864,-1.59192 l 1.45206,-0.91665 0.0418,-0.78931 c 0.023,-0.43412 0.023,-0.90839 0,-1.05391 -0.0937,-0.5933 0.52044,-0.21011 0.84471,0.5271 0.37825,0.85992 1.58297,1.3012 1.58297,0.57984 0,-0.5483 -1.39546,-2.07238 -1.91359,-2.08997 -0.20871,-0.007 -0.81482,-0.70049 -1.34692,-1.54091 l -0.96742,-1.52805 -1.42309,0.0803 c -1.84288,0.10398 -1.96805,0.27326 -1.0904,1.47452 l 0.72906,0.99787 -0.12515,1.7639 c -0.16867,2.37784 -0.16505,2.36403 -0.55642,2.12215 -0.18915,-0.11692 -0.26283,-0.88035 -0.16372,-1.69654 l 0.18021,-1.48394 -1.24458,-1.66709 c -1.70841,-2.28841 -4.9652999,-3.86659 -5.6599379,-2.74264 -0.119909,0.19402 -0.580919,0.35277 -1.024467,0.35277 -0.952685,0 -1.621604,0.68476 -2.693219,2.75701 l -0.787215,1.52228 -0.3352,-0.33523 -0.335201,-0.3352 0.601715,-1.18705 c 0.330968,-0.65289 0.854102,-1.47458 1.162527,-1.82597 l 0.560784,-0.63892 -0.515144,-0.33435 c -0.283316,-0.18389 -0.911992,-0.43365 -1.397079,-0.55499 -0.485061,-0.12137 -1.120061,-0.42241 -1.411102,-0.66897 l -0.52916705,-0.44834 -1.499314,0.71125 -1.49928795,0.71126 v 0.64555 c 0,0.35507 0.15875,0.74372 0.352769,0.86363 0.194019,0.11991 0.352769,0.38566 0.352769,0.59055 v 0.37253 l -0.905537,-0.59333 -0.905563,-0.59335 -0.467863,0.3883 c -0.257307,0.21355 -0.649075,1.37509 -0.870558,2.58122 l -0.402722,2.19295 0.365019,1.2324 c 0.553191,1.8678 0.440505,2.07016 -0.394203,0.7079 l -0.756576,-1.23474 -0.03585,-2.29306 c -0.01958,-1.26116 0.09581,-2.80898 0.256752,-3.43958 l 0.292602,-1.14652 h -0.950118 c -0.522579,0 -1.556385,0.34073 -2.297377,0.75718 l -1.347232,0.75719 -0.5580331,1.70611 -0.558033,1.70611 0.22188,1.50545 c 0.122026,0.82799 0.690377,2.35496 1.2630151,3.39321 1.412557,2.56119 1.06,2.62286 -0.9008531,0.15758 l -1.626844,-2.04533 -0.0079,-1.23473 c -0.0045,-0.67908 -0.14658,-1.45349 -0.315939,-1.72088 -0.455454,-0.71906 -1.092386,-0.1456 -1.092386,0.98351 0,0.54168 -0.176053,1.48989 -0.391212,2.10714 l -0.39124,1.12226 -0.556763,-0.45225 -0.556762,-0.45228 0.22897,0.61116 c 0.125942,0.33612 0.0053,1.24481 -0.267838,2.01932 -0.273261,0.77449 -0.3615,1.49183 -0.196056,1.59407 0.165418,0.10223 0.227119,0.46754 0.137107,0.81179 -0.09004,0.34425 0.237596,1.21722 0.728028,1.93993 l 0.891725,1.31402 h -0.543719 c -0.299058,0 -0.781473,0.23773 -1.072039,0.5283 l -0.528293,0.52829 0.243866,2.79545 0.24384,2.79549 0.502973,-0.19302 c 0.276649,-0.10615 0.723027,0.10472 0.99195,0.46861 l 0.488976,0.66161 0.993378,-0.59803 0.993378,-0.59804 0.02222,-2.0478 c 0.03024,-2.77725 0.419841,-4.71662 1.207903,-6.01244 l 0.6587861,-1.08331 1.054523,-0.23162 c 0.579993,-0.12737 1.14218,-0.46003 1.24931,-0.73922 0.246935,-0.64349 1.76694,-0.66122 2.293514,-0.0267 l 0.399097,0.48088 -1.237853,-0.13642 -1.237827,-0.13642 v 0.35203 c 0,0.19362 -0.473551,0.59693 -1.052353,0.89622 -1.755775,0.90797 -2.6820021,3.52028 -2.1244991,5.99207 l 0.3066261,1.35962 1.196631,1.19663 c 0.658151,0.65815 1.819884,1.41346 2.581645,1.67849 l 1.385015,0.48186 -0.881962,0.34562 -0.881936,0.3456 -0.881936,-0.54575 c -0.485087,-0.30017 -1.165939,-0.8404 -1.513046,-1.2005 -1.1274421,-1.16959 -2.3188351,-0.58346 -3.0763901,1.51347 l -0.464661,1.28625 0.641483,1.35959 c 0.352821,0.74779 0.934349,1.61633 1.29233,1.93013 0.357955,0.31382 0.6570401,0.86945 0.6646341,1.23473 l 0.01376,0.66419 0.498343,-1.14652 c 0.653759,-1.50416 0.704162,-1.46214 0.73443,0.61211 0.04053,2.77905 2.319787,5.31267 5.135404,5.70852 l 0.836162,0.11755 -0.101547,-0.97015 c -0.137953,-1.31789 0.595048,-1.23661 0.861484,0.0955 0.11721,0.58614 0.349567,1.14999 0.516308,1.25305 0.16674,0.10305 0.212328,-0.0987 0.101282,-0.44831 l -0.201877,-0.63569 0.65394395,0.7326 c 0.359648,0.40294 0.821479,0.67678 1.026266,0.60852 0.204788,-0.0683 0.91598805,0.1216 1.58046205,0.42193 l 1.208114,0.54607 2.645832,-0.25207 c 1.455209,-0.13864 3.225989,-0.26133 3.935069,-0.27262 z m 0.29099,-1.61253 -0.51599,-0.31891 0.42646,-0.42645 0.4264499,-0.42646 0.23154,0.60336 c 0.29477,0.76816 0.0884,0.97446 -0.5684599,0.56846 z m -1.75662,-11.2844 c 0,-0.25871 0.10583,-0.36455 0.23519,-0.23519 0.12935,0.12935 0.12935,0.34102 0,0.47038 -0.12936,0.12935 -0.23519,0.0235 -0.23519,-0.23519 z m -0.87945,-1.40706 -0.215529,-0.34874 0.547502,0.21008 c 0.611157,0.23452 0.722977,0.48738 0.21553,0.48738 -0.182589,0 -0.428943,-0.15692 -0.547503,-0.34872 z m -6.176088,-0.53321 c 0,-0.097 0.07937,-0.1764 0.176371,-0.1764 0.09702,0 0.176398,0.0794 0.176398,0.1764 0,0.097 -0.07937,0.1764 -0.176398,0.1764 -0.097,0 -0.176371,-0.0794 -0.176371,-0.1764 z m -14.3463171,-6.76159 c 0.129355,-0.12935 0.341022,-0.12935 0.470377,0 0.129355,0.12936 0.02355,0.23519 -0.235188,0.23519 -0.258684,0 -0.364517,-0.10583 -0.235189,-0.23519 z m 9.5482841,-2.40458 -0.384943,-1.22981 0.651219,-0.58934 c 0.35814,-0.32411 0.651193,-0.85251 0.651193,-1.17419 0,-0.32168 0.462359,-1.02785 1.027483,-1.56927 l 1.02750895,-0.98441 1.530138,0.19492 c 0.84158705,0.10721 1.56982605,0.20299 1.61835105,0.21283 0.53713,0.10919 -0.131525,0.94057 -0.801053,0.99597 -1.39927505,0.11581 -2.48623605,1.02772 -3.153568,2.6457 -1.264973,3.067 -1.602158,3.3001 -2.166329,1.4976 z m 24.5535709,0.6995 c 0,-0.097 0.0794,-0.1764 0.1764,-0.1764 0.097,0 0.17639,0.0794 0.17639,0.1764 0,0.097 -0.0794,0.1764 -0.17639,0.1764 -0.097,0 -0.1764,-0.0794 -0.1764,-0.1764 z m -24.6944349,-5.46806 c 0,-0.25871 0.105833,-0.36455 0.235188,-0.23519 0.129354,0.12935 0.129354,0.34102 0,0.47038 -0.129355,0.12935 -0.235188,0.0235 -0.235188,-0.23519 z m -5.291667,-3.88057 c 0,-0.19402 0.168116,-0.35277 0.373592,-0.35277 0.205475,0 0.275484,0.15875 0.155575,0.35277 -0.11991,0.19405 -0.288026,0.3528 -0.373592,0.3528 -0.08557,0 -0.155575,-0.15875 -0.155575,-0.3528 z m 24.4258019,31.66587 0.7897,-0.78971 -0.65884,-0.12686 -0.65886,-0.1269 -0.91657,0.9166 -0.9166,0.91657 h 0.78574 c 0.43217,0 1.14109,-0.35536 1.57543,-0.7897 z m -20.1924689,0.26961 c 0,-0.20656 -1.975485,-1.2445 -2.363734,-1.24193 -0.330174,0.003 1.707806,1.34532 2.099151,1.38345 0.145521,0.0143 0.264583,-0.0495 0.264583,-0.14152 z m 22.5777689,-1.24378 c 0,-0.19405 -0.15875,-0.3528 -0.35277,-0.3528 -0.19402,0 -0.35277,0.15875 -0.35277,0.3528 0,0.19401 0.15875,0.35276 0.35277,0.35276 0.19402,0 0.35277,-0.15875 0.35277,-0.35276 z m -28.779523,-4.5406 c 0.180658,-0.29231 -0.907997,-1.8094 -1.298416,-1.8094 -0.490934,0 -0.521864,1.09979 -0.04437,1.57728 0.607378,0.60738 1.062276,0.68601 1.342786,0.23212 z m -3.676015,-4.45524 c 0,-0.097 -0.07937,-0.17639 -0.176397,-0.17639 -0.09702,0 -0.176398,0.0794 -0.176398,0.17639 0,0.097 0.07937,0.17637 0.176398,0.17637 0.09702,0 0.176397,-0.0794 0.176397,-0.17637 z m 28.104628,-2.88102 c -0.12936,-0.12935 -0.23519,-0.0235 -0.23519,0.23519 0,0.25868 0.10583,0.36452 0.23519,0.23516 0.12935,-0.12933 0.12935,-0.34099 0,-0.47035 z m 8.93704,-5.40927 c 0,-0.19402 -0.07,-0.35277 -0.15558,-0.35277 -0.0856,0 -0.25368,0.15875 -0.37359,0.35277 -0.11993,0.19404 -0.0499,0.35279 0.15555,0.35279 0.2055,0 0.37362,-0.15875 0.37362,-0.35279 z m 0.35277,-4.05694 c 0,-0.097 -0.0794,-0.1764 -0.1764,-0.1764 -0.097,0 -0.17637,0.0794 -0.17637,0.1764 0,0.097 0.0794,0.1764 0.17637,0.1764 0.097,0 0.1764,-0.0794 0.1764,-0.1764 z m -0.35277,-2.11666 c 0,-0.097 -0.0794,-0.1764 -0.1764,-0.1764 -0.097,0 -0.1764,0.0794 -0.1764,0.1764 0,0.097 0.0794,0.17639 0.1764,0.17639 0.097,0 0.1764,-0.0794 0.1764,-0.17639 z m -0.11761,-1.46992 c -0.12935,-0.12936 -0.23519,-0.0236 -0.23519,0.23518 0,0.25871 0.10584,0.36455 0.23519,0.23519 0.12936,-0.12935 0.12936,-0.34102 0,-0.47037 z m -3.05739,-2.76342 c 0,-0.097 -0.0794,-0.1764 -0.1764,-0.1764 -0.097,0 -0.1764,0.0794 -0.1764,0.1764 0,0.097 0.0794,0.17637 0.1764,0.17637 0.097,0 0.1764,-0.0794 0.1764,-0.17637 z m -33.005819,-1.80551 c 0.317235,-1.26389 -0.05109,-1.51313 -0.498211,-0.33711 -0.442251,1.16321 -0.445981,1.26066 -0.0481,1.26066 0.172985,0 0.418835,-0.41558 0.546311,-0.92355 z m -1.331225,-0.36995 c -0.129355,-0.12935 -0.235188,-0.0235 -0.235188,0.23517 0,0.25871 0.105833,0.36454 0.235188,0.23518 0.129355,-0.12935 0.129355,-0.34102 0,-0.47035 z m 36.806474,-2.71586 c 0,-0.59013 -1.33831,-2.34064 -1.78948,-2.34064 -0.54083,0 -0.37259,0.67273 0.44471,1.77819 0.82921,1.12156 1.34477,1.3372 1.34477,0.56245 z m -31.4619959,-3.8939 0.842486,-0.67136 -0.586661,-0.32832 c -0.6992941,-0.39134 -1.7404291,-0.0728 -1.4258131,0.43619 0.121576,0.19672 -0.101812,0.81108 -0.496385,1.36525 -0.394599,0.55415 -0.617326,1.10768 -0.494929,1.23005 0.122396,0.1224 0.469185,-0.13364 0.770652,-0.56898 0.301466,-0.43532 0.927258,-1.09361 1.3906501,-1.46283 z m 24.0434559,0.15594 c 0.2854,-0.1805 0.40071,-0.44643 0.25617,-0.59097 -0.14452,-0.14452 -0.53113,0.006 -0.85913,0.33361 -0.63759,0.6376 -0.25591,0.80053 0.60296,0.25736 z m -8.8092259,-0.19018 c 0,-0.097 -0.07937,-0.17637 -0.176396,-0.17637 -0.09702,0 -0.176398,0.0794 -0.176398,0.17637 0,0.097 0.07937,0.1764 0.176398,0.1764 0.09702,0 0.176396,-0.0794 0.176396,-0.1764 z m 2.898136,-1.84018 1.31067,-0.3793 -0.0759,0.4042 -0.0759,0.40418 1.1470799,0.11059 1.14707,0.11057 -0.0816,-3.37377 c -0.095,-3.92768 -0.0345,-3.87484 -1.8597599,-1.62244 -0.7761,0.95773 -1.60207,1.74923 -1.835463,1.75889 -0.824601,0.0341 -2.08878,0.78239 -2.538545,1.50259 l -0.455453,0.72929 0.446139,0.8336 0.446141,0.83362 0.557477,-0.46638 c 0.306626,-0.25649 1.147286,-0.63704 1.868144,-0.84564 z m 2.3935299,0.0763 c 0,-0.097 0.0794,-0.1764 0.17637,-0.1764 0.097,0 0.1764,0.0794 0.1764,0.1764 0,0.097 -0.0794,0.17637 -0.1764,0.17637 -0.097,0 -0.17637,-0.0794 -0.17637,-0.17637 z m -15.1694599,-1.035 v -1.50149 l -0.641958,-0.58096 c -1.333738,-1.20702 -6.6661511,-2.56841 -7.3564491,-1.87813 -0.249714,0.24973 0.333111,1.56768 1.382078,3.12513 l 0.641006,0.95178 1.2178771,-0.71856 c 0.669845,-0.39521 1.400545,-0.65767 1.623801,-0.58325 l 0.405923,0.13531 -0.59383,0.59382 c -0.326602,0.32661 -0.856298,0.74073 -1.177105,0.92025 l -0.583274,0.32641 0.393356,0.47511 0.393329,0.47512 2.147623,-0.11952 2.147623,-0.11953 z m 4.85071195,0.43418 1.49928805,-0.33827 v -0.82818 c 0,-0.45549 -0.238125,-1.0663 -0.529167,-1.35734 -0.29104105,-0.29104 -0.52916605,-0.69926 -0.52916605,-0.90714 0,-0.51112 -0.612167,-0.48174 -0.78531,0.0377 -0.0762,0.22862 -0.462015,-0.20794 -0.857329,-0.97014 -0.39531395,-0.7622 -0.95289695,-1.43169 -1.23904395,-1.48777 l -0.520303,-0.10194 -0.415661,0.91229 c -0.228626,0.50177 -0.415686,1.72577 -0.415686,2.72001 v 1.80771 l 0.5951,0.65756 0.595101,0.6576 0.551445,-0.23191 c 0.303265,-0.12756 1.22610495,-0.38412 2.05073195,-0.57018 z m 3.47935005,-1.99574 c 0.115544,-0.51217 0.431668,-1.7141 0.702522,-2.67095 0.576818,-2.03789 0.623544,-2.79267 0.154914,-2.50305 l -0.337503,0.20859 0.186796,-1.68707 0.186822,-1.68708 -0.732155,-2.08635 c -0.787585,-2.24425 -0.744326,-2.74053 0.159994,-1.8362 0.806979,0.80696 1.15488,0.70917 0.967316,-0.27191 -0.08863,-0.46368 -0.503184,-0.99648 -0.921199,-1.18398 l -0.760069,-0.3409 -0.991738,0.34407 -0.991764,0.34408 0.233495,0.57532 c 0.128429,0.31642 0.540755,1.83971 0.916305,3.38509 l 0.682837,2.80977 -0.170207,3.01106 c -0.09361,1.65608 -0.234738,3.43368 -0.31361,3.95021 l -0.143431,0.93915 0.480298,-0.18431 c 0.26416,-0.10137 0.574834,-0.60336 0.690377,-1.11554 z m -1.627266,-12.92567 c 0,-0.097 0.07937,-0.17639 0.176371,-0.17639 0.09702,0 0.176397,0.0794 0.176397,0.17639 0,0.097 -0.07937,0.17639 -0.176397,0.17639 -0.097,0 -0.176371,-0.0794 -0.176371,-0.17639 z m 0,8.11389 c 0,-0.097 -0.07937,-0.17639 -0.176398,-0.17639 -0.09702,0 -0.176398,0.0794 -0.176398,0.17639 0,0.097 0.07937,0.17639 0.176398,0.17639 0.09702,0 0.176398,-0.0794 0.176398,-0.17639 z"
       id="path5912" />
  </g>
</svg>
